# 3ds Max Wavefront OBJ Exporter v0.97b - (c)2007 guruware
# çÏê¨ÇµÇΩÉtÉ@ÉCÉã : 08.10.2019 14:19:43

mtllib Arrow.mtl

#
# object Box001
#

v  -2.5000 0.0000 -1.2500
v  -2.5000 5.0000 -1.2500
v  2.5000 5.0000 -1.2500
v  2.5000 0.0000 -1.2500
v  5.0000 0.0000 -1.2500
v  0.0000 -5.0000 -1.2500
v  -5.0000 0.0000 -1.2500
v  5.0000 -0.0000 1.2500
v  2.5000 -0.0000 1.2500
v  2.5000 5.0000 1.2500
v  -2.5000 5.0000 1.2500
v  -2.5000 -0.0000 1.2500
v  -5.0000 -0.0000 1.2500
v  -0.0000 -5.0000 1.2500
v  0.0000 -6.2500 0.0000
v  -6.2500 -0.0000 0.0000
v  -5.0000 0.7500 -0.0000
v  -3.2500 0.7500 -0.0000
v  -3.2500 6.2500 0.0000
v  6.2500 -0.0000 -0.0000
v  5.0000 0.7500 -0.0000
v  3.2500 6.2500 -0.0000
v  3.2500 0.7500 -0.0000
# 23 vertices

vn -0.0000 0.0000 -1.0000
vn 0.0000 -0.0000 1.0000
vn -0.5774 -0.5774 -0.5774
vn -0.5774 -0.5774 0.5774
vn -0.4575 0.7625 -0.4575
vn -0.4575 0.7625 0.4575
vn -0.8575 0.0000 -0.5145
vn -0.0000 0.8575 -0.5145
vn 0.0000 0.8575 0.5145
vn -0.8575 -0.0000 0.5145
vn 0.5774 -0.5774 0.5774
vn 0.5774 -0.5774 -0.5774
vn 0.4575 0.7625 0.4575
vn 0.4575 0.7625 -0.4575
vn 0.8575 0.0000 -0.5145
vn 0.8575 -0.0000 0.5145
vn -0.0000 0.7071 -0.7071
vn 0.0000 0.7071 0.7071
# 18 vertex normals

vt 0.1250 0.0000 0.0000
vt 0.3125 0.0000 0.0000
vt 0.4375 0.0000 0.0000
vt 0.2500 0.0000 0.0000
vt 1.0000 0.0000 0.0000
vt 0.0000 0.0000 0.0000
vt 1.2500 0.0000 0.0000
vt 1.0000 1.0000 0.0000
vt 0.0000 1.0000 0.0000
vt 0.5000 0.0000 0.0000
vt 0.7500 -1.0000 0.0000
vt -0.0000 1.0000 0.0000
# 12 texture coords

g Box001
usemtl wire_166229229
s off
f 1/1/1 2/2/1 3/3/1 4/4/1 5/5/1 6/6/1 7/6/1 
f 8/7/2 9/5/2 10/8/2 11/9/2 12/10/2 13/4/2 14/11/2 
f 7/6/3 6/6/3 15/6/3 16/9/3 
f 14/8/4 13/9/4 16/9/4 15/6/4 
f 7/6/5 16/9/5 17/9/5 
f 16/9/6 13/9/6 17/9/6 
f 2/6/7 1/5/7 18/8/7 19/9/7 
f 1/5/8 7/5/8 17/8/8 18/8/8 
f 17/8/9 13/8/9 12/8/9 18/8/9 
f 12/8/10 11/9/10 19/9/10 18/8/10 
f 8/8/11 14/8/11 15/6/11 20/5/11 
f 6/6/12 5/5/12 20/5/12 15/6/12 
f 8/8/13 20/5/13 21/8/13 
f 20/5/14 5/5/14 21/8/14 
f 4/6/15 3/5/15 22/5/15 23/9/15 
f 10/8/16 9/9/16 23/9/16 22/5/16 
f 9/9/9 8/12/9 21/9/9 23/9/9 
f 21/9/8 5/6/8 4/6/8 23/9/8 
f 3/6/17 2/5/17 19/5/17 22/6/17 
f 11/8/18 10/9/18 22/6/18 19/5/18 
# 16 polygons - 4 triangles

