# 3ds Max Wavefront OBJ Exporter v0.97b - (c)2007 guruware
# çÏê¨ÇµÇΩÉtÉ@ÉCÉã : 05.07.2019 13:14:55

mtllib Barricade.mtl

#
# object Box002
#

v  -30.0000 0.0000 20.0000
v  -30.0000 0.0000 -20.0000
v  30.0000 0.0000 -20.0000
v  30.0000 0.0000 20.0000
v  -30.0000 45.0000 5.0000
v  30.0000 45.0000 5.0000
v  30.0000 45.0000 -5.0000
v  -30.0000 45.0000 -5.0000
v  30.0000 7.5000 20.0000
v  -30.0000 7.5000 20.0000
v  30.0000 7.5000 -20.0000
v  -30.0000 7.5000 -20.0000
v  30.0000 22.5000 10.0000
v  -30.0000 22.5000 10.0000
v  30.0000 22.5000 -10.0000
v  -30.0000 22.5000 -10.0000
# 16 vertices

vn 0.0000 -1.0000 -0.0000
vn 0.0000 1.0000 -0.0000
vn 0.0000 0.0000 1.0000
vn 1.0000 0.0000 -0.0000
vn 0.0000 0.0000 -1.0000
vn -1.0000 0.0000 -0.0000
vn 0.0000 0.5547 0.8321
vn 0.0000 0.5547 -0.8321
vn 0.0000 0.2169 -0.9762
vn 0.0000 0.2169 0.9762
# 10 vertex normals

vt 0.5318 0.1939 0.0000
vt 0.5318 0.4996 0.0000
vt 0.8374 0.4996 0.0000
vt 0.8374 0.1940 0.0000
vt 0.1179 0.2990 0.0000
vt 0.3179 0.2990 0.0000
vt 0.3179 0.4990 0.0000
vt 0.1179 0.4990 0.0000
vt 0.0550 0.6784 0.0000
vt 0.2693 0.6784 0.0000
vt 0.2693 0.7141 0.0000
vt 0.0550 0.7141 0.0000
vt 0.6478 0.6622 0.0000
vt 0.4428 0.6622 0.0000
vt 0.4428 0.6964 0.0000
vt 0.6478 0.6964 0.0000
vt 0.2693 0.7856 0.0000
vt 0.0550 0.7856 0.0000
vt 0.4940 0.7647 0.0000
vt 0.5965 0.7647 0.0000
vt 0.5197 0.8672 0.0000
vt 0.5709 0.8672 0.0000
vt 0.2693 0.8927 0.0000
vt 0.0550 0.8927 0.0000
# 24 texture coords

g Box002
usemtl Material__2
s off
f 1/1/1 2/2/1 3/3/1 4/4/1 
f 5/5/2 6/6/2 7/7/2 8/8/2 
f 1/9/3 4/10/3 9/11/3 10/12/3 
f 4/13/4 3/14/4 11/15/4 9/16/4 
f 3/9/5 2/10/5 12/11/5 11/12/5 
f 2/14/6 1/13/6 10/16/6 12/15/6 
f 10/12/7 9/11/7 13/17/7 14/18/7 
f 9/16/4 11/15/4 15/19/4 13/20/4 
f 11/12/8 12/11/8 16/17/8 15/18/8 
f 12/15/6 10/16/6 14/20/6 16/19/6 
f 13/20/4 15/19/4 7/21/4 6/22/4 
f 15/18/9 16/17/9 8/23/9 7/24/9 
f 16/19/6 14/20/6 5/22/6 8/21/6 
f 14/18/10 13/17/10 6/23/10 5/24/10 
# 14 polygons

