# 3ds Max Wavefront OBJ Exporter v0.97b - (c)2007 guruware
# çÏê¨ÇµÇΩÉtÉ@ÉCÉã : 20.09.2019 11:57:33

mtllib Box.mtl

#
# object Box001
#

v  -5.0000 -5.0000 -0.0000
v  -5.0000 5.0000 0.0000
v  5.0000 5.0000 0.0000
v  5.0000 -5.0000 -0.0000
v  -5.0000 -5.0000 10.0000
v  5.0000 -5.0000 10.0000
v  5.0000 5.0000 10.0000
v  -5.0000 5.0000 10.0000
# 8 vertices

vn 0.0000 0.0000 -1.0000
vn 0.0000 -0.0000 1.0000
vn 0.0000 -1.0000 -0.0000
vn 1.0000 0.0000 -0.0000
vn 0.0000 1.0000 0.0000
vn -1.0000 0.0000 -0.0000
# 6 vertex normals

vt 0.9250 0.0750 0.0000
vt 0.9250 0.3250 0.0000
vt 0.6750 0.3250 0.0000
vt 0.6750 0.0750 0.0000
vt 0.6750 0.5750 0.0000
vt 0.9250 0.5750 0.0000
vt 0.4250 0.3250 0.0000
vt 0.4250 0.0750 0.0000
vt 0.9250 0.8250 0.0000
vt 0.6750 0.8250 0.0000
# 10 texture coords

g Box001
usemtl Material__2
s 2
f 1/1/1 2/2/1 3/3/1 4/4/1 
s 4
f 5/4/2 6/1/2 7/2/2 8/3/2 
s 8
f 1/5/3 4/6/3 6/2/3 5/3/3 
s 16
f 4/4/4 3/3/4 7/7/4 6/8/4 
s 32
f 3/9/5 2/10/5 8/5/5 7/6/5 
s 64
f 2/7/6 1/8/6 5/4/6 8/3/6 
# 6 polygons

