# 3ds Max Wavefront OBJ Exporter v0.97b - (c)2007 guruware
# çÏê¨ÇµÇΩÉtÉ@ÉCÉã : 16.07.2019 13:13:19

mtllib bumper.mtl

#
# object Box003
#

v  -10.0000 0.0000 35.0000
v  -7.5000 0.0000 35.0000
v  -7.5000 0.0000 37.5000
v  -7.5000 15.0000 32.5000
v  -7.5000 16.2500 30.0000
v  -10.0000 15.0000 30.0000
v  -7.5000 7.5000 35.0000
v  -7.5000 7.5000 37.5000
v  -10.0000 7.5000 35.0000
v  7.5000 7.5000 37.5000
v  10.0000 7.5000 35.0000
v  10.0000 10.0000 35.0000
v  7.5000 10.0000 37.5000
v  -10.0000 10.0000 35.0000
v  -7.5000 10.0000 35.0000
v  -7.5000 10.0000 37.5000
v  7.5000 7.5000 35.0000
v  7.5000 10.0000 35.0000
v  7.5000 0.0000 35.0000
v  10.0000 0.0000 35.0000
v  7.5000 0.0000 37.5000
v  7.5000 16.2500 30.0000
v  7.5000 15.0000 32.5000
v  10.0000 15.0000 30.0000
v  -7.5000 15.0000 30.0000
v  7.5000 15.0000 30.0000
# 26 vertices

vn 0.0000 -1.0000 -0.0000
vn -0.4082 0.8165 0.4082
vn 1.0000 0.0000 -0.0000
vn 0.0000 0.0000 -1.0000
vn -0.7071 0.0000 0.7071
vn 0.7071 0.0000 0.7071
vn 0.0000 1.0000 -0.0000
vn -0.0000 0.0000 1.0000
vn 0.4082 0.8165 0.4082
vn -1.0000 0.0000 -0.0000
vn 0.0000 -0.7071 -0.7071
vn -0.5774 0.5774 0.5774
vn 0.5774 0.5774 0.5774
vn 0.0000 0.8944 0.4472
# 14 vertex normals

vt 1.0000 1.0000 0.0000
vt 0.0000 1.0000 0.0000
vt 0.0000 0.0000 0.0000
vt 1.0000 0.0000 0.0000
# 4 texture coords

g Box003
usemtl wire_086086086
s 2
f 1/1/1 2/2/1 3/3/1 
s 4
f 4/3/2 5/1/2 6/2/2 
s 16
f 3/3/3 2/4/3 7/1/3 8/2/3 
s 32
f 2/3/4 1/4/4 9/1/4 7/2/4 
s 64
f 1/3/5 3/4/5 8/1/5 9/2/5 
s off
f 10/4/6 11/1/6 12/1/6 13/4/6 
f 7/1/4 9/2/4 14/2/4 15/1/4 
f 9/2/5 8/3/5 16/3/5 14/2/5 
f 8/3/1 7/1/1 17/1/1 10/4/1 
f 7/1/4 15/1/4 18/1/4 17/1/4 
f 15/1/7 16/3/7 13/4/7 18/1/7 
f 16/3/8 8/3/8 10/4/8 13/4/8 
f 19/1/1 20/1/1 21/4/1 
f 17/1/4 18/1/4 12/1/4 11/1/4 
f 22/1/9 23/4/9 24/1/9 
f 10/4/10 17/1/10 19/1/10 21/4/10 
f 17/1/4 11/1/4 20/1/4 19/1/4 
f 11/1/6 10/4/6 21/4/6 20/1/6 
f 16/3/3 15/1/3 25/1/3 4/3/3 
f 15/1/11 14/2/11 6/2/11 25/1/11 
f 14/2/12 16/3/12 4/3/12 6/2/12 
f 18/1/10 13/4/10 23/4/10 26/1/10 
f 13/4/13 12/1/13 24/1/13 23/4/13 
f 12/1/11 18/1/11 26/1/11 24/1/11 
f 25/1/4 6/2/4 5/1/4 
f 24/1/4 26/1/4 22/1/4 
f 4/3/1 25/1/1 26/1/1 23/3/1 
f 25/1/4 5/1/4 22/1/4 26/1/4 
f 5/1/14 4/3/14 23/3/14 22/1/14 
# 23 polygons - 6 triangles

