# 3ds Max Wavefront OBJ Exporter v0.97b - (c)2007 guruware
# çÏê¨ÇµÇΩÉtÉ@ÉCÉã : 16.10.2019 14:12:53

mtllib Guardrail 2.mtl

#
# object Box001
#

v  40.0000 65.0000 -3.0900
v  40.0000 80.0000 -3.0900
v  40.0000 80.0000 3.0900
v  40.0000 65.0000 3.0900
v  -40.0000 65.0000 -3.0900
v  -40.0000 65.0000 3.0900
v  -40.0000 80.0000 3.0900
v  -40.0000 80.0000 -3.0900
v  40.0000 35.0000 -3.0900
v  40.0000 50.0000 -3.0900
v  40.0000 50.0000 3.0900
v  40.0000 35.0000 3.0900
v  -40.0000 35.0000 -3.0900
v  -40.0000 35.0000 3.0900
v  -40.0000 50.0000 3.0900
v  -40.0000 50.0000 -3.0900
# 16 vertices

vn 1.0000 0.0000 0.0000
vn -1.0000 -0.0000 -0.0000
vn 0.0000 -1.0000 0.0000
vn -0.0000 -0.0000 1.0000
vn -0.0000 1.0000 -0.0000
vn 0.0000 0.0000 -1.0000
vn -0.0000 -1.0000 -0.0000
# 7 vertex normals

vt 0.9700 0.0300 0.0000
vt 0.9700 0.9700 0.0000
vt 0.0300 0.9700 0.0000
vt 0.0300 0.0300 0.0000
# 4 texture coords

g Box001
usemtl Material__2
s 2
f 1/1/1 2/2/1 3/3/1 4/4/1 
s 4
f 5/4/2 6/1/2 7/2/2 8/3/2 
s 8
f 1/4/3 4/1/3 6/2/3 5/3/3 
s 16
f 4/4/4 3/1/4 7/2/4 6/3/4 
s 32
f 3/4/5 2/1/5 8/2/5 7/3/5 
s 64
f 2/4/6 1/1/6 5/2/6 8/3/6 
s 2
f 9/1/1 10/2/1 11/3/1 12/4/1 
s 4
f 13/4/2 14/1/2 15/2/2 16/3/2 
s 8
f 9/4/7 12/1/7 14/2/7 13/3/7 
s 16
f 12/4/4 11/1/4 15/2/4 14/3/4 
s 32
f 11/4/5 10/1/5 16/2/5 15/3/5 
s 64
f 10/4/6 9/1/6 13/2/6 16/3/6 
# 12 polygons

