# 3ds Max Wavefront OBJ Exporter v0.97b - (c)2007 guruware
# çÏê¨ÇµÇΩÉtÉ@ÉCÉã : 05.07.2019 14:17:57

mtllib Jump ramp.mtl

#
# object Box001
#

v  15.0000 0.0000 20.0000
v  15.0000 0.0000 -20.0000
v  15.0000 12.9500 -20.0000
v  15.0000 12.5000 -18.7500
v  15.0000 1.2500 -18.7500
v  15.0000 1.2500 12.5000
v  -15.0000 0.0000 20.0000
v  -15.0000 15.0000 -20.0000
v  -15.0000 12.9500 -20.0000
v  -15.0000 12.5000 -18.7500
v  -15.0000 1.2500 12.5000
v  -15.0000 0.0000 -20.0000
v  15.0000 15.0000 -20.0000
v  -15.0000 1.2500 -18.7500
# 14 vertices

vn 1.0000 0.0000 -0.0000
vn -1.0000 0.0000 -0.0000
vn 0.0000 -1.0000 -0.0000
vn 0.0000 0.0000 -1.0000
vn 0.0000 0.9363 0.3511
vn 0.0000 1.0000 -0.0000
vn -0.0000 -0.9409 -0.3387
vn 0.0000 0.0000 1.0000
# 8 vertex normals

vt 0.5551 0.0792 0.0000
vt 0.3404 0.0792 0.0000
vt 0.3404 0.2939 0.0000
vt 0.3472 0.2864 0.0000
vt 0.3472 0.1000 0.0000
vt 0.5148 0.1000 0.0000
vt 0.5154 0.7284 0.0000
vt 0.3104 0.9334 0.0000
vt 0.3104 0.9053 0.0000
vt 0.3168 0.8992 0.0000
vt 0.4770 0.7454 0.0000
vt 0.6153 0.0720 0.0000
vt 0.6153 0.3290 0.0000
vt 0.8723 0.3290 0.0000
vt 0.8723 0.0720 0.0000
vt 0.1222 0.0951 0.0000
vt 0.1222 0.2077 0.0000
vt 0.2258 0.2077 0.0000
vt 0.2258 0.0951 0.0000
vt 0.6127 0.9585 0.0000
vt 0.6127 0.7172 0.0000
vt 0.8540 0.7172 0.0000
vt 0.8540 0.9585 0.0000
vt 0.6153 0.3209 0.0000
vt 0.6153 0.1202 0.0000
vt 0.8723 0.1202 0.0000
vt 0.8723 0.3209 0.0000
vt 0.6127 0.7624 0.0000
vt 0.6127 0.9509 0.0000
vt 0.8540 0.9509 0.0000
vt 0.8540 0.7624 0.0000
vt 0.1222 0.2038 0.0000
vt 0.1222 0.1059 0.0000
vt 0.2258 0.1059 0.0000
vt 0.2258 0.2038 0.0000
vt 0.0940 0.7801 0.0000
vt 0.0940 0.8920 0.0000
vt 0.2233 0.8920 0.0000
vt 0.2233 0.7801 0.0000
# 39 texture coords

g Box001
usemtl Material__2
s off
f 1/1/1 2/2/1 3/3/1 4/4/1 5/5/1 6/6/1 
f 7/7/2 8/8/2 9/9/2 10/10/2 11/11/2 
f 7/12/3 12/13/3 2/14/3 1/15/3 
f 12/16/4 9/17/4 3/18/4 2/19/4 
f 8/20/5 7/21/5 1/22/5 13/23/5 
f 14/24/6 11/25/6 6/26/6 5/27/6 
f 11/28/7 10/29/7 4/30/7 6/31/7 
f 10/32/8 14/33/8 5/34/8 4/35/8 
f 9/3/2 12/2/2 7/1/2 11/6/2 14/5/2 10/4/2 
f 3/9/1 13/8/1 1/7/1 6/11/1 4/10/1 
f 9/36/4 8/37/4 13/38/4 3/39/4 
# 11 polygons

