# 3ds Max Wavefront OBJ Exporter v0.97b - (c)2007 guruware
# ì¬‚µ‚½ƒtƒ@ƒCƒ‹ : 12.07.2019 13:57:42

mtllib Lamp.mtl

#
# object Box003
#

v  -5.0000 26.2500 -3.7500
v  -5.0000 27.5000 -2.5000
v  5.0000 27.5000 -2.5000
v  5.0000 26.2500 -3.7500
v  -5.0000 26.2500 3.7500
v  5.0000 26.2500 3.7500
v  5.0000 27.5000 2.5000
v  -5.0000 27.5000 2.5000
v  -5.0000 32.5000 -2.5000
v  -5.0000 32.5000 2.5000
v  5.0000 32.5000 2.5000
v  5.0000 32.5000 -2.5000
v  -5.0000 28.7500 -3.7500
v  5.0000 28.7500 -3.7500
v  5.0000 28.7500 3.7500
v  -5.0000 28.7500 3.7500
v  -13.7500 28.7500 2.5000
v  -13.7500 31.2500 2.5000
v  -13.7500 31.2500 -2.5000
v  -13.7500 28.7500 -2.5000
v  13.7500 28.7500 -2.5000
v  13.7500 31.2500 -2.5000
v  13.7500 31.2500 2.5000
v  13.7500 28.7500 2.5000
v  12.5000 32.5000 2.5000
v  12.5000 32.5000 -2.5000
v  5.0000 31.2500 3.7500
v  12.5000 31.2500 3.7500
v  12.5000 28.7500 3.7500
v  12.5000 27.5000 2.5000
v  12.5000 27.5000 -2.5000
v  12.5000 28.7500 -3.7500
v  5.0000 31.2500 -3.7500
v  12.5000 31.2500 -3.7500
v  -5.0000 31.2500 3.7500
v  -12.5000 32.5000 2.5000
v  -12.5000 31.2500 3.7500
v  -12.5000 32.5000 -2.5000
v  -5.0000 31.2500 -3.7500
v  -12.5000 31.2500 -3.7500
v  -12.5000 28.7500 -3.7500
v  -12.5000 27.5000 -2.5000
v  -12.5000 27.5000 2.5000
v  -12.5000 28.7500 3.7500
# 44 vertices

vn 0.0000 0.7071 -0.7071
vn 0.0000 0.7071 0.7071
vn 0.0000 -1.0000 -0.0000
vn 1.0000 0.0000 -0.0000
vn 0.0000 1.0000 0.0000
vn -1.0000 0.0000 -0.0000
vn 0.0000 -0.7071 -0.7071
vn 0.0000 -0.7071 0.7071
vn 0.0000 -0.0000 1.0000
vn -0.0000 0.0000 -1.0000
vn -0.0000 0.7071 -0.7071
vn -0.0000 0.7071 0.7071
vn 0.0000 0.0000 -1.0000
vn -0.0000 -0.0000 1.0000
vn -0.5774 0.5774 0.5773
vn -0.7071 0.7071 0.0000
vn -0.5774 0.5773 -0.5774
vn -0.7071 -0.0000 -0.7071
vn -0.5774 -0.5773 -0.5774
vn -0.7071 -0.7071 -0.0000
vn -0.5774 -0.5774 0.5773
vn -0.7071 0.0000 0.7071
vn 0.7071 0.7071 0.0000
vn 0.5774 0.5774 0.5773
vn 0.7071 0.0000 0.7071
vn 0.5774 -0.5774 0.5773
vn 0.7071 -0.7071 -0.0000
vn 0.5774 -0.5773 -0.5774
vn 0.7071 0.0000 -0.7071
vn 0.5774 0.5773 -0.5774
# 30 vertex normals

vt 0.3615 0.8038 0.0000
vt 0.3615 0.9088 0.0000
vt 0.4665 0.9088 0.0000
vt 0.4665 0.8038 0.0000
vt 0.4020 0.7587 0.0000
vt 0.5650 0.7587 0.0000
vt 0.5650 0.5957 0.0000
vt 0.4020 0.5957 0.0000
vt 0.1869 0.8049 0.0000
vt 0.2050 0.9131 0.0000
vt 0.2771 0.9131 0.0000
vt 0.2951 0.8049 0.0000
vt 0.4020 0.7316 0.0000
vt 0.4020 0.6229 0.0000
vt 0.5650 0.6229 0.0000
vt 0.5650 0.7316 0.0000
vt 0.3327 0.5908 0.0000
vt 0.1611 0.5908 0.0000
vt 0.3327 0.6337 0.0000
vt 0.1611 0.6337 0.0000
vt 0.2646 0.3600 0.0000
vt 0.2646 0.5127 0.0000
vt 0.1119 0.5127 0.0000
vt 0.1119 0.3600 0.0000
vt 0.7411 0.3879 0.0000
vt 0.7411 0.5297 0.0000
vt 0.8828 0.5297 0.0000
vt 0.8828 0.3879 0.0000
vt 0.6208 0.3122 0.0000
vt 0.6208 0.2186 0.0000
vt 0.7010 0.2186 0.0000
vt 0.7010 0.3122 0.0000
vt 0.7408 0.3560 0.0000
vt 0.7408 0.3140 0.0000
vt 0.8849 0.3140 0.0000
vt 0.8849 0.3560 0.0000
vt 0.7408 0.2300 0.0000
vt 0.8849 0.2300 0.0000
vt 0.7408 0.1879 0.0000
vt 0.8849 0.1879 0.0000
vt 0.2530 0.3083 0.0000
vt 0.2530 0.3435 0.0000
vt 0.1324 0.3435 0.0000
vt 0.1324 0.3083 0.0000
vt 0.4109 0.2080 0.0000
vt 0.4109 0.3350 0.0000
vt 0.3021 0.3350 0.0000
vt 0.3021 0.2080 0.0000
vt 0.2530 0.2380 0.0000
vt 0.1324 0.2380 0.0000
vt 0.2530 0.2028 0.0000
vt 0.1324 0.2028 0.0000
vt 0.3327 0.7195 0.0000
vt 0.3327 0.7624 0.0000
vt 0.1611 0.7624 0.0000
vt 0.1611 0.7195 0.0000
vt 0.1123 0.3083 0.0000
vt 0.2840 0.3350 0.0000
vt 0.2840 0.2080 0.0000
vt 0.1123 0.2380 0.0000
vt 0.7144 0.2186 0.0000
vt 0.7144 0.3122 0.0000
vt 0.9089 0.3140 0.0000
vt 0.9089 0.2300 0.0000
# 64 texture coords

g Box003
usemtl Material__2
s 2
f 1/1/1 2/2/1 3/3/1 4/4/1 
s 4
f 5/1/2 6/4/2 7/3/2 8/2/2 
s 8
f 1/5/3 4/6/3 6/7/3 5/8/3 
s 16
f 4/9/4 3/10/4 7/11/4 6/12/4 
s 32
f 9/13/5 10/14/5 11/15/5 12/16/5 
s 64
f 2/10/6 1/9/6 5/12/6 8/11/6 
s off
f 3/17/7 2/18/7 13/19/7 14/20/7 
f 8/18/8 7/17/8 15/19/8 16/20/8 
f 17/21/6 18/22/6 19/23/6 20/24/6 
f 21/25/4 22/26/4 23/27/4 24/28/4 
f 12/29/5 11/30/5 25/31/5 26/32/5 
f 11/33/2 27/34/2 28/35/2 25/36/2 
f 27/34/9 15/37/9 29/38/9 28/35/9 
f 15/37/8 7/39/8 30/40/8 29/38/8 
f 7/30/3 3/29/3 31/32/3 30/31/3 
f 3/39/7 14/37/7 32/38/7 31/40/7 
f 14/37/10 33/34/10 34/35/10 32/38/10 
f 33/34/11 12/33/11 26/36/11 34/35/11 
f 35/41/12 10/42/12 36/43/12 37/44/12 
f 10/45/5 9/46/5 38/47/5 36/48/5 
f 9/42/1 39/41/1 40/44/1 38/43/1 
f 39/41/13 13/49/13 41/50/13 40/44/13 
f 13/49/7 2/51/7 42/52/7 41/50/7 
f 2/46/3 8/45/3 43/48/3 42/47/3 
f 8/51/8 16/49/8 44/50/8 43/52/8 
f 16/49/14 35/41/14 37/44/14 44/50/14 
f 27/53/2 11/54/2 10/55/2 35/56/2 
f 15/19/9 27/53/9 35/56/9 16/20/9 
f 39/53/1 9/55/1 12/54/1 33/56/1 
f 13/19/13 39/53/13 33/56/13 14/20/13 
f 37/44/15 36/43/15 18/57/15 
f 36/48/16 38/47/16 19/58/16 18/59/16 
f 38/43/17 40/44/17 19/57/17 
f 40/44/18 41/50/18 20/60/18 19/57/18 
f 41/50/19 42/52/19 20/60/19 
f 42/47/20 43/48/20 17/59/20 20/58/20 
f 43/52/21 44/50/21 17/60/21 
f 44/50/22 37/44/22 18/57/22 17/60/22 
f 26/32/23 25/31/23 23/61/23 22/62/23 
f 25/36/24 28/35/24 23/63/24 
f 28/35/25 29/38/25 24/64/25 23/63/25 
f 29/38/26 30/40/26 24/64/26 
f 30/31/27 31/32/27 21/62/27 24/61/27 
f 31/40/28 32/38/28 21/64/28 
f 32/38/29 34/35/29 22/63/29 21/64/29 
f 34/35/30 26/36/30 22/63/30 
# 38 polygons - 8 triangles

