# 3ds Max Wavefront OBJ Exporter v0.97b - (c)2007 guruware
# ì¬‚µ‚½ƒtƒ@ƒCƒ‹ : 04.07.2019 12:46:51

mtllib Police Car.mtl

#
# object Box002
#

v  5.0000 6.2500 30.0000
v  -5.0000 6.2500 30.0000
v  -5.0000 0.0000 30.0000
v  5.0000 0.0000 30.0000
v  -5.0000 6.2500 -30.0000
v  5.0000 6.2500 -30.0000
v  5.0000 0.0000 -30.0000
v  -5.0000 0.0000 -30.0000
v  -10.0000 6.2500 21.2500
v  -10.0000 -0.0000 21.2500
v  10.0000 -0.0000 21.2500
v  10.0000 6.2500 21.2500
v  5.0000 17.5000 5.0000
v  5.0000 17.5000 -5.0000
v  -5.0000 17.5000 -5.0000
v  -5.0000 17.5000 5.0000
v  10.0000 6.2500 -21.2500
v  10.0000 0.0000 -21.2500
v  -10.0000 0.0000 -21.2500
v  -10.0000 6.2500 -21.2500
v  -5.0000 10.0000 25.0000
v  -10.0000 10.0000 16.2500
v  5.0000 10.0000 25.0000
v  10.0000 10.0000 16.2500
v  5.0000 10.0000 -25.0000
v  10.0000 10.0000 -16.2500
v  -5.0000 10.0000 -25.0000
v  -10.0000 10.0000 -16.2500
v  10.0000 13.7500 11.2500
v  -10.0000 13.7500 11.2500
v  10.0000 13.7500 -11.2500
v  -10.0000 13.7500 -11.2500
v  5.0000 15.0000 5.0000
v  -5.0000 15.0000 5.0000
v  5.0000 15.0000 -5.0000
v  -5.0000 15.0000 -5.0000
v  5.0000 16.2500 6.2500
v  -5.0000 16.2500 6.2500
v  -10.0000 16.2500 -6.2500
v  -5.0000 16.2500 -6.2500
v  10.0000 16.2500 -6.2500
v  5.0000 16.2500 -6.2500
# 42 vertices

vn -0.0000 0.0000 1.0000
vn 0.0000 0.0000 -1.0000
vn -0.8682 0.0000 0.4961
vn 0.8682 0.0000 0.4961
vn -0.0000 1.0000 0.0000
vn 0.8682 -0.0000 -0.4961
vn -0.0000 -1.0000 0.0000
vn -0.8682 0.0000 -0.4961
vn -0.7241 0.5517 0.4138
vn -0.0000 0.8000 0.6000
vn 0.7241 0.5517 0.4138
vn 0.7241 0.5517 -0.4138
vn -0.0000 0.8000 -0.6000
vn -0.7241 0.5517 -0.4138
vn -0.0000 1.0000 -0.0000
vn 0.0000 1.0000 -0.0000
vn 1.0000 0.0000 0.0000
vn -1.0000 0.0000 -0.0000
vn -0.0000 0.9806 0.1961
vn 0.2425 0.9701 0.0000
vn 0.0000 0.9806 -0.1961
vn -0.2425 0.9701 0.0000
vn -0.0000 -0.7071 0.7071
vn -0.4450 -0.8900 0.0989
vn 0.0000 0.7071 -0.7071
vn 0.4450 0.8900 0.0989
vn 0.0000 -0.7071 -0.7071
vn -0.0000 0.7071 0.7071
vn -0.4450 0.8900 0.0989
vn 0.4450 -0.8900 0.0989
# 30 vertex normals

vt 0.2440 0.8655 0.0000
vt 0.1266 0.8655 0.0000
vt 0.1266 0.7697 0.0000
vt 0.2440 0.7697 0.0000
vt 0.4503 0.8684 0.0000
vt 0.5813 0.8684 0.0000
vt 0.5813 0.7697 0.0000
vt 0.4503 0.7697 0.0000
vt 0.0679 0.8655 0.0000
vt 0.0679 0.7697 0.0000
vt 0.3028 0.7697 0.0000
vt 0.3028 0.8655 0.0000
vt 0.1963 0.3310 0.0000
vt 0.1963 0.3928 0.0000
vt 0.1154 0.3928 0.0000
vt 0.1154 0.3310 0.0000
vt 0.6469 0.8684 0.0000
vt 0.6469 0.7697 0.0000
vt 0.3758 0.6384 0.0000
vt 0.3758 0.5089 0.0000
vt 0.3260 0.4822 0.0000
vt 0.2266 0.4822 0.0000
vt 0.1768 0.5089 0.0000
vt 0.1768 0.6384 0.0000
vt 0.2266 0.6651 0.0000
vt 0.3260 0.6651 0.0000
vt 0.3848 0.7697 0.0000
vt 0.3848 0.8684 0.0000
vt 0.1266 0.9230 0.0000
vt 0.0679 0.9230 0.0000
vt 0.2440 0.9230 0.0000
vt 0.3028 0.9230 0.0000
vt 0.5813 0.9276 0.0000
vt 0.6469 0.9276 0.0000
vt 0.4503 0.9276 0.0000
vt 0.3848 0.9276 0.0000
vt 0.4347 0.0872 0.0000
vt 0.4347 0.1653 0.0000
vt 0.3746 0.2043 0.0000
vt 0.3746 0.0482 0.0000
vt 0.0911 0.1653 0.0000
vt 0.0911 0.0872 0.0000
vt 0.1512 0.0482 0.0000
vt 0.1512 0.2043 0.0000
vt 0.7957 0.7582 0.0000
vt 0.8982 0.7582 0.0000
vt 0.8982 0.8339 0.0000
vt 0.7957 0.8339 0.0000
vt 0.6123 0.5327 0.0000
vt 0.5814 0.4886 0.0000
vt 0.5813 0.4153 0.0000
vt 0.8446 0.4153 0.0000
vt 0.8446 0.4886 0.0000
vt 0.8136 0.5327 0.0000
vt 0.7827 0.5767 0.0000
vt 0.6433 0.5767 0.0000
vt 0.5814 0.4153 0.0000
vt 0.8251 0.1340 0.0000
vt 0.9437 0.1340 0.0000
vt 0.9141 0.1572 0.0000
vt 0.8548 0.1572 0.0000
vt 0.9437 0.2177 0.0000
vt 0.9141 0.1945 0.0000
vt 0.8251 0.2177 0.0000
vt 0.8548 0.1945 0.0000
vt 0.0770 0.2535 0.0000
vt 0.2484 0.2535 0.0000
vt 0.2484 0.2804 0.0000
vt 0.0770 0.2804 0.0000
vt 0.3612 0.3728 0.0000
vt 0.3612 0.3125 0.0000
vt 0.3612 0.3050 0.0000
vt 0.2889 0.3804 0.0000
vt 0.3612 0.3804 0.0000
vt 0.3917 0.3129 0.0000
vt 0.3917 0.3053 0.0000
vt 0.4604 0.3818 0.0000
vt 0.3917 0.3742 0.0000
vt 0.3917 0.3818 0.0000
vt 0.2484 0.3073 0.0000
vt 0.0770 0.3073 0.0000
# 81 texture coords

g Box002
usemtl Material__2
s off
f 1/1/1 2/2/1 3/3/1 4/4/1 
f 5/5/2 6/6/2 7/7/2 8/8/2 
f 9/9/3 10/10/3 3/3/3 2/2/3 
f 11/11/4 12/12/4 1/1/4 4/4/4 
f 13/13/5 14/14/5 15/15/5 16/16/5 
f 17/17/6 18/18/6 7/7/6 6/6/6 
f 18/19/7 11/20/7 4/21/7 3/22/7 10/23/7 19/24/7 8/25/7 7/26/7 
f 19/27/8 20/28/8 5/5/8 8/8/8 
f 9/9/9 2/2/9 21/29/9 22/30/9 
f 2/2/10 1/1/10 23/31/10 21/29/10 
f 1/1/11 12/12/11 24/32/11 23/31/11 
f 17/17/12 6/6/12 25/33/12 26/34/12 
f 6/6/13 5/5/13 27/35/13 25/33/13 
f 5/5/14 20/28/14 28/36/14 27/35/14 
f 21/37/15 23/38/15 24/39/15 22/40/15 
f 25/41/16 27/42/16 28/43/16 26/44/16 
f 22/45/10 24/46/10 29/47/10 30/48/10 
f 24/49/17 12/50/17 11/51/17 18/52/17 17/53/17 26/54/17 31/55/17 29/56/17 
f 26/46/13 28/45/13 32/48/13 31/47/13 
f 28/49/18 20/50/18 19/57/18 10/52/18 9/53/18 22/54/18 30/55/18 32/56/18 
f 30/58/19 29/59/19 33/60/19 34/61/19 
f 29/59/20 31/62/20 35/63/20 33/60/20 
f 31/62/21 32/64/21 36/65/21 35/63/21 
f 32/64/22 30/58/22 34/61/22 36/65/22 
f 34/66/23 33/67/23 37/68/23 38/69/23 
f 36/70/24 34/71/24 38/72/24 39/73/24 
f 15/70/25 40/74/25 39/73/25 
f 13/75/26 37/76/26 41/77/26 14/78/26 
f 41/77/27 35/78/27 42/79/27 
f 37/68/28 13/80/28 16/81/28 38/69/28 
f 38/72/29 16/71/29 15/70/29 39/73/29 
f 37/76/30 33/75/30 35/78/30 41/77/30 
f 14/78/25 41/77/25 42/79/25 
f 15/80/25 14/81/25 42/69/25 40/68/25 
f 36/70/27 39/73/27 40/74/27 
f 35/66/27 36/67/27 40/68/27 42/69/27 
# 32 polygons - 4 triangles

