# 3ds Max Wavefront OBJ Exporter v0.97b - (c)2007 guruware
# ì¬‚µ‚½ƒtƒ@ƒCƒ‹ : 21.06.2019 12:36:45

mtllib SUV Body.mtl

#
# object Box002
#

v  -2.5000 7.5000 -32.5000
v  -2.5000 12.5000 -32.5000
v  2.5000 12.5000 -32.5000
v  2.5000 7.5000 -32.5000
v  -2.5000 7.5000 32.5000
v  2.5000 7.5000 32.5000
v  2.5000 12.5000 32.5000
v  -2.5000 12.5000 32.5000
v  -12.5000 -1.2500 -22.5000
v  12.5000 -1.2500 -22.5000
v  12.5000 -1.2500 22.5000
v  -12.5000 -1.2500 22.5000
v  -12.5000 23.2500 7.5000
v  12.5000 23.2500 7.5000
v  12.5000 23.2500 -17.5210
v  -12.5000 23.2500 -17.5210
v  17.5000 7.5000 12.5000
v  17.5000 12.5000 17.5000
v  20.0000 7.5000 17.5000
v  -17.5000 7.5000 -12.5000
v  -17.5000 12.5000 -17.5000
v  -20.0000 7.5000 -17.5000
v  -17.5000 12.5000 -22.5000
v  -20.0000 7.5000 -22.5000
v  17.5000 12.5000 -17.5000
v  20.0000 7.5000 -17.5000
v  20.0000 7.5000 -22.5000
v  17.5000 12.5000 -22.5000
v  17.5000 12.5000 22.5000
v  20.0000 7.5000 22.5000
v  -17.5000 12.5000 17.5000
v  -20.0000 7.5000 17.5000
v  -20.0000 7.5000 22.5000
v  -17.5000 12.5000 22.5000
v  -12.5000 12.5000 32.5000
v  -12.5000 7.5000 32.5000
v  -12.5000 12.5000 -32.5000
v  -12.5000 7.5000 -32.5000
v  17.5000 7.5000 27.5000
v  -17.5000 7.5000 27.5000
v  -17.5000 12.5000 27.5000
v  17.5000 7.5000 -27.5000
v  17.5000 12.5000 -27.5000
v  -17.5000 7.5000 -27.5000
v  12.5000 23.2500 -22.5210
v  -12.5000 23.2500 -22.5210
v  12.5000 12.5000 -32.5000
v  12.5000 7.5000 -32.5000
v  12.5000 12.5000 32.5000
v  12.5000 7.5000 32.5000
v  12.5000 2.5000 12.5000
v  12.5000 2.5000 -12.5000
v  17.5000 2.5000 -12.5000
v  17.5000 2.5000 12.5000
v  12.5000 7.5000 -17.5000
v  12.5000 7.5000 -22.5000
v  17.5000 7.5000 -22.5000
v  17.5000 7.5000 -17.5000
v  12.5000 7.5000 22.5000
v  12.5000 7.5000 17.5000
v  17.5000 7.5000 17.5000
v  17.5000 7.5000 22.5000
v  -12.5000 2.5000 -12.5000
v  -12.5000 2.5000 12.5000
v  -17.5000 2.5000 12.5000
v  -17.5000 2.5000 -12.5000
v  -12.5000 7.5000 17.5000
v  -12.5000 7.5000 22.5000
v  -17.5000 7.5000 22.5000
v  -17.5000 7.5000 17.5000
v  -12.5000 7.5000 -22.5000
v  -12.5000 7.5000 -17.5000
v  -17.5000 7.5000 -17.5000
v  -17.5000 7.5000 -22.5000
v  -17.5000 7.5000 12.5000
v  -17.5000 12.5000 7.5000
v  -17.5000 2.5000 27.5000
v  -12.5000 2.5000 27.5000
v  -17.5000 2.5000 -27.5000
v  -12.5000 2.5000 -27.5000
v  17.5000 7.5000 -12.5000
v  17.5000 12.5000 7.5000
v  17.5000 2.5000 -27.5000
v  12.5000 2.5000 -27.5000
v  17.5000 2.5000 27.5000
v  12.5000 2.5000 27.5000
v  17.5000 12.5000 27.5000
v  -17.5000 12.5000 -27.5000
v  17.5000 16.7500 -27.5210
v  17.5000 16.7500 -22.5210
v  12.5000 16.7500 -32.5210
v  -12.5000 16.7500 -32.5210
v  -17.5000 16.7500 -27.5210
v  -17.5000 16.7500 -22.5210
v  -17.5000 16.7500 -17.5210
v  -17.5000 16.7500 7.4790
v  -12.5000 16.7500 12.5000
v  12.5000 16.7500 12.5000
v  17.5000 16.7500 -17.5210
v  17.5000 16.7500 7.4790
# 100 vertices

vn 0.0000 0.0000 -1.0000
vn 0.0000 -0.0000 1.0000
vn -0.0000 -1.0000 -0.0000
vn 0.0000 1.0000 0.0000
vn 0.8165 0.4082 -0.4082
vn -0.8165 0.4082 0.4082
vn -0.8944 0.4472 0.0000
vn 0.8944 0.4472 0.0000
vn 0.8165 0.4082 0.4082
vn -1.0000 0.0000 -0.0000
vn 1.0000 0.0000 -0.0000
vn -0.8165 0.4082 -0.4082
vn 0.0000 1.0000 -0.0000
vn 0.0000 -1.0000 -0.0000
vn 0.0000 -0.7071 0.7071
vn -0.8944 0.0000 -0.4472
vn -0.8944 -0.0000 0.4472
vn 0.0000 -0.7071 -0.7071
vn -0.0000 -0.7071 0.7071
vn 0.8944 -0.0000 0.4472
vn 1.0000 -0.0000 -0.0000
vn 0.8944 0.0000 -0.4472
vn 0.7071 -0.0000 0.7071
vn -0.7071 -0.0000 0.7071
vn 0.7071 0.0000 -0.7071
vn -0.7071 0.0000 -0.7071
vn 0.7071 -0.0035 -0.7071
vn 0.0000 -0.0049 -1.0000
vn -0.7071 -0.0035 -0.7071
vn -1.0000 -0.0000 -0.0000
vn -0.7086 0.0035 0.7056
vn 0.0000 0.9782 0.2079
vn 0.3879 0.9126 0.1293
vn 0.6476 0.7619 0.0000
vn -0.3879 0.9126 0.1293
vn -0.0000 -0.7071 -0.7071
vn 1.0000 0.0000 0.0000
vn -0.0000 -0.8000 -0.6000
vn 1.0000 -0.0000 0.0000
vn -0.0000 -0.8000 0.6000
vn -1.0000 0.0000 0.0000
vn 0.7086 0.0035 0.7056
vn -0.6476 0.7619 0.0000
vn 0.7926 0.6097 0.0000
vn 0.7926 0.6097 -0.0000
vn 0.4785 0.7362 -0.4785
vn -0.4785 0.7362 -0.4785
vn -0.7926 0.6097 -0.0000
vn -0.7926 0.6097 0.0000
vn -0.6228 0.4770 0.6202
vn 0.0000 0.6097 0.7926
vn 0.6228 0.4770 0.6202
vn 0.0000 0.8384 -0.5450
# 53 vertex normals

vt 0.1502 0.5540 0.0000
vt 0.1502 0.5928 0.0000
vt 0.1727 0.5928 0.0000
vt 0.1727 0.5540 0.0000
vt 0.1502 0.6967 0.0000
vt 0.1746 0.6967 0.0000
vt 0.1746 0.7369 0.0000
vt 0.1502 0.7369 0.0000
vt 0.6927 0.1081 0.0000
vt 0.7781 0.1081 0.0000
vt 0.7781 0.0362 0.0000
vt 0.6927 0.0362 0.0000
vt 0.8547 0.7559 0.0000
vt 0.9471 0.7559 0.0000
vt 0.9471 0.8302 0.0000
vt 0.8547 0.8302 0.0000
vt 0.7307 0.7304 0.0000
vt 0.7548 0.7634 0.0000
vt 0.7548 0.7304 0.0000
vt 0.8095 0.8446 0.0000
vt 0.7819 0.8837 0.0000
vt 0.7819 0.8446 0.0000
vt 0.7543 0.8837 0.0000
vt 0.7543 0.8446 0.0000
vt 0.7788 0.7634 0.0000
vt 0.7788 0.7304 0.0000
vt 0.1015 0.7369 0.0000
vt 0.1015 0.6967 0.0000
vt 0.1052 0.5928 0.0000
vt 0.1052 0.5540 0.0000
vt 0.8029 0.7304 0.0000
vt 0.8029 0.7634 0.0000
vt 0.7268 0.8446 0.0000
vt 0.7268 0.8837 0.0000
vt 0.9471 0.8450 0.0000
vt 0.8547 0.8450 0.0000
vt 0.2177 0.5928 0.0000
vt 0.2177 0.5540 0.0000
vt 0.2234 0.7369 0.0000
vt 0.2234 0.6967 0.0000
vt 0.6428 0.5479 0.0000
vt 0.6428 0.6218 0.0000
vt 0.6648 0.6218 0.0000
vt 0.6648 0.5479 0.0000
vt 0.6428 0.6365 0.0000
vt 0.6428 0.6513 0.0000
vt 0.6648 0.6513 0.0000
vt 0.6648 0.6365 0.0000
vt 0.6428 0.5184 0.0000
vt 0.6428 0.5332 0.0000
vt 0.6648 0.5332 0.0000
vt 0.6648 0.5184 0.0000
vt 0.5329 0.6218 0.0000
vt 0.5329 0.5479 0.0000
vt 0.5109 0.5479 0.0000
vt 0.5109 0.6218 0.0000
vt 0.5329 0.5332 0.0000
vt 0.5329 0.5184 0.0000
vt 0.5109 0.5184 0.0000
vt 0.5109 0.5332 0.0000
vt 0.5329 0.6513 0.0000
vt 0.5329 0.6365 0.0000
vt 0.5109 0.6365 0.0000
vt 0.5109 0.6513 0.0000
vt 0.7307 0.6975 0.0000
vt 0.6144 0.7549 0.0000
vt 0.6308 0.7818 0.0000
vt 0.5979 0.7818 0.0000
vt 0.5155 0.7818 0.0000
vt 0.5320 0.7549 0.0000
vt 0.5320 0.7279 0.0000
vt 0.6144 0.7279 0.0000
vt 0.8095 0.8056 0.0000
vt 0.7234 0.5661 0.0000
vt 0.7055 0.5411 0.0000
vt 0.7234 0.5411 0.0000
vt 0.8029 0.6975 0.0000
vt 0.5329 0.5037 0.0000
vt 0.5109 0.5037 0.0000
vt 0.5109 0.6661 0.0000
vt 0.5329 0.6661 0.0000
vt 0.7268 0.8056 0.0000
vt 0.8515 0.9729 0.0000
vt 0.8515 0.9127 0.0000
vt 0.8336 0.9127 0.0000
vt 0.9409 0.9729 0.0000
vt 0.9588 0.9127 0.0000
vt 0.9409 0.9127 0.0000
vt 0.6428 0.6661 0.0000
vt 0.6648 0.6661 0.0000
vt 0.6648 0.5037 0.0000
vt 0.6428 0.5037 0.0000
vt 0.8129 0.5661 0.0000
vt 0.8129 0.5411 0.0000
vt 0.8308 0.5411 0.0000
vt 0.8308 0.5661 0.0000
vt 0.2478 0.6967 0.0000
vt 0.2478 0.7369 0.0000
vt 0.0771 0.7369 0.0000
vt 0.0771 0.6967 0.0000
vt 0.7055 0.5661 0.0000
vt 0.2402 0.5928 0.0000
vt 0.2402 0.5540 0.0000
vt 0.9588 0.9729 0.0000
vt 0.8336 0.9729 0.0000
vt 0.0827 0.5540 0.0000
vt 0.0827 0.5928 0.0000
vt 0.6758 0.5184 0.0000
vt 0.6758 0.5332 0.0000
vt 0.6758 0.6513 0.0000
vt 0.6758 0.6365 0.0000
vt 0.4999 0.6513 0.0000
vt 0.4999 0.6365 0.0000
vt 0.4999 0.5184 0.0000
vt 0.4999 0.5332 0.0000
vt 0.8605 0.4485 0.0000
vt 0.8488 0.4485 0.0000
vt 0.8488 0.4681 0.0000
vt 0.8604 0.4681 0.0000
vt 0.9759 0.4370 0.0000
vt 0.9501 0.4370 0.0000
vt 0.9501 0.4856 0.0000
vt 0.9759 0.4856 0.0000
vt 0.8987 0.4370 0.0000
vt 0.8729 0.4370 0.0000
vt 0.8214 0.4370 0.0000
vt 0.8214 0.4856 0.0000
vt 0.7957 0.4370 0.0000
vt 0.7957 0.4856 0.0000
vt 0.8722 0.4485 0.0000
vt 0.8721 0.4681 0.0000
vt 0.5978 0.8047 0.0000
vt 0.5154 0.8047 0.0000
vt 0.7055 0.5911 0.0000
vt 0.7234 0.6123 0.0000
vt 0.7055 0.6123 0.0000
vt 0.7234 0.5911 0.0000
vt 0.7592 0.5911 0.0000
vt 0.7771 0.5911 0.0000
vt 0.8129 0.5911 0.0000
vt 0.8129 0.6123 0.0000
vt 0.8308 0.5911 0.0000
vt 0.7907 0.6186 0.0000
vt 0.7582 0.6186 0.0000
vt 0.7744 0.6476 0.0000
vt 0.7771 0.5661 0.0000
vt 0.7592 0.5661 0.0000
vt 0.8873 0.9729 0.0000
vt 0.9052 0.9729 0.0000
vt 0.5530 0.0619 0.0000
vt 0.5075 0.0619 0.0000
vt 0.5226 0.0978 0.0000
vt 0.5378 0.0978 0.0000
vt 0.6289 0.0619 0.0000
vt 0.6440 0.0978 0.0000
vt 0.6592 0.0978 0.0000
vt 0.6744 0.0619 0.0000
vt 0.0000 0.0000 0.0000
vt 0.8851 0.9498 0.0000
vt 0.9175 0.9498 0.0000
vt 0.9175 0.9320 0.0000
vt 0.8851 0.9320 0.0000
vt 0.6592 0.0350 0.0000
vt 0.5226 0.0350 0.0000
vt 0.7234 0.5224 0.0000
vt 0.8129 0.5224 0.0000
vt 0.8308 0.6123 0.0000
vt 0.5154 0.8398 0.0000
vt 0.5979 0.8398 0.0000
vt 0.9656 0.8302 0.0000
vt 0.9656 0.8450 0.0000
vt 0.9821 0.6105 0.0000
vt 0.9821 0.6509 0.0000
vt 0.9641 0.6105 0.0000
vt 0.9641 0.6914 0.0000
vt 0.8739 0.6914 0.0000
vt 0.8559 0.6509 0.0000
vt 0.8739 0.6105 0.0000
vt 0.8559 0.6105 0.0000
vt 0.8363 0.8450 0.0000
vt 0.8363 0.8302 0.0000
vt 0.7234 0.6448 0.0000
vt 0.1045 0.8289 0.0000
vt 0.1955 0.8289 0.0000
vt 0.1955 0.8677 0.0000
vt 0.1045 0.8677 0.0000
vt 0.8129 0.6448 0.0000
# 187 texture coords

g Box002
usemtl Material__2
s 2
f 1/1/1 2/2/1 3/3/1 4/4/1 
s 4
f 5/5/2 6/6/2 7/7/2 8/8/2 
s 8
f 9/9/3 10/10/3 11/11/3 12/12/3 
s off
f 13/13/4 14/14/4 15/15/4 16/16/4 
f 17/17/5 18/18/5 19/19/5 
f 20/20/6 21/21/6 22/22/6 
f 22/22/7 21/21/7 23/23/7 24/24/7 
f 25/21/8 26/22/8 27/24/8 28/23/8 
f 19/19/8 18/18/8 29/25/8 30/26/8 
f 31/18/7 32/19/7 33/26/7 34/25/7 
f 35/27/2 36/28/2 5/5/2 8/8/2 
f 37/29/1 2/2/1 1/1/1 38/30/1 
f 30/26/9 29/25/9 39/31/9 
f 34/25/10 40/31/10 41/32/10 
f 28/23/11 42/33/11 43/34/11 
f 24/24/12 23/23/12 44/33/12 
f 45/35/13 46/36/13 16/16/13 15/15/13 
f 47/37/1 48/38/1 4/4/1 3/3/1 
f 49/39/2 7/7/2 6/6/2 50/40/2 
f 51/41/14 52/42/14 53/43/14 54/44/14 
f 55/45/14 56/46/14 57/47/14 58/48/14 
f 59/49/14 60/50/14 61/51/14 62/52/14 
f 63/53/14 64/54/14 65/55/14 66/56/14 
f 67/57/14 68/58/14 69/59/14 70/60/14 
f 71/61/3 72/62/3 73/63/3 74/64/3 
f 67/57/15 70/60/15 65/55/15 64/54/15 
f 32/19/16 75/17/16 65/65/16 
s 64
f 75/66/10 31/67/10 76/68/10 21/69/10 20/70/10 66/71/10 65/72/10 
s off
f 20/20/17 22/22/17 66/73/17 
f 73/63/18 72/62/18 63/53/18 66/56/18 
f 36/74/15 77/75/15 78/76/15 
f 40/31/17 33/26/17 77/77/17 
f 69/59/18 68/58/18 78/78/18 77/79/18 
f 71/61/19 74/64/19 79/80/19 80/81/19 
f 24/24/16 44/33/16 79/82/16 
f 38/83/18 80/84/18 79/85/18 
f 55/45/18 58/48/18 53/43/18 52/42/18 
f 26/22/20 81/20/20 53/73/20 
s 16
f 81/70/21 25/69/21 82/68/21 18/67/11 17/66/21 54/72/11 53/71/11 
s off
f 17/17/22 19/19/22 54/65/22 
f 61/51/15 60/50/15 51/41/15 54/44/15 
f 48/86/18 83/87/18 84/88/18 
f 42/33/22 27/24/22 83/82/22 
f 57/47/15 56/46/15 84/89/15 83/90/15 
f 59/49/18 62/52/18 85/91/18 86/92/18 
f 30/26/20 39/31/20 85/77/20 
f 50/93/15 86/94/15 85/95/15 
f 85/95/23 39/96/23 50/93/23 
f 39/97/23 87/98/23 49/39/23 50/40/23 
f 41/99/24 40/100/24 36/28/24 35/27/24 
f 40/101/24 77/75/24 36/74/24 
f 43/102/25 42/103/25 48/38/25 47/37/25 
f 42/104/25 83/87/25 48/86/25 
f 79/85/26 44/105/26 38/83/26 
f 44/106/26 88/107/26 37/29/26 38/30/26 
f 29/25/11 87/32/11 39/31/11 
f 85/91/18 62/52/18 30/108/18 
f 62/52/14 61/51/14 19/109/14 30/108/14 
f 61/51/15 54/44/15 19/109/15 
f 81/20/9 26/22/9 25/21/9 
f 28/23/5 27/24/5 42/33/5 
f 58/48/3 57/47/3 27/110/3 26/111/3 
f 57/47/19 83/90/19 27/110/19 
f 53/43/18 58/48/18 26/111/18 
f 75/17/12 32/19/12 31/18/12 
f 34/25/6 33/26/6 40/31/6 
f 23/23/10 88/34/10 44/33/10 
f 79/80/15 74/64/15 24/112/15 
f 74/64/14 73/63/14 22/113/14 24/112/14 
f 73/63/18 66/56/18 22/113/18 
f 70/60/14 69/59/14 33/114/14 32/115/14 
f 69/59/18 77/79/18 33/114/18 
f 65/55/15 70/60/15 32/115/15 
f 28/116/21 43/117/21 89/118/21 90/119/21 
f 43/120/27 47/121/27 91/122/27 89/123/27 
f 47/121/28 3/124/28 2/125/28 37/126/28 92/127/28 91/122/28 
f 37/126/29 88/128/29 93/129/29 92/127/29 
f 88/117/30 23/116/30 94/119/30 93/118/30 
f 23/116/30 21/130/30 95/131/30 94/119/30 
f 21/69/30 76/68/30 96/132/30 95/133/30 
f 76/134/31 97/135/31 96/136/31 
f 35/137/32 8/138/32 7/139/32 49/140/32 98/141/32 97/135/32 
f 49/140/33 87/142/33 29/142/33 18/142/33 98/141/33 
f 18/143/34 82/144/34 98/145/34 
f 82/68/21 25/69/21 99/133/21 100/132/21 
f 25/130/21 28/116/21 90/119/21 99/131/21 
f 31/134/35 34/134/35 41/134/35 35/137/35 97/135/35 
f 50/93/19 6/146/19 5/147/19 36/74/19 78/76/19 86/94/19 
f 84/88/36 80/84/36 38/83/36 1/148/36 4/149/36 48/86/36 
f 52/150/37 84/151/37 56/152/37 55/153/37 
f 51/154/11 60/155/11 59/156/11 86/157/11 
f 68/158/11 67/158/11 68/158/11 78/158/11 
f 72/153/10 71/152/10 80/151/10 63/150/10 
f 68/156/10 67/155/10 64/154/10 78/157/10 
f 80/159/38 84/160/38 10/161/38 9/162/38 
f 84/151/39 52/150/39 51/154/39 86/157/39 11/163/39 10/164/39 
f 86/94/40 78/76/40 12/165/40 11/166/40 
f 78/157/41 64/154/41 63/150/41 80/151/41 9/164/41 12/163/41 
f 82/142/42 100/167/42 98/141/42 
f 76/144/43 31/143/43 97/145/43 
f 100/132/44 99/133/44 15/168/44 14/169/44 
f 99/170/44 90/171/44 45/35/44 15/15/44 
f 90/172/45 89/173/45 45/174/45 
f 89/173/46 91/175/46 45/174/46 
f 92/176/47 93/177/47 46/178/47 
f 93/177/48 94/179/48 46/178/48 
f 94/180/49 95/181/49 16/16/49 46/36/49 
f 95/133/49 96/132/49 13/169/49 16/168/49 
f 96/136/50 97/135/50 13/182/50 
f 97/183/51 98/184/51 14/185/51 13/186/51 
f 98/141/52 100/167/52 14/187/52 
f 91/175/53 92/176/53 46/178/53 45/174/53 
# 66 polygons - 46 triangles

