# 3ds Max Wavefront OBJ Exporter v0.97b - (c)2007 guruware
# ì¬‚µ‚½ƒtƒ@ƒCƒ‹ : 28.06.2019 13:19:40

mtllib Tire 2.mtl

#
# object Sphere001
#

v  13.7500 -0.0000 15.0000
v  13.5665 1.1588 15.0000
v  13.5665 1.1021 15.3581
v  13.5665 0.9375 15.6811
v  13.5665 0.6811 15.9375
v  13.5665 0.3581 16.1021
v  13.5665 -0.0000 16.1588
v  13.5665 -0.3581 16.1021
v  13.5665 -0.6811 15.9375
v  13.5665 -0.9375 15.6811
v  13.5665 -1.1021 15.3581
v  13.5665 -1.1588 15.0000
v  13.5665 -1.1021 14.6419
v  13.5665 -0.9375 14.3189
v  13.5665 -0.6811 14.0625
v  13.5665 -0.3581 13.8979
v  13.5665 0.0000 13.8412
v  13.5665 0.3581 13.8979
v  13.5665 0.6811 14.0625
v  13.5665 0.9375 14.3189
v  13.5665 1.1021 14.6419
v  13.0338 2.2042 15.0000
v  13.0338 2.0963 15.6811
v  13.0338 1.7832 16.2956
v  13.0338 1.2956 16.7832
v  13.0338 0.6811 17.0963
v  13.0338 -0.0000 17.2042
v  13.0338 -0.6811 17.0963
v  13.0338 -1.2956 16.7832
v  13.0338 -1.7832 16.2956
v  13.0338 -2.0963 15.6811
v  13.0338 -2.2042 15.0000
v  13.0338 -2.0963 14.3189
v  13.0338 -1.7832 13.7044
v  13.0338 -1.2956 13.2168
v  13.0338 -0.6811 12.9037
v  13.0338 0.0000 12.7958
v  13.0338 0.6811 12.9037
v  13.0338 1.2956 13.2168
v  13.0338 1.7832 13.7044
v  13.0338 2.0963 14.3189
v  12.2042 3.0338 15.0000
v  12.2042 2.8853 15.9375
v  12.2042 2.4544 16.7832
v  12.2042 1.7832 17.4544
v  12.2042 0.9375 17.8853
v  12.2042 -0.0000 18.0338
v  12.2042 -0.9375 17.8853
v  12.2042 -1.7832 17.4544
v  12.2042 -2.4544 16.7832
v  12.2042 -2.8853 15.9375
v  12.2042 -3.0338 15.0000
v  12.2042 -2.8853 14.0625
v  12.2042 -2.4544 13.2168
v  12.2042 -1.7832 12.5456
v  12.2042 -0.9375 12.1147
v  12.2042 0.0000 11.9662
v  12.2042 0.9375 12.1147
v  12.2042 1.7832 12.5456
v  12.2042 2.4544 13.2168
v  12.2042 2.8853 14.0625
v  11.1588 3.5665 15.0000
v  11.1588 3.3919 16.1021
v  11.1588 2.8853 17.0963
v  11.1588 2.0963 17.8853
v  11.1588 1.1021 18.3919
v  11.1588 -0.0000 18.5665
v  11.1588 -1.1021 18.3919
v  11.1588 -2.0963 17.8853
v  11.1588 -2.8853 17.0963
v  11.1588 -3.3919 16.1021
v  11.1588 -3.5665 15.0000
v  11.1588 -3.3919 13.8979
v  11.1588 -2.8853 12.9037
v  11.1588 -2.0963 12.1147
v  11.1588 -1.1021 11.6081
v  11.1588 0.0000 11.4335
v  11.1588 1.1021 11.6081
v  11.1588 2.0963 12.1147
v  11.1588 2.8853 12.9037
v  11.1588 3.3919 13.8979
v  10.0000 3.7500 15.0000
v  10.0000 3.5665 16.1588
v  10.0000 3.0338 17.2042
v  10.0000 2.2042 18.0338
v  10.0000 1.1588 18.5665
v  10.0000 -0.0000 18.7500
v  10.0000 -1.1588 18.5665
v  10.0000 -2.2042 18.0338
v  10.0000 -3.0338 17.2042
v  10.0000 -3.5665 16.1588
v  10.0000 -3.7500 15.0000
v  10.0000 -3.5665 13.8412
v  10.0000 -3.0338 12.7958
v  10.0000 -2.2042 11.9662
v  10.0000 -1.1588 11.4335
v  10.0000 0.0000 11.2500
v  10.0000 1.1588 11.4335
v  10.0000 2.2042 11.9662
v  10.0000 3.0338 12.7958
v  10.0000 3.5665 13.8412
v  8.8412 3.5665 15.0000
v  8.8412 3.3919 16.1021
v  8.8412 2.8853 17.0963
v  8.8412 2.0963 17.8853
v  8.8412 1.1021 18.3919
v  8.8412 -0.0000 18.5665
v  8.8412 -1.1021 18.3919
v  8.8412 -2.0963 17.8853
v  8.8412 -2.8853 17.0963
v  8.8412 -3.3919 16.1021
v  8.8412 -3.5665 15.0000
v  8.8412 -3.3919 13.8979
v  8.8412 -2.8853 12.9037
v  8.8412 -2.0963 12.1147
v  8.8412 -1.1021 11.6081
v  8.8412 0.0000 11.4335
v  8.8412 1.1021 11.6081
v  8.8412 2.0963 12.1147
v  8.8412 2.8853 12.9037
v  8.8412 3.3919 13.8979
v  7.7958 3.0338 15.0000
v  7.7958 2.8853 15.9375
v  7.7958 2.4544 16.7832
v  7.7958 1.7832 17.4544
v  7.7958 0.9375 17.8853
v  7.7958 -0.0000 18.0338
v  7.7958 -0.9375 17.8853
v  7.7958 -1.7832 17.4544
v  7.7958 -2.4544 16.7832
v  7.7958 -2.8853 15.9375
v  7.7958 -3.0338 15.0000
v  7.7958 -2.8853 14.0625
v  7.7958 -2.4544 13.2168
v  7.7958 -1.7832 12.5456
v  7.7958 -0.9375 12.1147
v  7.7958 0.0000 11.9662
v  7.7958 0.9375 12.1147
v  7.7958 1.7832 12.5456
v  7.7958 2.4544 13.2168
v  7.7958 2.8853 14.0625
v  6.9662 2.2042 15.0000
v  6.9662 2.0963 15.6811
v  6.9662 1.7832 16.2956
v  6.9662 1.2956 16.7832
v  6.9662 0.6811 17.0963
v  6.9662 -0.0000 17.2042
v  6.9662 -0.6811 17.0963
v  6.9662 -1.2956 16.7832
v  6.9662 -1.7832 16.2956
v  6.9662 -2.0963 15.6811
v  6.9662 -2.2042 15.0000
v  6.9662 -2.0963 14.3189
v  6.9662 -1.7832 13.7044
v  6.9662 -1.2956 13.2168
v  6.9662 -0.6811 12.9037
v  6.9662 0.0000 12.7958
v  6.9662 0.6811 12.9037
v  6.9662 1.2956 13.2168
v  6.9662 1.7832 13.7044
v  6.9662 2.0963 14.3189
v  6.4335 1.1588 15.0000
v  6.4335 1.1021 15.3581
v  6.4335 0.9375 15.6811
v  6.4335 0.6811 15.9375
v  6.4335 0.3581 16.1021
v  6.4335 -0.0000 16.1588
v  6.4335 -0.3581 16.1021
v  6.4335 -0.6811 15.9375
v  6.4335 -0.9375 15.6811
v  6.4335 -1.1021 15.3581
v  6.4335 -1.1588 15.0000
v  6.4335 -1.1021 14.6419
v  6.4335 -0.9375 14.3189
v  6.4335 -0.6811 14.0625
v  6.4335 -0.3581 13.8979
v  6.4335 0.0000 13.8412
v  6.4335 0.3581 13.8979
v  6.4335 0.6811 14.0625
v  6.4335 0.9375 14.3189
v  6.4335 1.1021 14.6419
v  6.2500 0.0000 15.0000
# 182 vertices

vn 0.9874 0.1564 0.0248
vn 0.9874 0.1411 0.0719
vn 0.9874 0.1120 0.1120
vn 0.9874 0.0719 0.1411
vn 0.9874 0.0248 0.1564
vn 0.9874 -0.0248 0.1564
vn 0.9874 -0.0719 0.1411
vn 0.9874 -0.1120 0.1120
vn 0.9874 -0.1411 0.0719
vn 0.9874 -0.1564 0.0248
vn 0.9874 -0.1564 -0.0248
vn 0.9874 -0.1411 -0.0719
vn 0.9874 -0.1120 -0.1120
vn 0.9874 -0.0719 -0.1411
vn 0.9874 -0.0248 -0.1564
vn 0.9874 0.0248 -0.1564
vn 0.9874 0.0719 -0.1411
vn 0.9874 0.1120 -0.1120
vn 0.9874 0.1411 -0.0719
vn 0.9874 0.1564 -0.0248
vn 0.8887 0.4528 0.0717
vn 0.8887 0.4085 0.2081
vn 0.8887 0.3242 0.3242
vn 0.8887 0.2081 0.4085
vn 0.8887 0.0717 0.4528
vn 0.8887 -0.0717 0.4528
vn 0.8887 -0.2081 0.4085
vn 0.8887 -0.3242 0.3242
vn 0.8887 -0.4085 0.2081
vn 0.8887 -0.4528 0.0717
vn 0.8887 -0.4528 -0.0717
vn 0.8887 -0.4085 -0.2081
vn 0.8887 -0.3242 -0.3242
vn 0.8887 -0.2081 -0.4085
vn 0.8887 -0.0717 -0.4528
vn 0.8887 0.0717 -0.4528
vn 0.8887 0.2081 -0.4085
vn 0.8887 0.3242 -0.3242
vn 0.8887 0.4085 -0.2081
vn 0.8887 0.4528 -0.0717
vn 0.7071 0.7071 0.0000
vn 0.5805 0.8143 0.0000
vn 0.5805 0.7744 0.2516
vn 0.7071 0.6725 0.2185
vn 0.5805 0.6588 0.4786
vn 0.7071 0.5721 0.4156
vn 0.5805 0.4786 0.6588
vn 0.7071 0.4156 0.5721
vn 0.5805 0.2516 0.7744
vn 0.7071 0.2185 0.6725
vn 0.5805 -0.0000 0.8143
vn 0.7071 -0.0000 0.7071
vn 0.5805 -0.2516 0.7744
vn 0.7071 -0.2185 0.6725
vn 0.5805 -0.4786 0.6588
vn 0.7071 -0.4156 0.5721
vn 0.5805 -0.6588 0.4786
vn 0.7071 -0.5721 0.4156
vn 0.5805 -0.7744 0.2516
vn 0.7071 -0.6725 0.2185
vn 0.5805 -0.8143 -0.0000
vn 0.7071 -0.7071 -0.0000
vn 0.5805 -0.7744 -0.2516
vn 0.7071 -0.6725 -0.2185
vn 0.5805 -0.6588 -0.4786
vn 0.7071 -0.5721 -0.4156
vn 0.5805 -0.4786 -0.6588
vn 0.7071 -0.4156 -0.5721
vn 0.5805 -0.2516 -0.7744
vn 0.7071 -0.2185 -0.6725
vn 0.5805 0.0000 -0.8143
vn 0.7071 0.0000 -0.7071
vn 0.5805 0.2516 -0.7744
vn 0.7071 0.2185 -0.6725
vn 0.5805 0.4786 -0.6588
vn 0.7071 0.4156 -0.5721
vn 0.5805 0.6588 -0.4786
vn 0.7071 0.5721 -0.4156
vn 0.5805 0.7744 -0.2516
vn 0.7071 0.6725 -0.2185
vn 0.3045 0.9525 0.0000
vn 0.3045 0.9059 0.2943
vn 0.3045 0.7706 0.5599
vn 0.3045 0.5599 0.7706
vn 0.3045 0.2943 0.9059
vn 0.3045 -0.0000 0.9525
vn 0.3045 -0.2943 0.9059
vn 0.3045 -0.5599 0.7706
vn 0.3045 -0.7706 0.5599
vn 0.3045 -0.9059 0.2943
vn 0.3045 -0.9525 -0.0000
vn 0.3045 -0.9059 -0.2943
vn 0.3045 -0.7706 -0.5599
vn 0.3045 -0.5599 -0.7706
vn 0.3045 -0.2943 -0.9059
vn 0.3045 0.0000 -0.9525
vn 0.3045 0.2943 -0.9059
vn 0.3045 0.5599 -0.7706
vn 0.3045 0.7706 -0.5599
vn 0.3045 0.9059 -0.2943
vn -0.0000 1.0000 0.0000
vn -0.0000 0.9511 0.3090
vn -0.0000 0.8090 0.5878
vn 0.0000 0.5878 0.8090
vn -0.0000 0.3090 0.9511
vn -0.0000 -0.0000 1.0000
vn -0.0000 -0.3090 0.9511
vn -0.0000 -0.5878 0.8090
vn -0.0000 -0.8090 0.5878
vn -0.0000 -0.9511 0.3090
vn -0.0000 -1.0000 -0.0000
vn -0.0000 -0.9511 -0.3090
vn -0.0000 -0.8090 -0.5878
vn -0.0000 -0.5878 -0.8090
vn -0.0000 -0.3090 -0.9511
vn -0.0000 0.0000 -1.0000
vn -0.0000 0.3090 -0.9511
vn -0.0000 0.5878 -0.8090
vn -0.0000 0.8090 -0.5878
vn -0.0000 0.9511 -0.3090
vn -0.3045 0.9525 0.0000
vn -0.3045 0.9059 0.2943
vn -0.3045 0.7706 0.5599
vn -0.3045 0.5599 0.7706
vn -0.3045 0.2943 0.9059
vn -0.3045 -0.0000 0.9525
vn -0.3045 -0.2943 0.9059
vn -0.3045 -0.5599 0.7706
vn -0.3045 -0.7706 0.5599
vn -0.3045 -0.9059 0.2943
vn -0.3045 -0.9525 -0.0000
vn -0.3045 -0.9059 -0.2943
vn -0.3045 -0.7706 -0.5599
vn -0.3045 -0.5599 -0.7706
vn -0.3045 -0.2943 -0.9059
vn -0.3045 0.0000 -0.9525
vn -0.3045 0.2943 -0.9059
vn -0.3045 0.5599 -0.7706
vn -0.3045 0.7706 -0.5599
vn -0.3045 0.9059 -0.2943
vn -0.5805 0.8143 0.0000
vn -0.5805 0.7744 0.2516
vn -0.5805 0.6588 0.4786
vn -0.5805 0.4786 0.6588
vn -0.5805 0.2516 0.7744
vn -0.5805 -0.0000 0.8143
vn -0.5805 -0.2516 0.7744
vn -0.5805 -0.4786 0.6588
vn -0.5805 -0.6588 0.4786
vn -0.5805 -0.7744 0.2516
vn -0.5805 -0.8143 -0.0000
vn -0.5805 -0.7744 -0.2516
vn -0.5805 -0.6588 -0.4786
vn -0.5805 -0.4786 -0.6588
vn -0.5805 -0.2516 -0.7744
vn -0.5805 0.0000 -0.8143
vn -0.5805 0.2516 -0.7744
vn -0.5805 0.4786 -0.6588
vn -0.5805 0.6588 -0.4786
vn -0.5805 0.7744 -0.2516
vn -0.7071 0.7071 0.0000
vn -0.7071 0.6725 0.2185
vn -0.7071 0.5721 0.4156
vn -0.7071 0.4156 0.5721
vn -0.7071 0.2185 0.6725
vn -0.7071 -0.0000 0.7071
vn -0.7071 -0.2185 0.6725
vn -0.7071 -0.4156 0.5721
vn -0.7071 -0.5721 0.4156
vn -0.7071 -0.6725 0.2185
vn -0.7071 -0.7071 -0.0000
vn -0.7071 -0.6725 -0.2185
vn -0.7071 -0.5721 -0.4156
vn -0.7071 -0.4156 -0.5721
vn -0.7071 -0.2185 -0.6725
vn -0.7071 0.0000 -0.7071
vn -0.7071 0.2185 -0.6725
vn -0.7071 0.4156 -0.5721
vn -0.7071 0.5721 -0.4156
vn -0.7071 0.6725 -0.2185
vn -0.8887 0.4528 0.0717
vn -0.8887 0.4085 0.2081
vn -0.8887 0.3242 0.3242
vn -0.8887 0.2081 0.4085
vn -0.8887 0.0717 0.4528
vn -0.8887 -0.0717 0.4528
vn -0.8887 -0.2081 0.4085
vn -0.8887 -0.3242 0.3242
vn -0.8887 -0.4085 0.2081
vn -0.8887 -0.4528 0.0717
vn -0.8887 -0.4528 -0.0717
vn -0.8887 -0.4085 -0.2081
vn -0.8887 -0.3242 -0.3242
vn -0.8887 -0.2081 -0.4085
vn -0.8887 -0.0717 -0.4528
vn -0.8887 0.0717 -0.4528
vn -0.8887 0.2081 -0.4085
vn -0.8887 0.3242 -0.3242
vn -0.8887 0.4085 -0.2081
vn -0.8887 0.4528 -0.0717
vn -0.9874 0.1564 0.0248
vn -0.9874 0.1411 0.0719
vn -0.9874 0.1120 0.1120
vn -0.9874 0.0719 0.1411
vn -0.9874 0.0248 0.1564
vn -0.9874 -0.0248 0.1564
vn -0.9874 -0.0719 0.1411
vn -0.9874 -0.1120 0.1120
vn -0.9874 -0.1411 0.0719
vn -0.9874 -0.1564 0.0248
vn -0.9874 -0.1564 -0.0248
vn -0.9874 -0.1411 -0.0719
vn -0.9874 -0.1120 -0.1120
vn -0.9874 -0.0719 -0.1411
vn -0.9874 -0.0248 -0.1564
vn -0.9874 0.0248 -0.1564
vn -0.9874 0.0719 -0.1411
vn -0.9874 0.1120 -0.1120
vn -0.9874 0.1411 -0.0719
vn -0.9874 0.1564 -0.0248
# 220 vertex normals

vt 0.1899 0.8305 0.0000
vt 0.1899 0.8934 0.0000
vt 0.2097 0.8904 0.0000
vt 0.2275 0.8814 0.0000
vt 0.2417 0.8675 0.0000
vt 0.2508 0.8500 0.0000
vt 0.2540 0.8305 0.0000
vt 0.2508 0.8111 0.0000
vt 0.2417 0.7935 0.0000
vt 0.2275 0.7796 0.0000
vt 0.2097 0.7707 0.0000
vt 0.1899 0.7676 0.0000
vt 0.1701 0.7707 0.0000
vt 0.1522 0.7796 0.0000
vt 0.1380 0.7935 0.0000
vt 0.1289 0.8111 0.0000
vt 0.1257 0.8305 0.0000
vt 0.1289 0.8500 0.0000
vt 0.1380 0.8675 0.0000
vt 0.1522 0.8814 0.0000
vt 0.1701 0.8904 0.0000
vt 0.1899 0.9502 0.0000
vt 0.2275 0.9443 0.0000
vt 0.2615 0.9273 0.0000
vt 0.2885 0.9009 0.0000
vt 0.3058 0.8675 0.0000
vt 0.3118 0.8305 0.0000
vt 0.3058 0.7935 0.0000
vt 0.2885 0.7602 0.0000
vt 0.2615 0.7337 0.0000
vt 0.2275 0.7167 0.0000
vt 0.1899 0.7108 0.0000
vt 0.1522 0.7167 0.0000
vt 0.1182 0.7337 0.0000
vt 0.0912 0.7602 0.0000
vt 0.0739 0.7935 0.0000
vt 0.0679 0.8305 0.0000
vt 0.0739 0.8675 0.0000
vt 0.0912 0.9009 0.0000
vt 0.1182 0.9273 0.0000
vt 0.1522 0.9443 0.0000
vt 0.8445 0.2734 0.0000
vt 0.8445 0.2954 0.0000
vt 0.8712 0.2915 0.0000
vt 0.8639 0.2705 0.0000
vt 0.8953 0.2800 0.0000
vt 0.8814 0.2622 0.0000
vt 0.9144 0.2622 0.0000
vt 0.8953 0.2492 0.0000
vt 0.9267 0.2397 0.0000
vt 0.9042 0.2329 0.0000
vt 0.9309 0.2148 0.0000
vt 0.9073 0.2148 0.0000
vt 0.9267 0.1899 0.0000
vt 0.9042 0.1967 0.0000
vt 0.9144 0.1674 0.0000
vt 0.8953 0.1803 0.0000
vt 0.8953 0.1496 0.0000
vt 0.8814 0.1674 0.0000
vt 0.8712 0.1381 0.0000
vt 0.8639 0.1591 0.0000
vt 0.8445 0.1342 0.0000
vt 0.8445 0.1562 0.0000
vt 0.8178 0.1381 0.0000
vt 0.8251 0.1591 0.0000
vt 0.7938 0.1496 0.0000
vt 0.8076 0.1674 0.0000
vt 0.7746 0.1674 0.0000
vt 0.7938 0.1803 0.0000
vt 0.7624 0.1899 0.0000
vt 0.7848 0.1967 0.0000
vt 0.7581 0.2148 0.0000
vt 0.7818 0.2148 0.0000
vt 0.7624 0.2397 0.0000
vt 0.7848 0.2329 0.0000
vt 0.7746 0.2622 0.0000
vt 0.7938 0.2492 0.0000
vt 0.7938 0.2800 0.0000
vt 0.8076 0.2622 0.0000
vt 0.8178 0.2915 0.0000
vt 0.8251 0.2705 0.0000
vt 0.8445 0.3096 0.0000
vt 0.8759 0.3049 0.0000
vt 0.9042 0.2915 0.0000
vt 0.9267 0.2705 0.0000
vt 0.9411 0.2441 0.0000
vt 0.9461 0.2148 0.0000
vt 0.9411 0.1855 0.0000
vt 0.9267 0.1591 0.0000
vt 0.9042 0.1381 0.0000
vt 0.8759 0.1246 0.0000
vt 0.8445 0.1200 0.0000
vt 0.8132 0.1246 0.0000
vt 0.7848 0.1381 0.0000
vt 0.7624 0.1591 0.0000
vt 0.7479 0.1855 0.0000
vt 0.7430 0.2148 0.0000
vt 0.7479 0.2441 0.0000
vt 0.7624 0.2705 0.0000
vt 0.7848 0.2915 0.0000
vt 0.8132 0.3049 0.0000
vt 0.6559 0.2811 0.0000
vt 0.5770 0.2846 0.0000
vt 0.5770 0.2811 0.0000
vt 0.6559 0.2778 0.0000
vt 0.5770 0.2709 0.0000
vt 0.6559 0.2680 0.0000
vt 0.5770 0.2549 0.0000
vt 0.6559 0.2528 0.0000
vt 0.5770 0.2348 0.0000
vt 0.6559 0.2337 0.0000
vt 0.5770 0.2125 0.0000
vt 0.6559 0.2125 0.0000
vt 0.5770 0.1902 0.0000
vt 0.6559 0.1913 0.0000
vt 0.5770 0.1701 0.0000
vt 0.6559 0.1722 0.0000
vt 0.5770 0.1541 0.0000
vt 0.6559 0.1570 0.0000
vt 0.5770 0.1439 0.0000
vt 0.6559 0.1472 0.0000
vt 0.5770 0.1404 0.0000
vt 0.6559 0.1439 0.0000
vt 0.4980 0.2811 0.0000
vt 0.4980 0.2778 0.0000
vt 0.4980 0.2680 0.0000
vt 0.4980 0.2528 0.0000
vt 0.4980 0.2337 0.0000
vt 0.4980 0.2125 0.0000
vt 0.4980 0.1913 0.0000
vt 0.4980 0.1722 0.0000
vt 0.4980 0.1570 0.0000
vt 0.4980 0.1472 0.0000
vt 0.4980 0.1439 0.0000
# 134 texture coords

g Sphere001
usemtl Material__2
s off
f 1/1/1 2/2/1 3/3/1 
f 1/1/2 3/3/2 4/4/2 
f 1/1/3 4/4/3 5/5/3 
f 1/1/4 5/5/4 6/6/4 
f 1/1/5 6/6/5 7/7/5 
f 1/1/6 7/7/6 8/8/6 
f 1/1/7 8/8/7 9/9/7 
f 1/1/8 9/9/8 10/10/8 
f 1/1/9 10/10/9 11/11/9 
f 1/1/10 11/11/10 12/12/10 
f 1/1/11 12/12/11 13/13/11 
f 1/1/12 13/13/12 14/14/12 
f 1/1/13 14/14/13 15/15/13 
f 1/1/14 15/15/14 16/16/14 
f 1/1/15 16/16/15 17/17/15 
f 1/1/16 17/17/16 18/18/16 
f 1/1/17 18/18/17 19/19/17 
f 1/1/18 19/19/18 20/20/18 
f 1/1/19 20/20/19 21/21/19 
f 1/1/20 21/21/20 2/2/20 
f 2/2/21 22/22/21 23/23/21 3/3/21 
f 3/3/22 23/23/22 24/24/22 4/4/22 
f 4/4/23 24/24/23 25/25/23 5/5/23 
f 5/5/24 25/25/24 26/26/24 6/6/24 
f 6/6/25 26/26/25 27/27/25 7/7/25 
f 7/7/26 27/27/26 28/28/26 8/8/26 
f 8/8/27 28/28/27 29/29/27 9/9/27 
f 9/9/28 29/29/28 30/30/28 10/10/28 
f 10/10/29 30/30/29 31/31/29 11/11/29 
f 11/11/30 31/31/30 32/32/30 12/12/30 
f 12/12/31 32/32/31 33/33/31 13/13/31 
f 13/13/32 33/33/32 34/34/32 14/14/32 
f 14/14/33 34/34/33 35/35/33 15/15/33 
f 15/15/34 35/35/34 36/36/34 16/16/34 
f 16/16/35 36/36/35 37/37/35 17/17/35 
f 17/17/36 37/37/36 38/38/36 18/18/36 
f 18/18/37 38/38/37 39/39/37 19/19/37 
f 19/19/38 39/39/38 40/40/38 20/20/38 
f 20/20/39 40/40/39 41/41/39 21/21/39 
f 21/21/40 41/41/40 22/22/40 2/2/40 
s 57362
f 22/42/41 42/43/42 43/44/43 23/45/44 
s 69649
f 23/45/44 43/44/43 44/46/45 24/47/46 
s 24579
f 24/47/46 44/46/45 45/48/47 25/49/48 
s 32810
f 25/49/48 45/48/47 46/50/49 26/51/50 
s 8289
f 26/51/50 46/50/49 47/52/51 27/53/52 
s 16466
f 27/53/52 47/52/51 48/54/53 28/55/54 
s 73776
f 28/55/54 48/54/53 49/56/55 29/57/56 
s 20513
f 29/57/56 49/56/55 50/58/57 30/59/58 
s 40963
f 30/59/58 50/58/57 51/60/59 31/61/60 
s 20514
f 31/61/60 51/60/59 52/62/61 32/63/62 
s 41056
f 32/63/62 52/62/61 53/64/63 33/65/64 
s 20545
f 33/65/64 53/64/63 54/66/65 34/67/66 
s 40963
f 34/67/66 54/66/65 55/68/67 35/69/68 
s 20546
f 35/69/68 55/68/67 56/70/69 36/71/70 
s 41040
f 36/71/70 56/70/69 57/72/71 37/73/72 
s 20497
f 37/73/72 57/72/71 58/74/73 38/75/74 
s 8227
f 38/75/74 58/74/73 59/76/75 39/77/76 
s 16466
f 39/77/76 59/76/75 60/78/77 40/79/78 
s 32789
f 40/79/78 60/78/77 61/80/79 41/81/80 
s 65542
f 41/81/80 61/80/79 42/43/42 22/42/41 
s 18184
f 42/43/42 62/82/81 63/83/82 43/44/43 
s 68768
f 43/44/43 63/83/82 64/84/83 44/46/45 
s 19204
f 44/46/45 64/84/83 65/85/84 45/48/47 
s 1688
f 45/48/47 65/85/84 66/86/85 46/50/49 
s 3333
f 46/50/49 66/86/85 67/87/86 47/52/51 
s 6282
f 47/52/51 67/87/86 68/88/87 48/54/53 
s 66436
f 48/54/53 68/88/87 69/89/88 49/56/55 
s 7688
f 49/56/55 69/89/88 70/90/89 50/58/57 
s 10628
f 50/58/57 70/90/89 71/91/90 51/60/59 
s 5896
f 51/60/59 71/91/90 72/92/91 52/62/61 
s 11396
f 52/62/61 72/92/91 73/93/92 53/64/63 
s 6920
f 53/64/63 73/93/92 74/94/93 54/66/65 
s 9860
f 54/66/65 74/94/93 75/95/94 55/68/67 
s 7432
f 55/68/67 75/95/94 76/96/95 56/70/69 
s 10884
f 56/70/69 76/96/95 77/97/96 57/72/71 
s 5896
f 57/72/71 77/97/96 78/98/97 58/74/73 
s 3236
f 58/74/73 78/98/97 79/99/98 59/76/75 
s 2888
f 59/76/75 79/99/98 80/100/99 60/78/77 
s 38432
f 60/78/77 80/100/99 81/101/100 61/80/79 
s 72000
f 61/80/79 81/101/100 62/82/81 42/43/42 
s 531
f 62/102/81 82/103/101 83/104/102 63/105/82 
s 4304
f 63/105/82 83/104/102 84/106/103 64/107/83 
s 4355
f 64/107/83 84/106/103 85/108/104 65/109/84 
s 8386
f 65/109/84 85/108/104 86/110/105 66/111/85 
s 49472
f 66/111/85 86/110/105 87/112/106 67/113/86 
s 45088
f 67/113/86 87/112/106 88/114/107 68/115/87 
s 24833
f 68/115/87 88/114/107 89/116/108 69/117/88 
s 1043
f 69/117/88 89/116/108 90/118/109 70/119/89 
s 240
f 70/119/89 90/118/109 91/120/110 71/121/90 
s 579
f 71/121/90 91/120/110 92/122/111 72/123/91 
s 178
f 72/123/91 92/122/111 93/120/112 73/121/92 
s 353
f 73/121/92 93/120/112 94/118/113 74/119/93 
s 210
f 74/119/93 94/118/113 95/116/114 75/117/94 
s 305
f 75/117/94 95/116/114 96/114/115 76/115/95 
s 226
f 76/115/95 96/114/115 97/112/116 77/113/96 
s 337
f 77/113/96 97/112/116 98/110/117 78/111/97 
s 8338
f 78/111/97 98/110/117 99/108/118 79/109/98 
s 24833
f 79/109/98 99/108/118 100/106/119 80/107/99 
s 17414
f 80/107/99 100/106/119 101/104/120 81/105/100 
s 2181
f 81/105/100 101/104/120 82/103/101 62/102/81 
s 1066
f 82/103/101 102/124/121 103/125/122 83/104/102 
s 3140
f 83/104/102 103/125/122 104/126/123 84/106/103 
s 2089
f 84/106/103 104/126/123 105/127/124 85/108/104 
s 8740
f 85/108/104 105/127/124 106/128/125 86/110/105 
s 83456
f 86/110/105 106/128/125 107/129/126 87/112/106 
s 394272
f 87/112/106 107/129/126 108/130/127 88/114/107 
s 278540
f 88/114/107 108/130/127 109/131/128 89/116/108 
s 2570
f 89/116/108 109/131/128 110/132/129 90/118/109 
s 2340
f 90/118/109 110/132/129 111/133/130 91/120/110 
s 1289
f 91/120/110 111/133/130 112/134/131 92/122/111 
s 3092
f 92/122/111 112/134/131 113/133/132 93/120/112 
s 2569
f 93/120/112 113/133/132 114/132/133 94/118/113 
s 1542
f 94/118/113 114/132/133 115/131/134 95/116/114 
s 3081
f 95/116/114 115/131/134 116/130/135 96/114/115 
s 2566
f 96/114/115 116/130/135 117/129/136 97/112/116 
s 1545
f 97/112/116 117/129/136 118/128/137 98/110/117 
s 1062
f 98/110/117 118/128/137 119/127/138 99/108/118 
s 105
f 99/108/118 119/127/138 120/126/139 100/106/119 
s 4178
f 100/106/119 120/126/139 121/125/140 101/104/120 
s 4488
f 101/104/120 121/125/140 102/124/121 82/103/101 
s 66097
f 102/82/121 122/43/141 123/44/142 103/83/122 
s 9092
f 103/83/122 123/44/142 124/46/143 104/84/123 
s 33050
f 104/84/123 124/46/143 125/48/144 105/85/124 
s 131284
f 105/85/124 125/48/144 126/50/145 106/86/125 
s 102529
f 106/86/125 126/50/145 127/52/146 107/87/126 
s 659474
f 107/87/126 127/52/146 128/54/147 108/88/127 
s 32853
f 108/88/127 128/54/147 129/56/148 109/89/128 
s 136896
f 109/89/128 129/56/148 130/58/149 110/90/129 
s 45076
f 110/90/129 130/58/149 131/60/150 111/91/130 
s 139338
f 111/91/130 131/60/150 132/62/151 112/92/131 
s 32996
f 112/92/131 132/62/151 133/64/152 113/93/132 
s 70024
f 113/93/132 133/64/152 134/66/153 114/94/133 
s 36916
f 114/94/133 134/66/153 135/68/154 115/95/134 
s 65768
f 115/95/134 135/68/154 136/70/155 116/96/135 
s 33172
f 116/96/135 136/70/155 137/72/156 117/97/136 
s 69960
f 117/97/136 137/72/156 138/74/157 118/98/137 
s 6292
f 118/98/137 138/74/157 139/76/158 119/99/138 
s 9096
f 119/99/138 139/76/158 140/78/159 120/100/139 
s 35348
f 120/100/139 140/78/159 141/80/160 121/101/140 
s 272641
f 121/101/140 141/80/160 122/43/141 102/82/121 
s 114760
f 122/43/141 142/42/161 143/45/162 123/44/142 
s 14400
f 123/44/142 143/45/162 144/47/163 124/46/143 
s 51232
f 124/46/143 144/47/163 145/49/164 125/48/144 
s 139808
f 125/48/144 145/49/164 146/51/165 126/50/145 
s 49920
f 126/50/145 146/51/165 147/53/166 127/52/146 
s 534784
f 127/52/146 147/53/166 148/55/167 128/54/147 
s 116744
f 128/54/147 148/55/167 149/57/168 129/56/148 
s 458752
f 129/56/148 149/57/168 150/59/169 130/58/149 
s 311584
f 130/58/149 150/59/169 151/61/170 131/60/150 
s 197888
f 131/60/150 151/61/170 152/63/171 132/62/151 
s 52224
f 132/62/151 152/63/171 153/65/172 133/64/152 
s 76288
f 133/64/152 153/65/172 154/67/173 134/66/153 
s 50688
f 134/66/153 154/67/173 155/69/174 135/68/154 
s 76800
f 135/68/154 155/69/174 156/71/175 136/70/155 
s 51712
f 136/70/155 156/71/175 157/73/176 137/72/156 
s 74272
f 137/72/156 157/73/176 158/75/177 138/74/157 
s 18465
f 138/74/157 158/75/177 159/77/178 139/76/158 
s 9281
f 139/76/158 159/77/178 160/79/179 140/78/159 
s 163906
f 140/78/159 160/79/179 161/81/180 141/80/160 
s 262154
f 141/80/160 161/81/180 142/42/161 122/43/141 
s off
f 142/22/181 162/2/181 163/3/181 143/23/181 
f 143/23/182 163/3/182 164/4/182 144/24/182 
f 144/24/183 164/4/183 165/5/183 145/25/183 
f 145/25/184 165/5/184 166/6/184 146/26/184 
f 146/26/185 166/6/185 167/7/185 147/27/185 
f 147/27/186 167/7/186 168/8/186 148/28/186 
f 148/28/187 168/8/187 169/9/187 149/29/187 
f 149/29/188 169/9/188 170/10/188 150/30/188 
f 150/30/189 170/10/189 171/11/189 151/31/189 
f 151/31/190 171/11/190 172/12/190 152/32/190 
f 152/32/191 172/12/191 173/13/191 153/33/191 
f 153/33/192 173/13/192 174/14/192 154/34/192 
f 154/34/193 174/14/193 175/15/193 155/35/193 
f 155/35/194 175/15/194 176/16/194 156/36/194 
f 156/36/195 176/16/195 177/17/195 157/37/195 
f 157/37/196 177/17/196 178/18/196 158/38/196 
f 158/38/197 178/18/197 179/19/197 159/39/197 
f 159/39/198 179/19/198 180/20/198 160/40/198 
f 160/40/199 180/20/199 181/21/199 161/41/199 
f 161/41/200 181/21/200 162/2/200 142/22/200 
f 182/1/201 163/3/201 162/2/201 
f 182/1/202 164/4/202 163/3/202 
f 182/1/203 165/5/203 164/4/203 
f 182/1/204 166/6/204 165/5/204 
f 182/1/205 167/7/205 166/6/205 
f 182/1/206 168/8/206 167/7/206 
f 182/1/207 169/9/207 168/8/207 
f 182/1/208 170/10/208 169/9/208 
f 182/1/209 171/11/209 170/10/209 
f 182/1/210 172/12/210 171/11/210 
f 182/1/211 173/13/211 172/12/211 
f 182/1/212 174/14/212 173/13/212 
f 182/1/213 175/15/213 174/14/213 
f 182/1/214 176/16/214 175/15/214 
f 182/1/215 177/17/215 176/16/215 
f 182/1/216 178/18/216 177/17/216 
f 182/1/217 179/19/217 178/18/217 
f 182/1/218 180/20/218 179/19/218 
f 182/1/219 181/21/219 180/20/219 
f 182/1/220 162/2/220 181/21/220 
# 160 polygons - 40 triangles

