# 3ds Max Wavefront OBJ Exporter v0.97b - (c)2007 guruware
# ì¬‚µ‚½ƒtƒ@ƒCƒ‹ : 05.07.2019 09:17:23

mtllib Color cone.mtl

#
# object Box001
#

v  -1.2500 42.5000 1.2500
v  1.2500 42.5000 1.2500
v  1.2500 42.5000 -1.2500
v  -1.2500 42.5000 -1.2500
v  -7.5000 0.0000 12.5000
v  7.5000 0.0000 12.5000
v  7.5000 2.5000 12.5000
v  -7.5000 2.5000 12.5000
v  12.5000 0.0000 7.5000
v  12.5000 0.0000 -7.5000
v  12.5000 2.5000 -7.5000
v  12.5000 2.5000 7.5000
v  7.5000 0.0000 -12.5000
v  -7.5000 0.0000 -12.5000
v  -7.5000 2.5000 -12.5000
v  7.5000 2.5000 -12.5000
v  -12.5000 0.0000 -7.5000
v  -12.5000 0.0000 7.5000
v  -12.5000 2.5000 7.5000
v  -12.5000 2.5000 -7.5000
v  7.5000 5.0000 -2.5000
v  7.5000 5.0000 2.5000
v  -2.5000 5.0000 -7.5000
v  2.5000 5.0000 -7.5000
v  -7.5000 5.0000 2.5000
v  -7.5000 5.0000 -2.5000
v  2.5000 5.0000 7.5000
v  -2.5000 5.0000 7.5000
v  -2.5000 40.0000 2.5000
v  -2.5000 40.0000 -2.5000
v  2.5000 40.0000 2.5000
v  2.5000 40.0000 -2.5000
# 32 vertices

vn -0.4248 0.7994 0.4248
vn 0.4248 0.7994 0.4248
vn 0.4248 0.7994 -0.4248
vn -0.4248 0.7994 -0.4248
vn 0.0000 0.0000 1.0000
vn 1.0000 0.0000 -0.0000
vn 0.0000 0.0000 -1.0000
vn -1.0000 0.0000 -0.0000
vn 0.0000 -1.0000 -0.0000
vn 0.3659 0.9256 -0.0968
vn 0.3659 0.9256 0.0968
vn 0.3131 0.9369 0.1553
vn 0.3131 0.9369 -0.1553
vn -0.7071 0.0000 -0.7071
vn -0.0968 0.9256 -0.3659
vn 0.0968 0.9256 -0.3659
vn 0.1553 0.9369 -0.3131
vn -0.1553 0.9369 -0.3131
vn 0.7071 0.0000 -0.7071
vn -0.7071 -0.0000 0.7071
vn -0.3659 0.9256 0.0968
vn -0.3659 0.9256 -0.0968
vn -0.3131 0.9369 -0.1553
vn -0.3131 0.9369 0.1553
vn 0.7071 -0.0000 0.7071
vn 0.0968 0.9256 0.3659
vn 0.1553 0.9369 0.3131
vn -0.0968 0.9256 0.3659
vn -0.1553 0.9369 0.3131
vn -0.9206 0.1315 -0.3678
vn -0.9206 0.1315 0.3678
vn -0.6593 0.3613 0.6593
vn -0.6593 0.3613 -0.6593
vn -0.3678 0.1315 0.9206
vn 0.3678 0.1315 0.9206
vn 0.6593 0.3613 0.6593
vn 0.9206 0.1315 0.3678
vn 0.9206 0.1315 -0.3678
vn 0.6593 0.3613 -0.6593
vn 0.3678 0.1315 -0.9206
vn -0.3678 0.1315 -0.9206
# 41 vertex normals

vt 0.6505 0.7199 0.0000
vt 0.7960 0.7199 0.0000
vt 0.7960 0.8654 0.0000
vt 0.6505 0.8654 0.0000
vt 0.2369 0.3949 0.0000
vt 0.3658 0.3949 0.0000
vt 0.3658 0.6097 0.0000
vt 0.2369 0.6097 0.0000
vt 0.7759 0.3964 0.0000
vt 0.6620 0.3964 0.0000
vt 0.6241 0.4343 0.0000
vt 0.6241 0.5482 0.0000
vt 0.6620 0.5861 0.0000
vt 0.7759 0.5861 0.0000
vt 0.8138 0.5482 0.0000
vt 0.8138 0.4343 0.0000
vt 0.7759 0.5102 0.0000
vt 0.7759 0.4723 0.0000
vt 0.1939 0.3949 0.0000
vt 0.1939 0.6097 0.0000
vt 0.7000 0.5482 0.0000
vt 0.7379 0.5482 0.0000
vt 0.4088 0.6097 0.0000
vt 0.4088 0.3949 0.0000
vt 0.6620 0.4723 0.0000
vt 0.6620 0.5102 0.0000
vt 0.7379 0.4343 0.0000
vt 0.7000 0.4343 0.0000
vt 0.2631 0.7241 0.0000
vt 0.3237 0.7241 0.0000
vt 0.3237 0.8939 0.0000
vt 0.2631 0.8939 0.0000
vt 0.3844 0.7241 0.0000
vt 0.2025 0.7241 0.0000
vt 0.3086 0.9060 0.0000
vt 0.2782 0.9060 0.0000
# 36 texture coords

g Box001
usemtl Material__2
s 964
f 1/1/1 2/2/2 3/3/3 4/4/4 
s 8
f 5/5/5 6/6/5 7/7/5 8/8/5 
s 16
f 9/6/6 10/5/6 11/8/6 12/7/6 
s 32
f 13/6/7 14/5/7 15/8/7 16/7/7 
s 64
f 17/5/8 18/6/8 19/7/8 20/8/8 
s 2
f 6/9/9 5/10/9 18/11/9 17/12/9 14/13/9 13/14/9 10/15/9 9/16/9 
s 1088
f 21/17/10 22/18/11 12/16/12 11/15/13 
s off
f 17/19/14 20/20/14 15/8/14 14/5/14 
s 384
f 23/21/15 24/22/16 16/14/17 15/13/18 
s off
f 11/23/19 10/24/19 13/6/19 16/7/19 
f 5/5/20 8/8/20 19/20/20 18/19/20 
s 1152
f 25/25/21 26/26/22 20/12/23 19/11/24 
s off
f 9/24/25 12/23/25 7/7/25 6/6/25 
s 1280
f 12/16/12 22/18/11 27/27/26 7/9/27 
s 768
f 27/27/26 28/28/28 8/10/29 7/9/27 
s 192
f 24/22/16 21/17/10 11/15/13 16/14/17 
s 1280
f 26/26/22 23/21/15 15/13/18 20/12/23 
s 640
f 28/28/28 25/25/21 19/11/24 8/10/29 
s 13
f 26/29/30 25/30/31 29/31/32 30/32/33 
s 24
f 25/30/31 28/33/34 29/31/32 
s 50
f 28/29/34 27/30/35 31/31/36 29/32/32 
s 36
f 27/33/35 22/30/37 31/31/36 
s 13
f 22/30/37 21/29/38 32/32/39 31/31/36 
s 24
f 21/29/38 24/34/40 32/32/39 
s 50
f 24/30/40 23/29/41 30/32/33 32/31/39 
s 36
f 23/34/41 26/29/30 30/32/33 
s 3137
f 30/32/33 29/31/32 1/35/1 4/36/4 
s 6274
f 29/32/32 31/31/36 2/35/2 1/36/1 
s 12545
f 31/31/36 32/32/39 3/36/3 2/35/2 
s 9730
f 32/31/39 30/32/33 4/36/4 3/35/3 
# 26 polygons - 4 triangles

