# 3ds Max Wavefront OBJ Exporter v0.97b - (c)2007 guruware
# ì¬‚µ‚½ƒtƒ@ƒCƒ‹ : 16.10.2019 14:30:12

mtllib Guardrail 3.mtl

#
# object Cylinder001
#

v  10.0000 0.0000 -0.0000
v  9.5106 0.0000 -3.0902
v  9.5106 35.0000 -3.0902
v  10.0000 35.0000 -0.0000
v  8.0902 0.0000 -5.8779
v  8.0902 35.0000 -5.8779
v  5.8779 0.0000 -8.0902
v  5.8779 35.0000 -8.0902
v  3.0902 0.0000 -9.5106
v  3.0902 35.0000 -9.5106
v  -0.0000 0.0000 -10.0000
v  -0.0000 35.0000 -10.0000
v  -3.0902 0.0000 -9.5106
v  -3.0902 35.0000 -9.5106
v  -5.8779 0.0000 -8.0902
v  -5.8779 35.0000 -8.0902
v  -8.0902 0.0000 -5.8779
v  -8.0902 35.0000 -5.8779
v  -9.5106 0.0000 -3.0902
v  -9.5106 35.0000 -3.0902
v  -10.0000 0.0000 0.0000
v  -10.0000 35.0000 0.0000
v  -9.5106 0.0000 3.0902
v  -9.5106 35.0000 3.0902
v  -8.0902 0.0000 5.8779
v  -8.0902 35.0000 5.8779
v  -5.8778 0.0000 8.0902
v  -5.8778 35.0000 8.0902
v  -3.0902 0.0000 9.5106
v  -3.0902 35.0000 9.5106
v  0.0000 0.0000 10.0000
v  0.0000 35.0000 10.0000
v  3.0902 0.0000 9.5106
v  3.0902 35.0000 9.5106
v  5.8779 0.0000 8.0902
v  5.8779 35.0000 8.0902
v  8.0902 0.0000 5.8778
v  8.0902 35.0000 5.8778
v  9.5106 0.0000 3.0902
v  9.5106 35.0000 3.0902
v  10.0000 50.0000 0.0000
v  9.5106 50.0000 3.0902
v  8.0902 50.0000 -5.8779
v  9.5106 50.0000 -3.0902
v  5.8779 50.0000 -8.0902
v  3.0902 50.0000 -9.5106
v  -0.0000 50.0000 -10.0000
v  -3.0902 50.0000 -9.5106
v  -5.8779 50.0000 -8.0902
v  -8.0902 50.0000 -5.8779
v  -9.5106 50.0000 -3.0902
v  -40.0000 35.0000 -3.0902
v  -40.0000 35.0000 3.0902
v  -40.0000 50.0000 3.0902
v  -40.0000 50.0000 -3.0902
v  -8.0902 50.0000 5.8779
v  -9.5106 50.0000 3.0902
v  -5.8778 50.0000 8.0902
v  -3.0902 50.0000 9.5106
v  -3.0901 35.0000 40.0000
v  3.0902 35.0000 40.0000
v  3.0902 50.0000 40.0000
v  -3.0901 50.0000 40.0000
v  5.8779 50.0000 8.0902
v  3.0902 50.0000 9.5106
v  8.0902 50.0000 5.8778
v  10.0000 65.0000 0.0000
v  9.5106 65.0000 3.0902
v  9.5106 65.0000 -3.0902
v  8.0902 65.0000 -5.8779
v  5.8779 65.0000 -8.0902
v  3.0902 65.0000 -9.5106
v  -0.0000 65.0000 -10.0000
v  -3.0902 65.0000 -9.5106
v  -5.8779 65.0000 -8.0902
v  -8.0902 65.0000 -5.8779
v  -9.5106 65.0000 -3.0902
v  -10.0000 50.0000 0.0000
v  -10.0000 65.0000 0.0000
v  -9.5106 65.0000 3.0902
v  -8.0902 65.0000 5.8779
v  -5.8778 65.0000 8.0902
v  -3.0902 65.0000 9.5106
v  0.0000 50.0000 10.0000
v  0.0000 65.0000 10.0000
v  3.0902 65.0000 9.5106
v  5.8779 65.0000 8.0902
v  8.0902 65.0000 5.8778
v  10.0000 80.0000 -0.0000
v  9.5106 80.0000 3.0902
v  8.0902 80.0000 -5.8779
v  9.5106 80.0000 -3.0902
v  5.8779 80.0000 -8.0902
v  3.0902 80.0000 -9.5106
v  -0.0000 80.0000 -10.0000
v  -3.0902 80.0000 -9.5106
v  -5.8779 80.0000 -8.0902
v  -8.0902 80.0000 -5.8779
v  -9.5106 80.0000 -3.0902
v  -40.0000 65.0000 -3.0902
v  -40.0000 65.0000 3.0902
v  -40.0000 80.0000 3.0902
v  -40.0000 80.0000 -3.0902
v  -8.0902 80.0000 5.8779
v  -9.5106 80.0000 3.0902
v  -5.8778 80.0000 8.0902
v  -3.0902 80.0000 9.5106
v  -3.0901 65.0000 40.0000
v  3.0902 65.0000 40.0000
v  3.0902 80.0000 40.0000
v  -3.0901 80.0000 40.0000
v  5.8779 80.0000 8.0902
v  3.0902 80.0000 9.5106
v  8.0902 80.0000 5.8778
v  -10.0000 80.0000 0.0000
v  0.0000 90.0000 -0.0000
v  -0.0000 89.5106 -3.0902
v  -0.9549 89.5106 -2.9389
v  -1.8164 89.5106 -2.5000
v  -2.5000 89.5106 -1.8164
v  -2.9389 89.5106 -0.9549
v  -3.0902 89.5106 0.0000
v  -2.9389 89.5106 0.9549
v  -2.5000 89.5106 1.8164
v  -1.8164 89.5106 2.5000
v  -0.9549 89.5106 2.9389
v  0.0000 89.5106 3.0902
v  0.9549 89.5106 2.9389
v  1.8164 89.5106 2.5000
v  2.5000 89.5106 1.8164
v  2.9389 89.5106 0.9549
v  3.0902 89.5106 -0.0000
v  2.9389 89.5106 -0.9549
v  2.5000 89.5106 -1.8164
v  1.8164 89.5106 -2.5000
v  0.9549 89.5106 -2.9389
v  -0.0000 88.0902 -5.8779
v  -1.8164 88.0902 -5.5902
v  -3.4549 88.0902 -4.7553
v  -4.7553 88.0902 -3.4549
v  -5.5902 88.0902 -1.8164
v  -5.8779 88.0902 0.0000
v  -5.5902 88.0902 1.8164
v  -4.7553 88.0902 3.4549
v  -3.4549 88.0902 4.7553
v  -1.8164 88.0902 5.5902
v  0.0000 88.0902 5.8779
v  1.8164 88.0902 5.5902
v  3.4549 88.0902 4.7553
v  4.7553 88.0902 3.4549
v  5.5902 88.0902 1.8163
v  5.8779 88.0902 -0.0000
v  5.5902 88.0902 -1.8164
v  4.7553 88.0902 -3.4549
v  3.4549 88.0902 -4.7553
v  1.8163 88.0902 -5.5902
v  -0.0000 85.8779 -8.0902
v  -2.5000 85.8779 -7.6942
v  -4.7553 85.8779 -6.5451
v  -6.5451 85.8779 -4.7553
v  -7.6942 85.8779 -2.5000
v  -8.0902 85.8779 0.0000
v  -7.6942 85.8779 2.5000
v  -6.5451 85.8779 4.7553
v  -4.7553 85.8779 6.5451
v  -2.5000 85.8779 7.6942
v  0.0000 85.8779 8.0902
v  2.5000 85.8779 7.6942
v  4.7553 85.8779 6.5451
v  6.5451 85.8779 4.7553
v  7.6942 85.8779 2.5000
v  8.0902 85.8779 -0.0000
v  7.6942 85.8779 -2.5000
v  6.5451 85.8779 -4.7553
v  4.7553 85.8779 -6.5451
v  2.5000 85.8779 -7.6942
v  -0.0000 83.0902 -9.5106
v  -2.9389 83.0902 -9.0451
v  -5.5902 83.0902 -7.6942
v  -7.6942 83.0902 -5.5902
v  -9.0451 83.0902 -2.9389
v  -9.5106 83.0902 0.0000
v  -9.0451 83.0902 2.9389
v  -7.6942 83.0902 5.5902
v  -5.5902 83.0902 7.6942
v  -2.9389 83.0902 9.0451
v  0.0000 83.0902 9.5106
v  2.9389 83.0902 9.0451
v  5.5902 83.0902 7.6942
v  7.6942 83.0902 5.5902
v  9.0451 83.0902 2.9389
v  9.5106 83.0902 -0.0000
v  9.0451 83.0902 -2.9389
v  7.6942 83.0902 -5.5902
v  5.5902 83.0902 -7.6942
v  2.9389 83.0902 -9.0451
v  0.0000 80.0000 10.0000
# 197 vertices

vn 0.9877 -0.0000 -0.1564
vn 0.8910 -0.0000 -0.4540
vn 0.7071 0.0000 -0.7071
vn 0.4540 0.0000 -0.8910
vn 0.1564 0.0000 -0.9877
vn -0.1564 0.0000 -0.9877
vn -0.4540 0.0000 -0.8910
vn -0.7071 0.0000 -0.7071
vn -0.8910 -0.0000 -0.4540
vn -0.9877 -0.0000 -0.1564
vn -0.9877 0.0000 0.1564
vn -0.8910 0.0000 0.4540
vn -0.7071 -0.0000 0.7071
vn -0.4540 -0.0000 0.8910
vn -0.1564 -0.0000 0.9877
vn 0.1564 -0.0000 0.9877
vn 0.4540 -0.0000 0.8910
vn 0.7071 -0.0000 0.7071
vn 0.8910 0.0000 0.4540
vn 0.9877 0.0000 0.1564
vn 0.9877 -0.0000 0.1564
vn 0.8910 0.0000 -0.4540
vn 0.4540 -0.0000 -0.8910
vn 0.1564 -0.0000 -0.9877
vn -0.1564 -0.0000 -0.9877
vn -0.4540 -0.0000 -0.8910
vn -0.8910 0.0000 -0.4540
vn -1.0000 0.0000 -0.0000
vn -0.8910 -0.0000 0.4540
vn -0.7071 0.0000 0.7071
vn -0.4540 0.0000 0.8910
vn 0.0000 0.0000 1.0000
vn 0.4540 0.0000 0.8910
vn 0.7071 0.0000 0.7071
vn 0.8910 -0.0000 0.4540
vn 0.0000 -1.0000 -0.0000
vn 0.9877 0.0000 -0.1564
vn 0.7071 -0.0000 -0.7071
vn -0.7071 -0.0000 -0.7071
vn -0.9877 0.0000 -0.1564
vn -0.9877 -0.0000 0.1564
vn -0.1564 0.0000 0.9877
vn 0.1564 0.0000 0.9877
vn -1.0000 0.0000 0.0000
vn 0.0000 -0.0000 1.0000
vn -0.0000 1.0000 0.0000
vn -0.0000 -0.0000 -1.0000
vn 0.0000 1.0000 -0.0000
vn -0.0000 0.0000 -1.0000
vn -0.0248 0.9874 -0.1564
vn -0.0719 0.9874 -0.1411
vn -0.1120 0.9874 -0.1120
vn -0.1411 0.9874 -0.0719
vn -0.1564 0.9874 -0.0248
vn -0.1564 0.9874 0.0248
vn -0.1411 0.9874 0.0719
vn -0.1120 0.9874 0.1120
vn -0.0719 0.9874 0.1411
vn -0.0248 0.9874 0.1564
vn 0.0248 0.9874 0.1564
vn 0.0719 0.9874 0.1411
vn 0.1120 0.9874 0.1120
vn 0.1411 0.9874 0.0719
vn 0.1564 0.9874 0.0248
vn 0.1564 0.9874 -0.0248
vn 0.1411 0.9874 -0.0719
vn 0.1120 0.9874 -0.1120
vn 0.0719 0.9874 -0.1411
vn 0.0248 0.9874 -0.1564
vn -0.0717 0.8887 -0.4528
vn -0.2081 0.8887 -0.4085
vn -0.3242 0.8887 -0.3242
vn -0.4085 0.8887 -0.2081
vn -0.4528 0.8887 -0.0717
vn -0.4528 0.8887 0.0717
vn -0.4085 0.8887 0.2081
vn -0.3242 0.8887 0.3242
vn -0.2081 0.8887 0.4085
vn -0.0717 0.8887 0.4528
vn 0.0717 0.8887 0.4528
vn 0.2081 0.8887 0.4085
vn 0.3242 0.8887 0.3242
vn 0.4085 0.8887 0.2081
vn 0.4528 0.8887 0.0717
vn 0.4528 0.8887 -0.0717
vn 0.4085 0.8887 -0.2081
vn 0.3242 0.8887 -0.3242
vn 0.2081 0.8887 -0.4085
vn 0.0717 0.8887 -0.4528
vn -0.1113 0.7027 -0.7027
vn -0.3230 0.7027 -0.6339
vn -0.5031 0.7027 -0.5031
vn -0.6339 0.7027 -0.3230
vn -0.7027 0.7027 -0.1113
vn -0.7027 0.7027 0.1113
vn -0.6339 0.7027 0.3230
vn -0.5031 0.7027 0.5031
vn -0.3230 0.7027 0.6339
vn -0.1113 0.7027 0.7027
vn 0.1113 0.7027 0.7027
vn 0.3230 0.7027 0.6339
vn 0.5031 0.7027 0.5031
vn 0.6339 0.7027 0.3230
vn 0.7027 0.7027 0.1113
vn 0.7027 0.7027 -0.1113
vn 0.6339 0.7027 -0.3230
vn 0.5031 0.7027 -0.5031
vn 0.3230 0.7027 -0.6339
vn 0.1113 0.7027 -0.7027
vn -0.1397 0.4495 -0.8823
vn -0.4055 0.4495 -0.7959
vn -0.6316 0.4495 -0.6316
vn -0.7959 0.4495 -0.4055
vn -0.8823 0.4495 -0.1397
vn -0.8823 0.4495 0.1397
vn -0.7959 0.4495 0.4055
vn -0.6316 0.4495 0.6316
vn -0.4055 0.4495 0.7959
vn -0.1397 0.4495 0.8823
vn 0.1397 0.4495 0.8823
vn 0.4055 0.4495 0.7959
vn 0.6316 0.4495 0.6316
vn 0.7959 0.4495 0.4055
vn 0.8823 0.4495 0.1397
vn 0.8823 0.4495 -0.1397
vn 0.7959 0.4495 -0.4055
vn 0.6316 0.4495 -0.6316
vn 0.4055 0.4495 -0.7959
vn 0.1397 0.4495 -0.8823
vn -0.1546 0.1546 -0.9758
vn -0.4485 0.1546 -0.8803
vn -0.6986 0.1546 -0.6986
vn -0.8803 0.1546 -0.4485
vn -0.9758 0.1546 -0.1546
vn -0.9758 0.1546 0.1546
vn -0.8803 0.1546 0.4485
vn -0.6986 0.1546 0.6986
vn -0.4485 0.1546 0.8803
vn -0.1546 0.1546 0.9758
vn 0.1546 0.1546 0.9758
vn 0.4485 0.1546 0.8803
vn 0.6986 0.1546 0.6986
vn 0.8803 0.1546 0.4485
vn 0.9758 0.1546 0.1546
vn 0.9758 0.1546 -0.1546
vn 0.8803 0.1546 -0.4485
vn 0.6986 0.1546 -0.6986
vn 0.4485 0.1546 -0.8803
vn 0.1546 0.1546 -0.9758
vn 1.0000 -0.0000 -0.0000
vn 1.0000 0.0000 -0.0000
vn -1.0000 -0.0000 0.0000
# 152 vertex normals

vt 0.4981 0.7457 0.0000
vt 0.4937 0.7457 0.0000
vt 0.4937 0.8237 0.0000
vt 0.4981 0.8237 0.0000
vt 0.4810 0.7457 0.0000
vt 0.4810 0.8237 0.0000
vt 0.4613 0.7457 0.0000
vt 0.4613 0.8237 0.0000
vt 0.4365 0.7457 0.0000
vt 0.4365 0.8237 0.0000
vt 0.4089 0.7457 0.0000
vt 0.4089 0.8237 0.0000
vt 0.3814 0.7457 0.0000
vt 0.3814 0.8237 0.0000
vt 0.3565 0.7457 0.0000
vt 0.3565 0.8237 0.0000
vt 0.3368 0.7457 0.0000
vt 0.3368 0.8237 0.0000
vt 0.3241 0.7457 0.0000
vt 0.3241 0.8237 0.0000
vt 0.3198 0.7457 0.0000
vt 0.3198 0.8237 0.0000
vt 0.4981 0.8572 0.0000
vt 0.4937 0.8572 0.0000
vt 0.4810 0.8572 0.0000
vt 0.4613 0.8572 0.0000
vt 0.4365 0.8572 0.0000
vt 0.4089 0.8572 0.0000
vt 0.3814 0.8572 0.0000
vt 0.3565 0.8572 0.0000
vt 0.3368 0.8572 0.0000
vt 0.3241 0.8572 0.0000
vt 0.7739 0.7814 0.0000
vt 0.9079 0.7814 0.0000
vt 0.9079 0.8261 0.0000
vt 0.7739 0.8261 0.0000
vt 0.6005 0.7827 0.0000
vt 0.7317 0.7827 0.0000
vt 0.7317 0.8264 0.0000
vt 0.6005 0.8264 0.0000
vt 0.2608 0.5045 0.0000
vt 0.2481 0.4797 0.0000
vt 0.2283 0.4599 0.0000
vt 0.2034 0.4472 0.0000
vt 0.1758 0.4428 0.0000
vt 0.1482 0.4472 0.0000
vt 0.1233 0.4599 0.0000
vt 0.1036 0.4797 0.0000
vt 0.0909 0.5045 0.0000
vt 0.0865 0.5321 0.0000
vt 0.0909 0.5597 0.0000
vt 0.1036 0.5846 0.0000
vt 0.1233 0.6044 0.0000
vt 0.1482 0.6171 0.0000
vt 0.1758 0.6215 0.0000
vt 0.2034 0.6171 0.0000
vt 0.2283 0.6044 0.0000
vt 0.2481 0.5846 0.0000
vt 0.2608 0.5597 0.0000
vt 0.2652 0.5321 0.0000
vt 0.4981 0.8906 0.0000
vt 0.4937 0.8906 0.0000
vt 0.4810 0.8906 0.0000
vt 0.4613 0.8906 0.0000
vt 0.4365 0.8906 0.0000
vt 0.4089 0.8906 0.0000
vt 0.3814 0.8906 0.0000
vt 0.3565 0.8906 0.0000
vt 0.3368 0.8906 0.0000
vt 0.3241 0.8906 0.0000
vt 0.8409 0.8261 0.0000
vt 0.8409 0.8708 0.0000
vt 0.7739 0.8708 0.0000
vt 0.9079 0.8708 0.0000
vt 0.6661 0.8264 0.0000
vt 0.6661 0.8701 0.0000
vt 0.6005 0.8701 0.0000
vt 0.7317 0.8701 0.0000
vt 0.4981 0.9240 0.0000
vt 0.4937 0.9240 0.0000
vt 0.4810 0.9240 0.0000
vt 0.4613 0.9240 0.0000
vt 0.4365 0.9240 0.0000
vt 0.4089 0.9240 0.0000
vt 0.3814 0.9240 0.0000
vt 0.3565 0.9240 0.0000
vt 0.3368 0.9240 0.0000
vt 0.3241 0.9240 0.0000
vt 0.9079 0.9154 0.0000
vt 0.7739 0.9154 0.0000
vt 0.7317 0.9139 0.0000
vt 0.6005 0.9139 0.0000
vt 0.4942 0.6132 0.0000
vt 0.4925 0.6020 0.0000
vt 0.4942 0.5907 0.0000
vt 0.3833 0.5907 0.0000
vt 0.3833 0.6132 0.0000
vt 0.7293 0.5630 0.0000
vt 0.7293 0.6088 0.0000
vt 0.5922 0.6087 0.0000
vt 0.5922 0.5630 0.0000
vt 0.7293 0.4716 0.0000
vt 0.7293 0.5173 0.0000
vt 0.5922 0.5173 0.0000
vt 0.5922 0.4716 0.0000
vt 0.1622 0.8483 0.0000
vt 0.1622 0.8833 0.0000
vt 0.1514 0.8816 0.0000
vt 0.1416 0.8766 0.0000
vt 0.1339 0.8688 0.0000
vt 0.1289 0.8591 0.0000
vt 0.1272 0.8483 0.0000
vt 0.1289 0.8375 0.0000
vt 0.1339 0.8277 0.0000
vt 0.1416 0.8200 0.0000
vt 0.1514 0.8150 0.0000
vt 0.1622 0.8133 0.0000
vt 0.1730 0.8150 0.0000
vt 0.1827 0.8200 0.0000
vt 0.1905 0.8277 0.0000
vt 0.1955 0.8375 0.0000
vt 0.1972 0.8483 0.0000
vt 0.1955 0.8591 0.0000
vt 0.1905 0.8688 0.0000
vt 0.1827 0.8766 0.0000
vt 0.1730 0.8816 0.0000
vt 0.1622 0.9148 0.0000
vt 0.1416 0.9116 0.0000
vt 0.1230 0.9021 0.0000
vt 0.1083 0.8874 0.0000
vt 0.0989 0.8688 0.0000
vt 0.0956 0.8483 0.0000
vt 0.0989 0.8277 0.0000
vt 0.1083 0.8091 0.0000
vt 0.1230 0.7944 0.0000
vt 0.1416 0.7850 0.0000
vt 0.1622 0.7817 0.0000
vt 0.1827 0.7850 0.0000
vt 0.2013 0.7944 0.0000
vt 0.2160 0.8091 0.0000
vt 0.2255 0.8277 0.0000
vt 0.2287 0.8483 0.0000
vt 0.2255 0.8688 0.0000
vt 0.2160 0.8874 0.0000
vt 0.2013 0.9021 0.0000
vt 0.1827 0.9116 0.0000
vt 0.1622 0.9399 0.0000
vt 0.1339 0.9354 0.0000
vt 0.1083 0.9224 0.0000
vt 0.0880 0.9021 0.0000
vt 0.0750 0.8766 0.0000
vt 0.0706 0.8483 0.0000
vt 0.0750 0.8200 0.0000
vt 0.0880 0.7944 0.0000
vt 0.1083 0.7741 0.0000
vt 0.1339 0.7611 0.0000
vt 0.1622 0.7567 0.0000
vt 0.1905 0.7611 0.0000
vt 0.2160 0.7741 0.0000
vt 0.2363 0.7944 0.0000
vt 0.2493 0.8200 0.0000
vt 0.2538 0.8483 0.0000
vt 0.2493 0.8766 0.0000
vt 0.2363 0.9021 0.0000
vt 0.2160 0.9224 0.0000
vt 0.1905 0.9354 0.0000
vt 0.1622 0.9560 0.0000
vt 0.1289 0.9507 0.0000
vt 0.0989 0.9354 0.0000
vt 0.0750 0.9116 0.0000
vt 0.0597 0.8816 0.0000
vt 0.0545 0.8483 0.0000
vt 0.0597 0.8150 0.0000
vt 0.0750 0.7850 0.0000
vt 0.0989 0.7611 0.0000
vt 0.1289 0.7458 0.0000
vt 0.1622 0.7406 0.0000
vt 0.1955 0.7458 0.0000
vt 0.2255 0.7611 0.0000
vt 0.2493 0.7850 0.0000
vt 0.2646 0.8150 0.0000
vt 0.2699 0.8483 0.0000
vt 0.2646 0.8816 0.0000
vt 0.2493 0.9116 0.0000
vt 0.2255 0.9354 0.0000
vt 0.1955 0.9507 0.0000
vt 0.1622 0.9615 0.0000
vt 0.1272 0.9560 0.0000
vt 0.0956 0.9399 0.0000
vt 0.0706 0.9148 0.0000
vt 0.0545 0.8833 0.0000
vt 0.0489 0.8483 0.0000
vt 0.0545 0.8133 0.0000
vt 0.0706 0.7817 0.0000
vt 0.0956 0.7567 0.0000
vt 0.1272 0.7406 0.0000
vt 0.1622 0.7350 0.0000
vt 0.1972 0.7406 0.0000
vt 0.2287 0.7567 0.0000
vt 0.2538 0.7817 0.0000
vt 0.2699 0.8133 0.0000
vt 0.2754 0.8483 0.0000
vt 0.2699 0.8833 0.0000
vt 0.2538 0.9148 0.0000
vt 0.2287 0.9399 0.0000
vt 0.1972 0.9560 0.0000
vt 0.5176 0.5674 0.0000
vt 0.5288 0.5656 0.0000
vt 0.5401 0.5674 0.0000
vt 0.5401 0.4564 0.0000
vt 0.5176 0.4564 0.0000
vt 0.7736 0.4736 0.0000
vt 0.7736 0.5198 0.0000
vt 0.9122 0.5198 0.0000
vt 0.9122 0.4736 0.0000
vt 0.7736 0.5660 0.0000
vt 0.7736 0.6121 0.0000
vt 0.9122 0.6121 0.0000
vt 0.9122 0.5660 0.0000
# 219 texture coords

g Cylinder001
usemtl Material__2
s off
f 1/1/1 2/2/1 3/3/1 4/4/1 
f 2/2/2 5/5/2 6/6/2 3/3/2 
f 5/5/3 7/7/3 8/8/3 6/6/3 
f 7/7/4 9/9/4 10/10/4 8/8/4 
f 9/9/5 11/11/5 12/12/5 10/10/5 
f 11/11/6 13/13/6 14/14/6 12/12/6 
f 13/13/7 15/15/7 16/16/7 14/14/7 
f 15/15/8 17/17/8 18/18/8 16/16/8 
f 17/17/9 19/19/9 20/20/9 18/18/9 
f 19/19/10 21/21/10 22/22/10 20/20/10 
f 21/21/11 23/19/11 24/20/11 22/22/11 
f 23/19/12 25/17/12 26/18/12 24/20/12 
f 25/17/13 27/15/13 28/16/13 26/18/13 
f 27/15/14 29/13/14 30/14/14 28/16/14 
f 29/13/15 31/11/15 32/12/15 30/14/15 
f 31/11/16 33/9/16 34/10/16 32/12/16 
f 33/9/17 35/7/17 36/8/17 34/10/17 
f 35/7/18 37/5/18 38/6/18 36/8/18 
f 37/5/19 39/2/19 40/3/19 38/6/19 
f 39/2/20 1/1/20 4/4/20 40/3/20 
f 40/3/21 4/4/21 41/23/21 42/24/21 
f 3/3/22 6/6/22 43/25/22 44/24/22 
f 6/6/3 8/8/3 45/26/3 43/25/3 
f 8/8/23 10/10/23 46/27/23 45/26/23 
f 10/10/24 12/12/24 47/28/24 46/27/24 
f 12/12/25 14/14/25 48/29/25 47/28/25 
f 14/14/26 16/16/26 49/30/26 48/29/26 
f 16/16/8 18/18/8 50/31/8 49/30/8 
f 18/18/27 20/20/27 51/32/27 50/31/27 
f 52/33/28 53/34/28 54/35/28 55/36/28 
f 24/20/29 26/18/29 56/31/29 57/32/29 
f 26/18/30 28/16/30 58/30/30 56/31/30 
f 28/16/31 30/14/31 59/29/31 58/30/31 
f 60/37/32 61/38/32 62/39/32 63/40/32 
f 34/10/33 36/8/33 64/26/33 65/27/33 
f 36/8/34 38/6/34 66/25/34 64/26/34 
f 38/6/35 40/3/35 42/24/35 66/25/35 
f 39/41/36 37/42/36 35/43/36 33/44/36 31/45/36 29/46/36 27/47/36 25/48/36 23/49/36 21/50/36 19/51/36 17/52/36 15/53/36 13/54/36 11/55/36 9/56/36 7/57/36 5/58/36 2/59/36 1/60/36 
f 42/24/21 41/23/21 67/61/21 68/62/21 
f 41/23/37 44/24/37 69/62/37 67/61/37 
f 44/24/22 43/25/22 70/63/22 69/62/22 
f 43/25/38 45/26/38 71/64/38 70/63/38 
f 45/26/23 46/27/23 72/65/23 71/64/23 
f 46/27/24 47/28/24 73/66/24 72/65/24 
f 47/28/25 48/29/25 74/67/25 73/66/25 
f 48/29/26 49/30/26 75/68/26 74/67/26 
f 49/30/39 50/31/39 76/69/39 75/68/39 
f 50/31/27 51/32/27 77/70/27 76/69/27 
f 51/36/40 78/71/40 79/72/40 77/73/40 
f 78/71/41 57/35/41 80/74/41 79/72/41 
f 57/32/29 56/31/29 81/69/29 80/70/29 
f 56/31/30 58/30/30 82/68/30 81/69/30 
f 58/30/31 59/29/31 83/67/31 82/68/31 
f 59/40/42 84/75/42 85/76/42 83/77/42 
f 84/75/43 65/39/43 86/78/43 85/76/43 
f 65/27/33 64/26/33 87/64/33 86/65/33 
f 64/26/34 66/25/34 88/63/34 87/64/34 
f 66/25/35 42/24/35 68/62/35 88/63/35 
f 68/62/20 67/61/20 89/79/20 90/80/20 
f 69/62/2 70/63/2 91/81/2 92/80/2 
f 70/63/38 71/64/38 93/82/38 91/81/38 
f 71/64/4 72/65/4 94/83/4 93/82/4 
f 72/65/5 73/66/5 95/84/5 94/83/5 
f 73/66/6 74/67/6 96/85/6 95/84/6 
f 74/67/7 75/68/7 97/86/7 96/85/7 
f 75/68/39 76/69/39 98/87/39 97/86/39 
f 76/69/9 77/70/9 99/88/9 98/87/9 
f 100/73/44 101/74/44 102/89/44 103/90/44 
f 80/70/12 81/69/12 104/87/12 105/88/12 
f 81/69/30 82/68/30 106/86/30 104/87/30 
f 82/68/14 83/67/14 107/85/14 106/86/14 
f 108/77/45 109/78/45 110/91/45 111/92/45 
f 86/65/17 87/64/17 112/82/17 113/83/17 
f 87/64/34 88/63/34 114/81/34 112/82/34 
f 88/63/19 68/62/19 90/80/19 114/81/19 
f 77/93/36 79/94/36 80/95/36 101/96/36 100/97/36 
f 80/98/32 105/99/32 102/100/32 101/101/32 
f 105/95/46 115/94/46 99/93/46 103/97/46 102/96/46 
f 99/99/47 77/98/47 100/101/47 103/100/47 
f 20/93/36 22/94/36 24/95/36 53/96/36 52/97/36 
f 24/102/45 57/103/45 54/104/45 53/105/45 
f 57/95/48 78/94/48 51/93/48 55/97/48 54/96/48 
f 51/103/49 20/102/49 52/105/49 55/104/49 
f 116/106/50 117/107/50 118/108/50 
f 116/106/51 118/108/51 119/109/51 
f 116/106/52 119/109/52 120/110/52 
f 116/106/53 120/110/53 121/111/53 
f 116/106/54 121/111/54 122/112/54 
f 116/106/55 122/112/55 123/113/55 
f 116/106/56 123/113/56 124/114/56 
f 116/106/57 124/114/57 125/115/57 
f 116/106/58 125/115/58 126/116/58 
f 116/106/59 126/116/59 127/117/59 
f 116/106/60 127/117/60 128/118/60 
f 116/106/61 128/118/61 129/119/61 
f 116/106/62 129/119/62 130/120/62 
f 116/106/63 130/120/63 131/121/63 
f 116/106/64 131/121/64 132/122/64 
f 116/106/65 132/122/65 133/123/65 
f 116/106/66 133/123/66 134/124/66 
f 116/106/67 134/124/67 135/125/67 
f 116/106/68 135/125/68 136/126/68 
f 116/106/69 136/126/69 117/107/69 
f 117/107/70 137/127/70 138/128/70 118/108/70 
f 118/108/71 138/128/71 139/129/71 119/109/71 
f 119/109/72 139/129/72 140/130/72 120/110/72 
f 120/110/73 140/130/73 141/131/73 121/111/73 
f 121/111/74 141/131/74 142/132/74 122/112/74 
f 122/112/75 142/132/75 143/133/75 123/113/75 
f 123/113/76 143/133/76 144/134/76 124/114/76 
f 124/114/77 144/134/77 145/135/77 125/115/77 
f 125/115/78 145/135/78 146/136/78 126/116/78 
f 126/116/79 146/136/79 147/137/79 127/117/79 
f 127/117/80 147/137/80 148/138/80 128/118/80 
f 128/118/81 148/138/81 149/139/81 129/119/81 
f 129/119/82 149/139/82 150/140/82 130/120/82 
f 130/120/83 150/140/83 151/141/83 131/121/83 
f 131/121/84 151/141/84 152/142/84 132/122/84 
f 132/122/85 152/142/85 153/143/85 133/123/85 
f 133/123/86 153/143/86 154/144/86 134/124/86 
f 134/124/87 154/144/87 155/145/87 135/125/87 
f 135/125/88 155/145/88 156/146/88 136/126/88 
f 136/126/89 156/146/89 137/127/89 117/107/89 
f 137/127/90 157/147/90 158/148/90 138/128/90 
f 138/128/91 158/148/91 159/149/91 139/129/91 
f 139/129/92 159/149/92 160/150/92 140/130/92 
f 140/130/93 160/150/93 161/151/93 141/131/93 
f 141/131/94 161/151/94 162/152/94 142/132/94 
f 142/132/95 162/152/95 163/153/95 143/133/95 
f 143/133/96 163/153/96 164/154/96 144/134/96 
f 144/134/97 164/154/97 165/155/97 145/135/97 
f 145/135/98 165/155/98 166/156/98 146/136/98 
f 146/136/99 166/156/99 167/157/99 147/137/99 
f 147/137/100 167/157/100 168/158/100 148/138/100 
f 148/138/101 168/158/101 169/159/101 149/139/101 
f 149/139/102 169/159/102 170/160/102 150/140/102 
f 150/140/103 170/160/103 171/161/103 151/141/103 
f 151/141/104 171/161/104 172/162/104 152/142/104 
f 152/142/105 172/162/105 173/163/105 153/143/105 
f 153/143/106 173/163/106 174/164/106 154/144/106 
f 154/144/107 174/164/107 175/165/107 155/145/107 
f 155/145/108 175/165/108 176/166/108 156/146/108 
f 156/146/109 176/166/109 157/147/109 137/127/109 
f 157/147/110 177/167/110 178/168/110 158/148/110 
f 158/148/111 178/168/111 179/169/111 159/149/111 
f 159/149/112 179/169/112 180/170/112 160/150/112 
f 160/150/113 180/170/113 181/171/113 161/151/113 
f 161/151/114 181/171/114 182/172/114 162/152/114 
f 162/152/115 182/172/115 183/173/115 163/153/115 
f 163/153/116 183/173/116 184/174/116 164/154/116 
f 164/154/117 184/174/117 185/175/117 165/155/117 
f 165/155/118 185/175/118 186/176/118 166/156/118 
f 166/156/119 186/176/119 187/177/119 167/157/119 
f 167/157/120 187/177/120 188/178/120 168/158/120 
f 168/158/121 188/178/121 189/179/121 169/159/121 
f 169/159/122 189/179/122 190/180/122 170/160/122 
f 170/160/123 190/180/123 191/181/123 171/161/123 
f 171/161/124 191/181/124 192/182/124 172/162/124 
f 172/162/125 192/182/125 193/183/125 173/163/125 
f 173/163/126 193/183/126 194/184/126 174/164/126 
f 174/164/127 194/184/127 195/185/127 175/165/127 
f 175/165/128 195/185/128 196/186/128 176/166/128 
f 176/166/129 196/186/129 177/167/129 157/147/129 
f 177/167/130 95/187/130 96/188/130 178/168/130 
f 178/168/131 96/188/131 97/189/131 179/169/131 
f 179/169/132 97/189/132 98/190/132 180/170/132 
f 180/170/133 98/190/133 99/191/133 181/171/133 
f 181/171/134 99/191/134 115/192/134 182/172/134 
f 182/172/135 115/192/135 105/193/135 183/173/135 
f 183/173/136 105/193/136 104/194/136 184/174/136 
f 184/174/137 104/194/137 106/195/137 185/175/137 
f 185/175/138 106/195/138 107/196/138 186/176/138 
f 186/176/139 107/196/139 197/197/139 187/177/139 
f 187/177/140 197/197/140 113/198/140 188/178/140 
f 188/178/141 113/198/141 112/199/141 189/179/141 
f 189/179/142 112/199/142 114/200/142 190/180/142 
f 190/180/143 114/200/143 90/201/143 191/181/143 
f 191/181/144 90/201/144 89/202/144 192/182/144 
f 192/182/145 89/202/145 92/203/145 193/183/145 
f 193/183/146 92/203/146 91/204/146 194/184/146 
f 194/184/147 91/204/147 93/205/147 195/185/147 
f 195/185/148 93/205/148 94/206/148 196/186/148 
f 196/186/149 94/206/149 95/187/149 177/167/149 
f 67/61/1 69/62/1 92/80/1 89/79/1 
f 4/4/37 3/3/37 44/24/37 41/23/37 
f 30/207/36 32/208/36 34/209/36 61/210/36 60/211/36 
f 34/212/150 65/213/150 62/214/150 61/215/150 
f 65/209/48 84/208/48 59/207/48 63/211/48 62/210/48 
f 59/213/44 30/212/44 60/215/44 63/214/44 
f 83/207/36 85/208/36 86/209/36 109/210/36 108/211/36 
f 86/216/151 113/217/151 110/218/151 109/219/151 
f 113/209/48 197/208/48 107/207/48 111/211/48 110/210/48 
f 107/217/152 83/216/152 108/219/152 111/218/152 
# 173 polygons - 20 triangles

