# 3ds Max Wavefront OBJ Exporter v0.97b - (c)2007 guruware
# ì¬‚µ‚½ƒtƒ@ƒCƒ‹ : 11.11.2019 13:51:50

mtllib Guardrail 4.mtl

#
# object Cylinder001
#

v  9.5169 0.0000 3.0708
v  10.0000 0.0000 -0.0204
v  10.0000 35.0000 -0.0204
v  9.5169 35.0000 3.0708
v  9.5042 0.0000 -3.1096
v  9.5042 35.0000 -3.1096
v  8.0782 0.0000 -5.8943
v  8.0782 35.0000 -5.8943
v  5.8613 0.0000 -8.1021
v  5.8613 35.0000 -8.1021
v  3.0708 0.0000 -9.5169
v  3.0708 35.0000 -9.5169
v  -0.0204 0.0000 -10.0000
v  -0.0204 35.0000 -10.0000
v  -3.1096 0.0000 -9.5042
v  -3.1096 35.0000 -9.5042
v  -5.8944 0.0000 -8.0782
v  -5.8944 35.0000 -8.0782
v  -8.1021 0.0000 -5.8613
v  -8.1021 35.0000 -5.8613
v  -9.5169 0.0000 -3.0708
v  -9.5149 35.0000 -3.0701
v  -10.0000 0.0000 0.0204
v  -10.0000 35.0000 0.0204
v  -9.5042 0.0000 3.1096
v  -9.5042 35.0000 3.1096
v  -8.0782 0.0000 5.8944
v  -8.0782 35.0000 5.8944
v  -5.8613 0.0000 8.1022
v  -5.8613 35.0000 8.1022
v  -3.0707 0.0000 9.5169
v  -3.0707 35.0000 9.5169
v  0.0204 0.0000 10.0000
v  0.0204 35.0000 10.0000
v  3.1096 0.0000 9.5042
v  3.1096 35.0000 9.5042
v  5.8944 0.0000 8.0782
v  5.8944 35.0000 8.0782
v  8.1022 0.0000 5.8613
v  8.1022 35.0000 5.8613
v  37.1185 35.0000 15.2239
v  39.0163 35.0000 9.3421
v  39.0163 50.0000 9.3421
v  37.1185 50.0000 15.2239
v  9.5042 50.0000 -3.1096
v  10.0000 50.0000 -0.0204
v  8.0782 50.0000 -5.8943
v  5.8613 50.0000 -8.1021
v  3.0708 50.0000 -9.5169
v  -0.0204 50.0000 -10.0000
v  -3.1096 50.0000 -9.5042
v  -5.8944 50.0000 -8.0782
v  -8.1021 50.0000 -5.8613
v  -38.9765 35.0000 9.5056
v  -37.0546 35.0000 15.3796
v  -37.0546 50.0000 15.3796
v  -38.9765 50.0000 9.5056
v  -5.8613 50.0000 8.1022
v  -8.0782 50.0000 5.8944
v  -3.0707 50.0000 9.5169
v  0.0204 50.0000 10.0000
v  3.1096 50.0000 9.5042
v  5.8944 50.0000 8.0782
v  8.1022 50.0000 5.8613
v  9.5169 50.0000 3.0708
v  9.5169 65.0000 3.0708
v  8.1022 65.0000 5.8613
v  10.0000 65.0000 -0.0204
v  9.5042 65.0000 -3.1096
v  8.0782 65.0000 -5.8944
v  5.8613 65.0000 -8.1021
v  3.0708 65.0000 -9.5169
v  -0.0204 65.0000 -10.0000
v  -3.1096 65.0000 -9.5042
v  -5.8944 65.0000 -8.0782
v  -8.1021 65.0000 -5.8613
v  -9.5188 50.0000 -3.0714
v  -9.5188 65.0000 -3.0714
v  -10.0000 50.0000 0.0204
v  -10.0000 65.0000 0.0204
v  -9.5042 50.0000 3.1096
v  -9.5042 65.0000 3.1096
v  -8.0782 65.0000 5.8944
v  -5.8613 65.0000 8.1022
v  -3.0707 65.0000 9.5169
v  0.0204 65.0000 10.0000
v  3.1096 65.0000 9.5042
v  5.8944 65.0000 8.0782
v  37.1185 65.0000 15.2239
v  39.0163 65.0000 9.3421
v  39.0163 80.0000 9.3421
v  37.1185 80.0000 15.2239
v  9.5042 80.0000 -3.1096
v  10.0000 80.0000 -0.0204
v  8.0782 80.0000 -5.8944
v  5.8613 80.0000 -8.1021
v  3.0708 80.0000 -9.5169
v  -0.0204 80.0000 -10.0000
v  -3.1096 80.0000 -9.5042
v  -5.8944 80.0000 -8.0782
v  -8.1021 80.0000 -5.8613
v  -9.5149 80.0000 -3.0701
v  -38.9765 65.0000 9.5056
v  -37.0546 65.0000 15.3796
v  -37.0546 80.0000 15.3796
v  -38.9765 80.0000 9.5056
v  -5.8613 80.0000 8.1022
v  -8.0782 80.0000 5.8944
v  -3.0707 80.0000 9.5169
v  0.0204 80.0000 10.0000
v  3.1096 80.0000 9.5042
v  5.8944 80.0000 8.0782
v  8.1022 80.0000 5.8613
v  9.5169 80.0000 3.0707
v  0.0000 90.0000 -0.0000
v  0.9489 89.5106 -2.9409
v  -0.0063 89.5106 -3.0902
v  -0.9609 89.5106 -2.9370
v  -1.8215 89.5106 -2.4963
v  -2.5037 89.5106 -1.8113
v  -2.9409 89.5106 -0.9489
v  -3.0902 89.5106 0.0063
v  -2.9370 89.5106 0.9609
v  -2.4963 89.5106 1.8215
v  -1.8112 89.5106 2.5037
v  -0.9489 89.5106 2.9409
v  0.0063 89.5106 3.0902
v  0.9609 89.5106 2.9370
v  1.8215 89.5106 2.4963
v  2.5037 89.5106 1.8112
v  2.9409 89.5106 0.9489
v  3.0902 89.5106 -0.0063
v  2.9370 89.5106 -0.9609
v  2.4963 89.5106 -1.8215
v  1.8112 89.5106 -2.5037
v  1.8049 88.0902 -5.5939
v  -0.0120 88.0902 -5.8778
v  -1.8278 88.0902 -5.5865
v  -3.4646 88.0902 -4.7482
v  -4.7623 88.0902 -3.4452
v  -5.5939 88.0902 -1.8049
v  -5.8778 88.0902 0.0120
v  -5.5865 88.0902 1.8278
v  -4.7482 88.0902 3.4646
v  -3.4452 88.0902 4.7623
v  -1.8049 88.0902 5.5939
v  0.0120 88.0902 5.8778
v  1.8278 88.0902 5.5864
v  3.4646 88.0902 4.7482
v  4.7623 88.0902 3.4452
v  5.5939 88.0902 1.8049
v  5.8778 88.0902 -0.0120
v  5.5864 88.0902 -1.8278
v  4.7482 88.0902 -3.4646
v  3.4452 88.0902 -4.7623
v  2.4843 85.8779 -7.6993
v  -0.0165 85.8779 -8.0902
v  -2.5157 85.8779 -7.6891
v  -4.7686 85.8779 -6.5354
v  -6.5548 85.8779 -4.7419
v  -7.6993 85.8779 -2.4843
v  -8.0902 85.8779 0.0165
v  -7.6891 85.8779 2.5157
v  -6.5354 85.8779 4.7686
v  -4.7419 85.8779 6.5548
v  -2.4843 85.8779 7.6993
v  0.0165 85.8779 8.0902
v  2.5157 85.8779 7.6891
v  4.7686 85.8779 6.5354
v  6.5548 85.8779 4.7419
v  7.6993 85.8779 2.4843
v  8.0902 85.8779 -0.0165
v  7.6891 85.8779 -2.5157
v  6.5354 85.8779 -4.7686
v  4.7419 85.8779 -6.5548
v  2.9205 83.0902 -9.0511
v  -0.0194 83.0902 -9.5105
v  -2.9574 83.0902 -9.0391
v  -5.6059 83.0902 -7.6828
v  -7.7056 83.0902 -5.5745
v  -9.0511 83.0902 -2.9205
v  -9.5105 83.0902 0.0194
v  -9.0391 83.0902 2.9574
v  -7.6828 83.0902 5.6059
v  -5.5745 83.0902 7.7056
v  -2.9205 83.0902 9.0511
v  0.0194 83.0902 9.5105
v  2.9574 83.0902 9.0391
v  5.6059 83.0902 7.6828
v  7.7056 83.0902 5.5744
v  9.0511 83.0902 2.9204
v  9.5105 83.0902 -0.0194
v  9.0391 83.0902 -2.9574
v  7.6828 83.0902 -5.6059
v  5.5744 83.0902 -7.7056
v  -10.0000 80.0000 0.0204
v  -9.5042 80.0000 3.1096
# 197 vertices

vn 0.9880 -0.0000 0.1544
vn 0.9874 -0.0000 -0.1584
vn 0.8901 0.0000 -0.4558
vn 0.7057 0.0000 -0.7085
vn 0.4522 0.0000 -0.8919
vn 0.1544 0.0000 -0.9880
vn -0.1584 0.0000 -0.9874
vn -0.4558 0.0000 -0.8901
vn -0.7085 -0.0000 -0.7057
vn -0.8921 0.0000 -0.4519
vn -0.9880 0.0000 -0.1547
vn -0.9874 0.0000 0.1585
vn -0.8901 -0.0000 0.4558
vn -0.7057 -0.0000 0.7085
vn -0.4522 -0.0000 0.8919
vn -0.1544 -0.0000 0.9880
vn 0.1585 -0.0000 0.9874
vn 0.4558 -0.0000 0.8901
vn 0.7085 0.0000 0.7057
vn 0.8919 0.0000 0.4522
vn 0.9517 0.0000 0.3071
vn 0.9874 0.0000 -0.1584
vn 0.7057 -0.0000 -0.7085
vn 0.4522 -0.0000 -0.8919
vn 0.1544 -0.0000 -0.9880
vn -0.1584 -0.0000 -0.9874
vn -0.7085 0.0000 -0.7057
vn -0.9504 0.0000 0.3110
vn -0.7057 0.0000 0.7085
vn -0.4522 0.0000 0.8919
vn -0.1544 0.0000 0.9880
vn 0.1585 0.0000 0.9874
vn 0.4558 0.0000 0.8901
vn 0.7085 -0.0000 0.7057
vn 0.0000 -1.0000 -0.0000
vn 0.8919 -0.0000 0.4522
vn 0.9880 0.0000 0.1544
vn 0.8901 -0.0000 -0.4558
vn -0.4558 -0.0000 -0.8901
vn -0.8916 0.0000 -0.4527
vn -0.9881 -0.0000 -0.1538
vn -0.9874 -0.0000 0.1585
vn -0.8901 0.0000 0.4558
vn 0.9517 -0.0000 0.3071
vn -0.8919 0.0001 -0.4522
vn 0.3071 -0.0000 -0.9517
vn 0.0000 1.0000 -0.0000
vn -0.3071 0.0000 0.9517
vn -0.8919 -0.0001 -0.4522
vn 0.3071 0.0000 -0.9517
vn -0.3071 -0.0000 0.9517
vn 0.0244 0.9874 -0.1564
vn -0.0251 0.9874 -0.1563
vn -0.0722 0.9874 -0.1409
vn -0.1122 0.9874 -0.1117
vn -0.1412 0.9874 -0.0716
vn -0.1564 0.9874 -0.0244
vn -0.1563 0.9874 0.0251
vn -0.1409 0.9874 0.0722
vn -0.1117 0.9874 0.1122
vn -0.0716 0.9874 0.1412
vn -0.0244 0.9874 0.1564
vn 0.0251 0.9874 0.1563
vn 0.0722 0.9874 0.1409
vn 0.1122 0.9874 0.1117
vn 0.1412 0.9874 0.0716
vn 0.1564 0.9874 0.0244
vn 0.1563 0.9874 -0.0251
vn 0.1409 0.9874 -0.0722
vn 0.1117 0.9874 -0.1122
vn 0.0716 0.9874 -0.1412
vn 0.0708 0.8887 -0.4530
vn -0.0726 0.8887 -0.4527
vn -0.2090 0.8887 -0.4081
vn -0.3248 0.8887 -0.3235
vn -0.4089 0.8887 -0.2073
vn -0.4530 0.8887 -0.0708
vn -0.4527 0.8887 0.0726
vn -0.4081 0.8887 0.2090
vn -0.3235 0.8887 0.3248
vn -0.2073 0.8887 0.4089
vn -0.0708 0.8887 0.4530
vn 0.0726 0.8887 0.4527
vn 0.2090 0.8887 0.4081
vn 0.3248 0.8887 0.3235
vn 0.4089 0.8887 0.2073
vn 0.4530 0.8887 0.0708
vn 0.4527 0.8887 -0.0726
vn 0.4081 0.8887 -0.2090
vn 0.3235 0.8887 -0.3248
vn 0.2073 0.8887 -0.4089
vn 0.1099 0.7027 -0.7029
vn -0.1127 0.7027 -0.7025
vn -0.3243 0.7027 -0.6333
vn -0.5041 0.7027 -0.5021
vn -0.6346 0.7027 -0.3217
vn -0.7029 0.7027 -0.1099
vn -0.7025 0.7027 0.1127
vn -0.6333 0.7027 0.3243
vn -0.5021 0.7027 0.5041
vn -0.3217 0.7027 0.6346
vn -0.1099 0.7027 0.7029
vn 0.1127 0.7027 0.7025
vn 0.3243 0.7027 0.6333
vn 0.5041 0.7027 0.5021
vn 0.6346 0.7027 0.3217
vn 0.7029 0.7027 0.1099
vn 0.7025 0.7027 -0.1127
vn 0.6333 0.7027 -0.3243
vn 0.5021 0.7027 -0.5041
vn 0.3217 0.7027 -0.6346
vn 0.1379 0.4495 -0.8825
vn -0.1415 0.4495 -0.8820
vn -0.4072 0.4495 -0.7951
vn -0.6329 0.4495 -0.6303
vn -0.7967 0.4495 -0.4039
vn -0.8825 0.4495 -0.1379
vn -0.8820 0.4495 0.1415
vn -0.7951 0.4495 0.4072
vn -0.6303 0.4495 0.6329
vn -0.4039 0.4495 0.7967
vn -0.1379 0.4495 0.8825
vn 0.1415 0.4495 0.8820
vn 0.4072 0.4495 0.7951
vn 0.6329 0.4495 0.6303
vn 0.7967 0.4495 0.4039
vn 0.8825 0.4495 0.1379
vn 0.8820 0.4495 -0.1415
vn 0.7951 0.4495 -0.4072
vn 0.6303 0.4495 -0.6329
vn 0.4039 0.4495 -0.7967
vn 0.1526 0.1546 -0.9761
vn -0.1565 0.1546 -0.9755
vn -0.4503 0.1546 -0.8794
vn -0.7000 0.1546 -0.6972
vn -0.8814 0.1542 -0.4465
vn -0.9761 0.1542 -0.1529
vn -0.9755 0.1546 0.1565
vn -0.8794 0.1546 0.4503
vn -0.6972 0.1546 0.7000
vn -0.4467 0.1546 0.8812
vn -0.1526 0.1546 0.9761
vn 0.1565 0.1546 0.9755
vn 0.4503 0.1546 0.8794
vn 0.7000 0.1546 0.6972
vn 0.8812 0.1546 0.4467
vn 0.9761 0.1546 0.1526
vn 0.9755 0.1546 -0.1565
vn 0.8794 0.1546 -0.4503
vn 0.6972 0.1546 -0.7000
vn 0.4467 0.1546 -0.8812
vn 0.3111 0.0000 0.9504
vn -0.3111 0.0000 -0.9504
vn 0.3111 -0.0000 0.9504
vn -0.9880 0.0001 -0.1544
vn -0.9880 -0.0001 -0.1544
# 156 vertex normals

vt 0.1406 0.6856 0.0000
vt 0.1238 0.6856 0.0000
vt 0.1238 0.7445 0.0000
vt 0.1406 0.7445 0.0000
vt 0.1069 0.6856 0.0000
vt 0.1069 0.7445 0.0000
vt 0.0916 0.6856 0.0000
vt 0.0916 0.7445 0.0000
vt 0.0796 0.6856 0.0000
vt 0.0796 0.7445 0.0000
vt 0.0718 0.6856 0.0000
vt 0.0718 0.7445 0.0000
vt 0.0692 0.6856 0.0000
vt 0.0692 0.7445 0.0000
vt 0.0719 0.6856 0.0000
vt 0.0719 0.7445 0.0000
vt 0.0797 0.6856 0.0000
vt 0.0797 0.7445 0.0000
vt 0.0918 0.6856 0.0000
vt 0.0918 0.7445 0.0000
vt 0.1071 0.6856 0.0000
vt 0.1071 0.7445 0.0000
vt 0.1240 0.6856 0.0000
vt 0.1240 0.7445 0.0000
vt 0.1409 0.6856 0.0000
vt 0.1409 0.7445 0.0000
vt 0.1561 0.6856 0.0000
vt 0.1561 0.7445 0.0000
vt 0.1682 0.6856 0.0000
vt 0.1682 0.7445 0.0000
vt 0.1759 0.6856 0.0000
vt 0.1759 0.7445 0.0000
vt 0.1785 0.6856 0.0000
vt 0.1785 0.7445 0.0000
vt 0.1758 0.6856 0.0000
vt 0.1758 0.7445 0.0000
vt 0.1680 0.6856 0.0000
vt 0.1680 0.7445 0.0000
vt 0.1559 0.6856 0.0000
vt 0.1559 0.7445 0.0000
vt 0.2776 0.5538 0.0000
vt 0.2229 0.5538 0.0000
vt 0.2229 0.5736 0.0000
vt 0.2776 0.5736 0.0000
vt 0.1069 0.7697 0.0000
vt 0.1238 0.7697 0.0000
vt 0.0916 0.7697 0.0000
vt 0.0796 0.7697 0.0000
vt 0.0718 0.7697 0.0000
vt 0.0692 0.7697 0.0000
vt 0.0719 0.7697 0.0000
vt 0.0797 0.7697 0.0000
vt 0.0918 0.7697 0.0000
vt 0.2244 0.5538 0.0000
vt 0.2791 0.5538 0.0000
vt 0.2791 0.5736 0.0000
vt 0.2244 0.5736 0.0000
vt 0.1682 0.7697 0.0000
vt 0.1561 0.7697 0.0000
vt 0.1759 0.7697 0.0000
vt 0.1785 0.7697 0.0000
vt 0.1758 0.7697 0.0000
vt 0.1680 0.7697 0.0000
vt 0.1559 0.7697 0.0000
vt 0.6505 0.8101 0.0000
vt 0.6428 0.8023 0.0000
vt 0.6331 0.7973 0.0000
vt 0.6223 0.7956 0.0000
vt 0.6115 0.7973 0.0000
vt 0.6018 0.8022 0.0000
vt 0.5941 0.8099 0.0000
vt 0.5891 0.8197 0.0000
vt 0.5873 0.8304 0.0000
vt 0.5890 0.8412 0.0000
vt 0.5940 0.8510 0.0000
vt 0.6017 0.8587 0.0000
vt 0.6114 0.8637 0.0000
vt 0.6222 0.8654 0.0000
vt 0.6330 0.8637 0.0000
vt 0.6427 0.8588 0.0000
vt 0.6504 0.8511 0.0000
vt 0.6554 0.8414 0.0000
vt 0.6571 0.8306 0.0000
vt 0.6555 0.8198 0.0000
vt 0.1406 0.7697 0.0000
vt 0.1406 0.7950 0.0000
vt 0.1559 0.7950 0.0000
vt 0.1238 0.7950 0.0000
vt 0.1069 0.7950 0.0000
vt 0.0916 0.7950 0.0000
vt 0.0796 0.7950 0.0000
vt 0.0718 0.7950 0.0000
vt 0.0692 0.7950 0.0000
vt 0.0719 0.7950 0.0000
vt 0.0797 0.7950 0.0000
vt 0.0918 0.7950 0.0000
vt 0.1071 0.7697 0.0000
vt 0.1071 0.7950 0.0000
vt 0.1240 0.7697 0.0000
vt 0.1240 0.7950 0.0000
vt 0.1409 0.7697 0.0000
vt 0.1409 0.7950 0.0000
vt 0.1561 0.7950 0.0000
vt 0.1682 0.7950 0.0000
vt 0.1759 0.7950 0.0000
vt 0.1785 0.7950 0.0000
vt 0.1758 0.7950 0.0000
vt 0.1680 0.7950 0.0000
vt 0.2776 0.5935 0.0000
vt 0.2229 0.5935 0.0000
vt 0.2229 0.6134 0.0000
vt 0.2776 0.6134 0.0000
vt 0.3705 0.8751 0.0000
vt 0.3649 0.8751 0.0000
vt 0.3649 0.9245 0.0000
vt 0.3705 0.9245 0.0000
vt 0.3598 0.8751 0.0000
vt 0.3598 0.9245 0.0000
vt 0.3558 0.8751 0.0000
vt 0.3558 0.9245 0.0000
vt 0.3533 0.8751 0.0000
vt 0.3533 0.9245 0.0000
vt 0.3524 0.8751 0.0000
vt 0.3524 0.9245 0.0000
vt 0.3559 0.8751 0.0000
vt 0.3559 0.9245 0.0000
vt 0.3599 0.8751 0.0000
vt 0.3599 0.9245 0.0000
vt 0.2244 0.5935 0.0000
vt 0.2791 0.5935 0.0000
vt 0.2791 0.6134 0.0000
vt 0.2244 0.6134 0.0000
vt 0.3812 0.8751 0.0000
vt 0.3851 0.8751 0.0000
vt 0.3851 0.9245 0.0000
vt 0.3812 0.9245 0.0000
vt 0.3877 0.8751 0.0000
vt 0.3877 0.9245 0.0000
vt 0.3886 0.8751 0.0000
vt 0.3886 0.9245 0.0000
vt 0.3811 0.8751 0.0000
vt 0.3811 0.9245 0.0000
vt 0.4357 0.7573 0.0000
vt 0.4372 0.7727 0.0000
vt 0.4377 0.7898 0.0000
vt 0.4694 0.7381 0.0000
vt 0.4673 0.7056 0.0000
vt 0.2205 0.7673 0.0000
vt 0.2205 0.8074 0.0000
vt 0.2936 0.8074 0.0000
vt 0.2936 0.7673 0.0000
vt 0.2664 0.8074 0.0000
vt 0.2664 0.7673 0.0000
vt 0.3395 0.7673 0.0000
vt 0.3395 0.8074 0.0000
vt 0.2205 0.6872 0.0000
vt 0.2205 0.7272 0.0000
vt 0.2936 0.7272 0.0000
vt 0.2936 0.6872 0.0000
vt 0.2664 0.7272 0.0000
vt 0.2664 0.6872 0.0000
vt 0.3395 0.6872 0.0000
vt 0.3395 0.7272 0.0000
vt 0.8751 0.8670 0.0000
vt 0.8833 0.8926 0.0000
vt 0.8750 0.8939 0.0000
vt 0.8667 0.8926 0.0000
vt 0.8592 0.8887 0.0000
vt 0.8533 0.8828 0.0000
vt 0.8495 0.8753 0.0000
vt 0.8482 0.8670 0.0000
vt 0.8495 0.8587 0.0000
vt 0.8534 0.8512 0.0000
vt 0.8593 0.8453 0.0000
vt 0.8668 0.8415 0.0000
vt 0.8751 0.8402 0.0000
vt 0.8834 0.8415 0.0000
vt 0.8909 0.8453 0.0000
vt 0.8968 0.8513 0.0000
vt 0.9006 0.8588 0.0000
vt 0.9019 0.8671 0.0000
vt 0.9006 0.8754 0.0000
vt 0.8968 0.8829 0.0000
vt 0.8908 0.8888 0.0000
vt 0.8908 0.9156 0.0000
vt 0.8750 0.9181 0.0000
vt 0.8592 0.9156 0.0000
vt 0.8450 0.9083 0.0000
vt 0.8337 0.8970 0.0000
vt 0.8265 0.8827 0.0000
vt 0.8240 0.8669 0.0000
vt 0.8265 0.8511 0.0000
vt 0.8338 0.8369 0.0000
vt 0.8451 0.8256 0.0000
vt 0.8594 0.8184 0.0000
vt 0.8752 0.8159 0.0000
vt 0.8909 0.8185 0.0000
vt 0.9052 0.8258 0.0000
vt 0.9165 0.8371 0.0000
vt 0.9237 0.8513 0.0000
vt 0.9261 0.8671 0.0000
vt 0.9236 0.8829 0.0000
vt 0.9163 0.8971 0.0000
vt 0.9050 0.9084 0.0000
vt 0.8967 0.9339 0.0000
vt 0.8749 0.9373 0.0000
vt 0.8532 0.9339 0.0000
vt 0.8336 0.9238 0.0000
vt 0.8181 0.9082 0.0000
vt 0.8082 0.8886 0.0000
vt 0.8048 0.8669 0.0000
vt 0.8082 0.8452 0.0000
vt 0.8183 0.8256 0.0000
vt 0.8339 0.8101 0.0000
vt 0.8535 0.8001 0.0000
vt 0.8752 0.7967 0.0000
vt 0.8969 0.8002 0.0000
vt 0.9165 0.8102 0.0000
vt 0.9320 0.8258 0.0000
vt 0.9420 0.8454 0.0000
vt 0.9454 0.8672 0.0000
vt 0.9419 0.8889 0.0000
vt 0.9319 0.9085 0.0000
vt 0.9163 0.9240 0.0000
vt 0.9004 0.9457 0.0000
vt 0.8749 0.9497 0.0000
vt 0.8494 0.9456 0.0000
vt 0.8263 0.9338 0.0000
vt 0.8081 0.9155 0.0000
vt 0.7964 0.8924 0.0000
vt 0.7924 0.8669 0.0000
vt 0.7965 0.8413 0.0000
vt 0.8083 0.8183 0.0000
vt 0.8266 0.8001 0.0000
vt 0.8497 0.7884 0.0000
vt 0.8752 0.7844 0.0000
vt 0.9008 0.7885 0.0000
vt 0.9238 0.8003 0.0000
vt 0.9420 0.8186 0.0000
vt 0.9537 0.8416 0.0000
vt 0.9577 0.8672 0.0000
vt 0.9536 0.8927 0.0000
vt 0.9418 0.9157 0.0000
vt 0.9235 0.9340 0.0000
vt 0.9018 0.9497 0.0000
vt 0.8749 0.9539 0.0000
vt 0.8480 0.9496 0.0000
vt 0.8238 0.9372 0.0000
vt 0.8047 0.9180 0.0000
vt 0.7924 0.8937 0.0000
vt 0.7882 0.8669 0.0000
vt 0.7925 0.8400 0.0000
vt 0.8049 0.8158 0.0000
vt 0.8241 0.7966 0.0000
vt 0.8484 0.7843 0.0000
vt 0.8752 0.7801 0.0000
vt 0.9021 0.7844 0.0000
vt 0.9263 0.7968 0.0000
vt 0.9455 0.8161 0.0000
vt 0.9578 0.8403 0.0000
vt 0.9620 0.8672 0.0000
vt 0.9577 0.8941 0.0000
vt 0.9453 0.9183 0.0000
vt 0.9260 0.9374 0.0000
vt 0.4159 0.7895 0.0000
vt 0.4165 0.7725 0.0000
vt 0.4180 0.7571 0.0000
vt 0.3865 0.7048 0.0000
vt 0.3844 0.7372 0.0000
vt 0.2666 0.6872 0.0000
vt 0.2666 0.7272 0.0000
vt 0.3407 0.7272 0.0000
vt 0.3407 0.6872 0.0000
vt 0.2208 0.7272 0.0000
vt 0.2208 0.6872 0.0000
vt 0.2948 0.6872 0.0000
vt 0.2948 0.7272 0.0000
vt 0.2666 0.7673 0.0000
vt 0.2666 0.8074 0.0000
vt 0.3407 0.8074 0.0000
vt 0.3407 0.7673 0.0000
vt 0.2208 0.8074 0.0000
vt 0.2208 0.7673 0.0000
vt 0.2948 0.7673 0.0000
vt 0.2948 0.8074 0.0000
# 285 texture coords

g Cylinder001
usemtl Material__2
s off
f 1/1/1 2/2/1 3/3/1 4/4/1 
f 2/2/2 5/5/2 6/6/2 3/3/2 
f 5/5/3 7/7/3 8/8/3 6/6/3 
f 7/7/4 9/9/4 10/10/4 8/8/4 
f 9/9/5 11/11/5 12/12/5 10/10/5 
f 11/11/6 13/13/6 14/14/6 12/12/6 
f 13/13/7 15/15/7 16/16/7 14/14/7 
f 15/15/8 17/17/8 18/18/8 16/16/8 
f 17/17/9 19/19/9 20/20/9 18/18/9 
f 19/19/10 21/21/10 22/22/10 20/20/10 
f 21/21/11 23/23/11 24/24/11 22/22/11 
f 23/23/12 25/25/12 26/26/12 24/24/12 
f 25/25/13 27/27/13 28/28/13 26/26/13 
f 27/27/14 29/29/14 30/30/14 28/28/14 
f 29/29/15 31/31/15 32/32/15 30/30/15 
f 31/31/16 33/33/16 34/34/16 32/32/16 
f 33/33/17 35/35/17 36/36/17 34/34/17 
f 35/35/18 37/37/18 38/38/18 36/36/18 
f 37/37/19 39/39/19 40/40/19 38/38/19 
f 39/39/20 1/1/20 4/4/20 40/40/20 
f 41/41/21 42/42/21 43/43/21 44/44/21 
f 3/3/22 6/6/22 45/45/22 46/46/22 
f 6/6/3 8/8/3 47/47/3 45/45/3 
f 8/8/23 10/10/23 48/48/23 47/47/23 
f 10/10/24 12/12/24 49/49/24 48/48/24 
f 12/12/25 14/14/25 50/50/25 49/49/25 
f 14/14/26 16/16/26 51/51/26 50/50/26 
f 16/16/8 18/18/8 52/52/8 51/51/8 
f 18/18/27 20/20/27 53/53/27 52/52/27 
f 54/54/28 55/55/28 56/56/28 57/57/28 
f 28/28/29 30/30/29 58/58/29 59/59/29 
f 30/30/30 32/32/30 60/60/30 58/58/30 
f 32/32/31 34/34/31 61/61/31 60/60/31 
f 34/34/32 36/36/32 62/62/32 61/61/32 
f 36/36/33 38/38/33 63/63/33 62/62/33 
f 38/38/34 40/40/34 64/64/34 63/63/34 
f 39/65/35 37/66/35 35/67/35 33/68/35 31/69/35 29/70/35 27/71/35 25/72/35 23/73/35 21/74/35 19/75/35 17/76/35 15/77/35 13/78/35 11/79/35 9/80/35 7/81/35 5/82/35 2/83/35 1/84/35 
f 64/64/36 65/85/36 66/86/36 67/87/36 
f 65/85/37 46/46/37 68/88/37 66/86/37 
f 46/46/22 45/45/22 69/89/22 68/88/22 
f 45/45/38 47/47/38 70/90/38 69/89/38 
f 47/47/23 48/48/23 71/91/23 70/90/23 
f 48/48/24 49/49/24 72/92/24 71/91/24 
f 49/49/25 50/50/25 73/93/25 72/92/25 
f 50/50/26 51/51/26 74/94/26 73/93/26 
f 51/51/39 52/52/39 75/95/39 74/94/39 
f 52/52/27 53/53/27 76/96/27 75/95/27 
f 53/53/40 77/97/40 78/98/40 76/96/40 
f 77/97/41 79/99/41 80/100/41 78/98/41 
f 79/99/42 81/101/42 82/102/42 80/100/42 
f 81/101/43 59/59/43 83/103/43 82/102/43 
f 59/59/29 58/58/29 84/104/29 83/103/29 
f 58/58/30 60/60/30 85/105/30 84/104/30 
f 60/60/31 61/61/31 86/106/31 85/105/31 
f 61/61/32 62/62/32 87/107/32 86/106/32 
f 62/62/33 63/63/33 88/108/33 87/107/33 
f 63/63/34 64/64/34 67/87/34 88/108/34 
f 89/109/44 90/110/44 91/111/44 92/112/44 
f 68/113/2 69/114/2 93/115/2 94/116/2 
f 69/114/38 70/117/38 95/118/38 93/115/38 
f 70/117/4 71/119/4 96/120/4 95/118/4 
f 71/119/5 72/121/5 97/122/5 96/120/5 
f 72/121/6 73/123/6 98/124/6 97/122/6 
f 73/123/7 74/121/7 99/122/7 98/124/7 
f 74/121/39 75/125/39 100/126/39 99/122/39 
f 75/125/9 76/127/9 101/128/9 100/126/9 
f 76/127/45 78/114/45 102/115/45 101/128/45 
f 103/129/28 104/130/28 105/131/28 106/132/28 
f 83/133/14 84/134/14 107/135/14 108/136/14 
f 84/134/15 85/137/15 109/138/15 107/135/15 
f 85/137/16 86/139/16 110/140/16 109/138/16 
f 86/139/17 87/137/17 111/138/17 110/140/17 
f 87/137/33 88/134/33 112/135/33 111/138/33 
f 88/134/19 67/141/19 113/142/19 112/135/19 
f 67/143/35 66/144/35 68/145/35 90/146/35 89/147/35 
f 68/148/46 94/149/46 91/150/46 90/151/46 
f 94/145/47 114/144/47 113/143/47 92/147/47 91/146/47 
f 113/152/48 67/153/48 89/154/48 92/155/48 
f 20/20/49 22/22/49 77/97/49 53/53/49 
f 3/156/50 46/157/50 43/158/50 42/159/50 
f 46/145/47 65/144/47 64/143/47 44/147/47 43/146/47 
f 64/160/51 40/161/51 41/162/51 44/163/51 
f 40/143/35 4/144/35 3/145/35 42/146/35 41/147/35 
f 115/164/52 116/165/52 117/166/52 
f 115/164/53 117/166/53 118/167/53 
f 115/164/54 118/167/54 119/168/54 
f 115/164/55 119/168/55 120/169/55 
f 115/164/56 120/169/56 121/170/56 
f 115/164/57 121/170/57 122/171/57 
f 115/164/58 122/171/58 123/172/58 
f 115/164/59 123/172/59 124/173/59 
f 115/164/60 124/173/60 125/174/60 
f 115/164/61 125/174/61 126/175/61 
f 115/164/62 126/175/62 127/176/62 
f 115/164/63 127/176/63 128/177/63 
f 115/164/64 128/177/64 129/178/64 
f 115/164/65 129/178/65 130/179/65 
f 115/164/66 130/179/66 131/180/66 
f 115/164/67 131/180/67 132/181/67 
f 115/164/68 132/181/68 133/182/68 
f 115/164/69 133/182/69 134/183/69 
f 115/164/70 134/183/70 135/184/70 
f 115/164/71 135/184/71 116/165/71 
f 116/165/72 136/185/72 137/186/72 117/166/72 
f 117/166/73 137/186/73 138/187/73 118/167/73 
f 118/167/74 138/187/74 139/188/74 119/168/74 
f 119/168/75 139/188/75 140/189/75 120/169/75 
f 120/169/76 140/189/76 141/190/76 121/170/76 
f 121/170/77 141/190/77 142/191/77 122/171/77 
f 122/171/78 142/191/78 143/192/78 123/172/78 
f 123/172/79 143/192/79 144/193/79 124/173/79 
f 124/173/80 144/193/80 145/194/80 125/174/80 
f 125/174/81 145/194/81 146/195/81 126/175/81 
f 126/175/82 146/195/82 147/196/82 127/176/82 
f 127/176/83 147/196/83 148/197/83 128/177/83 
f 128/177/84 148/197/84 149/198/84 129/178/84 
f 129/178/85 149/198/85 150/199/85 130/179/85 
f 130/179/86 150/199/86 151/200/86 131/180/86 
f 131/180/87 151/200/87 152/201/87 132/181/87 
f 132/181/88 152/201/88 153/202/88 133/182/88 
f 133/182/89 153/202/89 154/203/89 134/183/89 
f 134/183/90 154/203/90 155/204/90 135/184/90 
f 135/184/91 155/204/91 136/185/91 116/165/91 
f 136/185/92 156/205/92 157/206/92 137/186/92 
f 137/186/93 157/206/93 158/207/93 138/187/93 
f 138/187/94 158/207/94 159/208/94 139/188/94 
f 139/188/95 159/208/95 160/209/95 140/189/95 
f 140/189/96 160/209/96 161/210/96 141/190/96 
f 141/190/97 161/210/97 162/211/97 142/191/97 
f 142/191/98 162/211/98 163/212/98 143/192/98 
f 143/192/99 163/212/99 164/213/99 144/193/99 
f 144/193/100 164/213/100 165/214/100 145/194/100 
f 145/194/101 165/214/101 166/215/101 146/195/101 
f 146/195/102 166/215/102 167/216/102 147/196/102 
f 147/196/103 167/216/103 168/217/103 148/197/103 
f 148/197/104 168/217/104 169/218/104 149/198/104 
f 149/198/105 169/218/105 170/219/105 150/199/105 
f 150/199/106 170/219/106 171/220/106 151/200/106 
f 151/200/107 171/220/107 172/221/107 152/201/107 
f 152/201/108 172/221/108 173/222/108 153/202/108 
f 153/202/109 173/222/109 174/223/109 154/203/109 
f 154/203/110 174/223/110 175/224/110 155/204/110 
f 155/204/111 175/224/111 156/205/111 136/185/111 
f 156/205/112 176/225/112 177/226/112 157/206/112 
f 157/206/113 177/226/113 178/227/113 158/207/113 
f 158/207/114 178/227/114 179/228/114 159/208/114 
f 159/208/115 179/228/115 180/229/115 160/209/115 
f 160/209/116 180/229/116 181/230/116 161/210/116 
f 161/210/117 181/230/117 182/231/117 162/211/117 
f 162/211/118 182/231/118 183/232/118 163/212/118 
f 163/212/119 183/232/119 184/233/119 164/213/119 
f 164/213/120 184/233/120 185/234/120 165/214/120 
f 165/214/121 185/234/121 186/235/121 166/215/121 
f 166/215/122 186/235/122 187/236/122 167/216/122 
f 167/216/123 187/236/123 188/237/123 168/217/123 
f 168/217/124 188/237/124 189/238/124 169/218/124 
f 169/218/125 189/238/125 190/239/125 170/219/125 
f 170/219/126 190/239/126 191/240/126 171/220/126 
f 171/220/127 191/240/127 192/241/127 172/221/127 
f 172/221/128 192/241/128 193/242/128 173/222/128 
f 173/222/129 193/242/129 194/243/129 174/223/129 
f 174/223/130 194/243/130 195/244/130 175/224/130 
f 175/224/131 195/244/131 176/225/131 156/205/131 
f 176/225/132 97/245/132 98/246/132 177/226/132 
f 177/226/133 98/246/133 99/247/133 178/227/133 
f 178/227/134 99/247/134 100/248/134 179/228/134 
f 179/228/135 100/248/135 101/249/135 180/229/135 
f 180/229/136 101/249/136 102/250/136 181/230/136 
f 181/230/137 102/250/137 196/251/137 182/231/137 
f 182/231/138 196/251/138 197/252/138 183/232/138 
f 183/232/139 197/252/139 108/253/139 184/233/139 
f 184/233/140 108/253/140 107/254/140 185/234/140 
f 185/234/141 107/254/141 109/255/141 186/235/141 
f 186/235/142 109/255/142 110/256/142 187/236/142 
f 187/236/143 110/256/143 111/257/143 188/237/143 
f 188/237/144 111/257/144 112/258/144 189/238/144 
f 189/238/145 112/258/145 113/259/145 190/239/145 
f 190/239/146 113/259/146 114/260/146 191/240/146 
f 191/240/147 114/260/147 94/261/147 192/241/147 
f 192/241/148 94/261/148 93/262/148 193/242/148 
f 193/242/149 93/262/149 95/263/149 194/243/149 
f 194/243/150 95/263/150 96/264/150 195/244/150 
f 195/244/151 96/264/151 97/245/151 176/225/151 
f 24/265/35 26/266/35 28/267/35 55/268/35 54/269/35 
f 28/270/152 59/271/152 56/272/152 55/273/152 
f 59/267/47 81/266/47 79/265/47 57/269/47 56/268/47 
f 79/274/153 24/275/153 54/276/153 57/277/153 
f 80/265/35 82/266/35 83/267/35 104/268/35 103/269/35 
f 83/278/154 108/279/154 105/280/154 104/281/154 
f 108/267/47 197/266/47 196/265/47 106/269/47 105/268/47 
f 196/282/153 80/283/153 103/284/153 106/285/153 
f 78/114/155 80/113/155 196/116/155 102/115/155 
f 22/22/156 24/24/156 79/99/156 77/97/156 
# 173 polygons - 20 triangles

