# 3ds Max Wavefront OBJ Exporter v0.97b - (c)2007 guruware
# ì¬‚µ‚½ƒtƒ@ƒCƒ‹ : 05.11.2019 13:54:11

mtllib Placemark(P).mtl

#
# object Cylinder001
#

v  10.0000 -2.5000 -0.0000
v  9.2388 -2.5000 -3.8268
v  9.2388 2.5000 -3.8268
v  10.0000 2.5000 -0.0000
v  7.0711 -2.5000 -7.0711
v  7.0711 2.5000 -7.0711
v  3.8268 -2.5000 -9.2388
v  3.8268 2.5000 -9.2388
v  -0.0000 -2.5000 -10.0000
v  -0.0000 2.5000 -10.0000
v  -3.8268 -2.5000 -9.2388
v  -3.8268 2.5000 -9.2388
v  -7.0711 -2.5000 -7.0711
v  -7.0711 2.5000 -7.0711
v  -9.2388 -2.5000 -3.8268
v  -9.2388 2.5000 -3.8268
v  -10.0000 -2.5000 -0.0000
v  -10.0000 2.5000 -0.0000
v  -9.2388 -2.5000 3.8268
v  -9.2388 2.5000 3.8268
v  -7.0711 -2.5000 7.0711
v  -7.0711 2.5000 7.0711
v  -3.8268 -2.5000 9.2388
v  -3.8268 2.5000 9.2388
v  0.0000 -2.5000 10.0000
v  0.0000 2.5000 10.0000
v  3.8268 -2.5000 9.2388
v  3.8268 2.5000 9.2388
v  7.0711 -2.5000 7.0711
v  7.0711 2.5000 7.0711
v  9.2388 -2.5000 3.8268
v  9.2388 2.5000 3.8268
# 32 vertices

vn 0.9808 -0.0000 -0.1951
vn 0.8315 0.0000 -0.5556
vn 0.5556 0.0000 -0.8315
vn 0.1951 0.0000 -0.9808
vn -0.1951 0.0000 -0.9808
vn -0.5556 0.0000 -0.8315
vn -0.8315 0.0000 -0.5556
vn -0.9808 0.0000 -0.1951
vn -0.9808 0.0000 0.1951
vn -0.8315 -0.0000 0.5556
vn -0.5556 -0.0000 0.8315
vn -0.1951 -0.0000 0.9808
vn 0.1951 -0.0000 0.9808
vn 0.5556 -0.0000 0.8315
vn 0.8315 -0.0000 0.5556
vn 0.9808 0.0000 0.1951
vn 0.0000 -1.0000 0.0000
vn 0.0000 1.0000 0.0000
# 18 vertex normals

vt 0.8374 0.7226 0.0000
vt 0.8315 0.7226 0.0000
vt 0.8315 0.8776 0.0000
vt 0.8374 0.8776 0.0000
vt 0.8147 0.7226 0.0000
vt 0.8147 0.8776 0.0000
vt 0.7895 0.7226 0.0000
vt 0.7895 0.8776 0.0000
vt 0.7599 0.7226 0.0000
vt 0.7599 0.8776 0.0000
vt 0.7302 0.7226 0.0000
vt 0.7302 0.8776 0.0000
vt 0.7051 0.7226 0.0000
vt 0.7051 0.8776 0.0000
vt 0.6883 0.7226 0.0000
vt 0.6883 0.8776 0.0000
vt 0.6824 0.7226 0.0000
vt 0.6824 0.8776 0.0000
vt 0.1070 0.2261 0.0000
vt 0.1665 0.1370 0.0000
vt 0.2556 0.0775 0.0000
vt 0.3607 0.0566 0.0000
vt 0.4658 0.0775 0.0000
vt 0.5549 0.1370 0.0000
vt 0.6144 0.2261 0.0000
vt 0.6353 0.3312 0.0000
vt 0.6144 0.4363 0.0000
vt 0.5549 0.5254 0.0000
vt 0.4658 0.5849 0.0000
vt 0.3607 0.6058 0.0000
vt 0.2556 0.5849 0.0000
vt 0.1665 0.5254 0.0000
vt 0.1070 0.4363 0.0000
vt 0.0861 0.3312 0.0000
# 34 texture coords

g Cylinder001
usemtl Material__2
s off
f 1/1/1 2/2/1 3/3/1 4/4/1 
f 2/2/2 5/5/2 6/6/2 3/3/2 
f 5/5/3 7/7/3 8/8/3 6/6/3 
f 7/7/4 9/9/4 10/10/4 8/8/4 
f 9/9/5 11/11/5 12/12/5 10/10/5 
f 11/11/6 13/13/6 14/14/6 12/12/6 
f 13/13/7 15/15/7 16/16/7 14/14/7 
f 15/15/8 17/17/8 18/18/8 16/16/8 
f 17/17/9 19/15/9 20/16/9 18/18/9 
f 19/15/10 21/13/10 22/14/10 20/16/10 
f 21/13/11 23/11/11 24/12/11 22/14/11 
f 23/11/12 25/9/12 26/10/12 24/12/12 
f 25/9/13 27/7/13 28/8/13 26/10/13 
f 27/7/14 29/5/14 30/6/14 28/8/14 
f 29/5/15 31/2/15 32/3/15 30/6/15 
f 31/2/16 1/1/16 4/4/16 32/3/16 
f 31/19/17 29/20/17 27/21/17 25/22/17 23/23/17 21/24/17 19/25/17 17/26/17 15/27/17 13/28/17 11/29/17 9/30/17 7/31/17 5/32/17 2/33/17 1/34/17 
f 4/26/18 3/27/18 6/28/18 8/29/18 10/30/18 12/31/18 14/32/18 16/33/18 18/34/18 20/19/18 22/20/18 24/21/18 26/22/18 28/23/18 30/24/18 32/25/18 
# 18 polygons

