# 3ds Max Wavefront OBJ Exporter v0.97b - (c)2007 guruware
# ì¬‚µ‚½ƒtƒ@ƒCƒ‹ : 20.06.2019 13:28:37

mtllib Tire L.mtl

#
# object Cylinder001
#

v  12.5000 -1.1577 23.5632
v  12.5000 -2.2021 23.0310
v  12.5000 -3.0310 22.2022
v  12.5000 -3.5632 21.1577
v  12.5000 -3.7465 20.0000
v  12.5000 -3.5632 18.8423
v  12.5000 -3.0310 17.7978
v  12.5000 -2.2022 16.9690
v  12.5000 -1.1577 16.4368
v  12.5000 -0.0000 16.2535
v  12.5000 1.1577 16.4368
v  12.5000 2.2022 16.9690
v  12.5000 3.0310 17.7978
v  12.5000 3.5665 18.8412
v  12.5000 3.7465 20.0000
v  12.5000 3.5632 21.1577
v  12.5000 3.0310 22.2022
v  12.5000 2.2022 23.0310
v  12.5000 1.1577 23.5632
v  12.5000 0.0000 23.7500
v  17.5000 -0.0000 21.9717
v  17.5000 0.6093 21.8752
v  17.5000 1.1589 21.5951
v  17.5000 1.5951 21.1589
v  17.5000 1.8752 20.6093
v  17.5000 1.9717 20.0000
v  17.5000 1.8752 19.3907
v  17.5000 1.5951 18.8411
v  17.5000 1.1589 18.4049
v  17.5000 0.6093 18.1248
v  17.5000 -0.0000 18.0283
v  17.5000 -0.6093 18.1248
v  17.5000 -1.1589 18.4049
v  17.5000 -1.5951 18.8411
v  17.5000 -1.8752 19.3907
v  17.5000 -1.9717 20.0000
v  17.5000 -1.8752 20.6093
v  17.5000 -1.5951 21.1589
v  17.5000 -1.1589 21.5951
v  17.5000 -0.6093 21.8752
v  17.5000 -0.0000 23.7465
v  17.5000 1.1577 23.5632
v  15.0000 0.8128 22.5017
v  15.0000 -0.0000 22.6304
v  17.5000 2.2022 23.0310
v  15.0000 1.5461 22.1280
v  17.5000 3.0310 22.2022
v  15.0000 2.1281 21.5461
v  17.5000 3.5632 21.1577
v  15.0000 2.5017 20.8128
v  17.5000 3.7465 20.0000
v  15.0000 2.6304 20.0000
v  17.5000 3.5632 18.8423
v  15.0000 2.5017 19.1872
v  17.5000 3.0338 17.7958
v  15.0000 2.1281 18.4539
v  17.5000 2.2022 16.9690
v  15.0000 1.5461 17.8720
v  17.5000 1.1588 16.4335
v  15.0000 0.8128 17.4983
v  17.5000 -0.0000 16.2500
v  15.0000 -0.0000 17.3696
v  17.5000 -1.1588 16.4335
v  15.0000 -0.8128 17.4983
v  17.5000 -2.2042 16.9662
v  15.0000 -1.5461 17.8720
v  17.5000 -3.0338 17.7958
v  15.0000 -2.1281 18.4539
v  17.5000 -3.5665 18.8412
v  15.0000 -2.5017 19.1872
v  17.5000 -3.7500 20.0000
v  15.0000 -2.6304 20.0000
v  17.5000 -3.5665 21.1588
v  15.0000 -2.5017 20.8128
v  17.5000 -3.0338 22.2042
v  15.0000 -2.1280 21.5461
v  17.5000 -2.2021 23.0310
v  15.0000 -1.5461 22.1280
v  17.5000 -1.1577 23.5632
v  15.0000 -0.8128 22.5017
v  12.5000 0.0000 26.2500
v  12.5000 1.9314 25.9441
v  17.5000 1.9314 25.9441
v  17.5000 -0.0000 26.2500
v  12.5000 3.6737 25.0564
v  17.5000 3.6737 25.0564
v  12.5000 5.0564 23.6737
v  17.5000 5.0564 23.6737
v  12.5000 5.9441 21.9314
v  17.5000 5.9441 21.9314
v  12.5000 6.2500 20.0000
v  17.5000 6.2500 20.0000
v  12.5000 5.9441 18.0686
v  17.5000 5.9441 18.0686
v  12.5000 5.0564 16.3263
v  17.5000 5.0564 16.3263
v  12.5000 3.6737 14.9436
v  17.5000 3.6737 14.9436
v  12.5000 1.9314 14.0559
v  17.5000 1.9314 14.0559
v  12.5000 -0.0000 13.7500
v  17.5000 -0.0000 13.7500
v  12.5000 -1.9314 14.0559
v  17.5000 -1.9314 14.0559
v  12.5000 -3.6737 14.9436
v  17.5000 -3.6737 14.9436
v  12.5000 -5.0564 16.3263
v  17.5000 -5.0564 16.3263
v  12.5000 -5.9441 18.0686
v  17.5000 -5.9441 18.0686
v  12.5000 -6.2500 20.0000
v  17.5000 -6.2500 20.0000
v  12.5000 -5.9441 21.9314
v  17.5000 -5.9441 21.9314
v  12.5000 -5.0564 23.6737
v  17.5000 -5.0564 23.6737
v  12.5000 -3.6737 25.0564
v  17.5000 -3.6737 25.0564
v  12.5000 -1.9313 25.9441
v  17.5000 -1.9313 25.9441
# 120 vertices

vn -1.0000 0.0000 0.0000
vn 1.0000 -0.0000 -0.0000
vn 0.4035 -0.1431 -0.9037
vn 0.4035 -0.4154 -0.8153
vn 0.4035 -0.6470 -0.6470
vn 0.4035 -0.8153 -0.4154
vn 0.4035 -0.9037 -0.1431
vn 0.4035 -0.9037 0.1431
vn 0.4040 -0.8158 0.4139
vn 0.4040 -0.6457 0.6479
vn 0.4040 -0.4167 0.8143
vn 0.4045 -0.1431 0.9033
vn 0.4045 0.1431 0.9033
vn 0.4045 0.4152 0.8149
vn 0.4045 0.6467 0.6467
vn 0.4045 0.8149 0.4152
vn 0.4045 0.9033 0.1431
vn 0.4045 0.9033 -0.1431
vn 0.4045 0.8149 -0.4152
vn 0.4040 0.6457 -0.6479
vn 0.4035 0.4154 -0.8153
vn 0.4035 0.1431 -0.9037
vn 0.2519 0.1514 0.9559
vn 0.2519 0.4394 0.8623
vn 0.2519 0.6843 0.6843
vn 0.2519 0.8623 0.4394
vn 0.2519 0.9559 0.1514
vn 0.2519 0.9559 -0.1514
vn 0.2519 0.8623 -0.4394
vn 0.2519 0.6843 -0.6843
vn 0.2519 0.4394 -0.8623
vn 0.2519 0.1514 -0.9559
vn 0.2519 -0.1514 -0.9559
vn 0.2519 -0.4394 -0.8623
vn 0.2519 -0.6843 -0.6843
vn 0.2519 -0.8623 -0.4394
vn 0.2519 -0.9559 -0.1514
vn 0.2519 -0.9559 0.1514
vn 0.2519 -0.8623 0.4394
vn 0.2519 -0.6843 0.6843
vn 0.2519 -0.4394 0.8623
vn 0.2519 -0.1514 0.9559
vn -0.6735 0.0000 0.7392
vn -0.6735 0.2284 0.7030
vn 0.6735 0.2284 0.7030
vn 0.6735 0.0000 0.7392
vn -0.6735 0.4345 0.5980
vn 0.6735 0.4345 0.5980
vn -0.6735 0.5980 0.4345
vn 0.6735 0.5980 0.4345
vn -0.6735 0.7030 0.2284
vn 0.6735 0.7030 0.2284
vn -0.6735 0.7392 0.0000
vn 0.6735 0.7392 -0.0000
vn -0.6735 0.7030 -0.2284
vn 0.6735 0.7030 -0.2284
vn -0.6735 0.5980 -0.4345
vn 0.6735 0.5980 -0.4345
vn -0.6735 0.4345 -0.5980
vn 0.6735 0.4345 -0.5980
vn -0.6735 0.2284 -0.7030
vn 0.6735 0.2284 -0.7030
vn -0.6735 -0.0000 -0.7392
vn 0.6735 -0.0000 -0.7392
vn -0.6735 -0.2284 -0.7030
vn 0.6735 -0.2284 -0.7030
vn -0.6735 -0.4345 -0.5980
vn 0.6735 -0.4345 -0.5980
vn -0.6735 -0.5980 -0.4345
vn 0.6735 -0.5980 -0.4345
vn -0.6735 -0.7030 -0.2284
vn 0.6735 -0.7030 -0.2284
vn -0.6735 -0.7392 0.0000
vn 0.6735 -0.7392 0.0000
vn -0.6735 -0.7030 0.2284
vn 0.6735 -0.7030 0.2284
vn -0.6735 -0.5980 0.4345
vn 0.6735 -0.5980 0.4345
vn -0.6735 -0.4345 0.5980
vn 0.6735 -0.4345 0.5980
vn -0.6735 -0.2284 0.7030
vn 0.6735 -0.2284 0.7030
vn -1.0000 -0.0000 0.0000
vn -1.0000 -0.0000 -0.0000
vn 1.0000 0.0000 -0.0000
vn 1.0000 -0.0000 0.0000
vn 1.0000 0.0000 0.0000
# 87 vertex normals

vt 0.3075 0.7933 0.0000
vt 0.2889 0.7567 0.0000
vt 0.2598 0.7276 0.0000
vt 0.2232 0.7090 0.0000
vt 0.1826 0.7026 0.0000
vt 0.1421 0.7090 0.0000
vt 0.1055 0.7276 0.0000
vt 0.0764 0.7567 0.0000
vt 0.0578 0.7933 0.0000
vt 0.0513 0.8339 0.0000
vt 0.0578 0.8745 0.0000
vt 0.0764 0.9111 0.0000
vt 0.1055 0.9402 0.0000
vt 0.1420 0.9590 0.0000
vt 0.1826 0.9653 0.0000
vt 0.2232 0.9588 0.0000
vt 0.2598 0.9402 0.0000
vt 0.2889 0.9111 0.0000
vt 0.3075 0.8745 0.0000
vt 0.3141 0.8339 0.0000
vt 0.2517 0.8339 0.0000
vt 0.2484 0.8553 0.0000
vt 0.2385 0.8745 0.0000
vt 0.2233 0.8898 0.0000
vt 0.2040 0.8997 0.0000
vt 0.1826 0.9030 0.0000
vt 0.1613 0.8997 0.0000
vt 0.1420 0.8898 0.0000
vt 0.1267 0.8745 0.0000
vt 0.1169 0.8553 0.0000
vt 0.1135 0.8339 0.0000
vt 0.1169 0.8125 0.0000
vt 0.1267 0.7933 0.0000
vt 0.1420 0.7780 0.0000
vt 0.1613 0.7682 0.0000
vt 0.1826 0.7648 0.0000
vt 0.2040 0.7682 0.0000
vt 0.2233 0.7780 0.0000
vt 0.2385 0.7933 0.0000
vt 0.2484 0.8125 0.0000
vt 0.3139 0.8339 0.0000
vt 0.2703 0.8624 0.0000
vt 0.2748 0.8339 0.0000
vt 0.2572 0.8881 0.0000
vt 0.2368 0.9085 0.0000
vt 0.2111 0.9216 0.0000
vt 0.1826 0.9261 0.0000
vt 0.1421 0.9588 0.0000
vt 0.1542 0.9216 0.0000
vt 0.1054 0.9403 0.0000
vt 0.1285 0.9085 0.0000
vt 0.1081 0.8881 0.0000
vt 0.0577 0.8745 0.0000
vt 0.0950 0.8624 0.0000
vt 0.0512 0.8339 0.0000
vt 0.0905 0.8339 0.0000
vt 0.0577 0.7933 0.0000
vt 0.0950 0.8054 0.0000
vt 0.0763 0.7566 0.0000
vt 0.1081 0.7797 0.0000
vt 0.1054 0.7275 0.0000
vt 0.1285 0.7593 0.0000
vt 0.1420 0.7089 0.0000
vt 0.1542 0.7462 0.0000
vt 0.1826 0.7024 0.0000
vt 0.1826 0.7417 0.0000
vt 0.2232 0.7089 0.0000
vt 0.2111 0.7462 0.0000
vt 0.2599 0.7275 0.0000
vt 0.2368 0.7593 0.0000
vt 0.2572 0.7797 0.0000
vt 0.2703 0.8054 0.0000
vt 0.5962 0.2179 0.0000
vt 0.5962 0.2509 0.0000
vt 0.3829 0.2509 0.0000
vt 0.3829 0.2179 0.0000
vt 0.5962 0.2806 0.0000
vt 0.3829 0.2806 0.0000
vt 0.5962 0.3042 0.0000
vt 0.3829 0.3042 0.0000
vt 0.5962 0.3193 0.0000
vt 0.3829 0.3193 0.0000
vt 0.5962 0.3245 0.0000
vt 0.3829 0.3245 0.0000
vt 0.5962 0.1849 0.0000
vt 0.3829 0.1849 0.0000
vt 0.5962 0.1552 0.0000
vt 0.3829 0.1552 0.0000
vt 0.5962 0.1316 0.0000
vt 0.3829 0.1316 0.0000
vt 0.5962 0.1165 0.0000
vt 0.3829 0.1165 0.0000
vt 0.5962 0.1112 0.0000
vt 0.3829 0.1112 0.0000
vt 0.9551 0.2644 0.0000
vt 0.9634 0.2123 0.0000
vt 0.8959 0.2123 0.0000
vt 0.8909 0.2435 0.0000
vt 0.9551 0.1602 0.0000
vt 0.8909 0.1810 0.0000
vt 0.9312 0.1132 0.0000
vt 0.8765 0.1529 0.0000
vt 0.8939 0.0759 0.0000
vt 0.8542 0.1305 0.0000
vt 0.8468 0.0519 0.0000
vt 0.8260 0.1162 0.0000
vt 0.7947 0.0437 0.0000
vt 0.7947 0.1112 0.0000
vt 0.7426 0.0519 0.0000
vt 0.7635 0.1162 0.0000
vt 0.6956 0.0759 0.0000
vt 0.7353 0.1305 0.0000
vt 0.6583 0.1132 0.0000
vt 0.7130 0.1529 0.0000
vt 0.6344 0.1602 0.0000
vt 0.6986 0.1810 0.0000
vt 0.6261 0.2123 0.0000
vt 0.6937 0.2123 0.0000
vt 0.6344 0.2644 0.0000
vt 0.6986 0.2435 0.0000
vt 0.6583 0.3114 0.0000
vt 0.7130 0.2717 0.0000
vt 0.6956 0.3487 0.0000
vt 0.7353 0.2940 0.0000
vt 0.7426 0.3726 0.0000
vt 0.7635 0.3085 0.0000
vt 0.7947 0.3809 0.0000
vt 0.7947 0.3133 0.0000
vt 0.8468 0.3726 0.0000
vt 0.8260 0.3084 0.0000
vt 0.8939 0.3487 0.0000
vt 0.8542 0.2940 0.0000
vt 0.9312 0.3114 0.0000
vt 0.8765 0.2717 0.0000
vt 0.8958 0.2123 0.0000
vt 0.7635 0.3084 0.0000
vt 0.7353 0.2941 0.0000
vt 0.6985 0.2435 0.0000
vt 0.6936 0.2123 0.0000
vt 0.6985 0.1810 0.0000
vt 0.7129 0.1528 0.0000
vt 0.7353 0.1304 0.0000
vt 0.7635 0.1161 0.0000
vt 0.7947 0.1111 0.0000
vt 0.8260 0.1161 0.0000
vt 0.8542 0.1304 0.0000
# 146 texture coords

g Cylinder001
usemtl Material__2
s off
f 20/20/1 19/19/1 18/18/1 17/17/1 16/16/1 15/15/1 14/14/1 13/13/1 12/12/1 11/11/1 10/10/1 9/9/1 8/8/1 7/7/1 6/6/1 5/5/1 4/4/1 3/3/1 2/2/1 1/1/1 
f 40/40/2 39/39/2 38/38/2 37/37/2 36/36/2 35/35/2 34/34/2 33/33/2 32/32/2 31/31/2 30/30/2 29/29/2 28/28/2 27/27/2 26/26/2 25/25/2 24/24/2 23/23/2 22/22/2 21/21/2 
f 44/43/3 43/42/3 42/19/3 41/41/3 
f 43/42/4 46/44/4 45/18/4 42/19/4 
f 46/44/5 48/45/5 47/17/5 45/18/5 
f 48/45/6 50/46/6 49/16/6 47/17/6 
f 50/46/7 52/47/7 51/15/7 49/16/7 
f 52/47/8 54/49/8 53/48/8 51/15/8 
f 54/49/9 56/51/9 55/50/9 53/48/9 
f 56/51/10 58/52/10 57/12/10 55/50/10 
f 58/52/11 60/54/11 59/53/11 57/12/11 
f 60/54/12 62/56/12 61/55/12 59/53/12 
f 62/56/13 64/58/13 63/57/13 61/55/13 
f 64/58/14 66/60/14 65/59/14 63/57/14 
f 66/60/15 68/62/15 67/61/15 65/59/15 
f 68/62/16 70/64/16 69/63/16 67/61/16 
f 70/64/17 72/66/17 71/65/17 69/63/17 
f 72/66/18 74/68/18 73/67/18 71/65/18 
f 74/68/19 76/70/19 75/69/19 73/67/19 
f 76/70/20 78/71/20 77/2/20 75/69/20 
f 78/71/21 80/72/21 79/1/21 77/2/21 
f 80/72/22 44/43/22 41/41/22 79/1/22 
f 21/21/23 22/22/23 43/42/23 44/43/23 
f 22/22/24 23/23/24 46/44/24 43/42/24 
f 23/23/25 24/24/25 48/45/25 46/44/25 
f 24/24/26 25/25/26 50/46/26 48/45/26 
f 25/25/27 26/26/27 52/47/27 50/46/27 
f 26/26/28 27/27/28 54/49/28 52/47/28 
f 27/27/29 28/28/29 56/51/29 54/49/29 
f 28/28/30 29/29/30 58/52/30 56/51/30 
f 29/29/31 30/30/31 60/54/31 58/52/31 
f 30/30/32 31/31/32 62/56/32 60/54/32 
f 31/31/33 32/32/33 64/58/33 62/56/33 
f 32/32/34 33/33/34 66/60/34 64/58/34 
f 33/33/35 34/34/35 68/62/35 66/60/35 
f 34/34/36 35/35/36 70/64/36 68/62/36 
f 35/35/37 36/36/37 72/66/37 70/64/37 
f 36/36/38 37/37/38 74/68/38 72/66/38 
f 37/37/39 38/38/39 76/70/39 74/68/39 
f 38/38/40 39/39/40 78/71/40 76/70/40 
f 39/39/41 40/40/41 80/72/41 78/71/41 
f 40/40/42 21/21/42 44/43/42 80/72/42 
s 25
f 84/76/46 83/75/45 82/74/44 81/73/43 
s 14
f 83/75/45 86/78/48 85/77/47 82/74/44 
s 25
f 86/78/48 88/80/50 87/79/49 85/77/47 
s 14
f 88/80/50 90/82/52 89/81/51 87/79/49 
s 25
f 90/82/52 92/84/54 91/83/53 89/81/51 
s 14
f 92/84/54 94/82/56 93/81/55 91/83/53 
s 25
f 94/82/56 96/80/58 95/79/57 93/81/55 
s 42
f 96/80/58 98/78/60 97/77/59 95/79/57 
s 13
f 98/78/60 100/75/62 99/74/61 97/77/59 
s 26
f 100/75/62 102/76/64 101/73/63 99/74/61 
s 13
f 102/76/64 104/86/66 103/85/65 101/73/63 
s 26
f 104/86/66 106/88/68 105/87/67 103/85/65 
s 13
f 106/88/68 108/90/70 107/89/69 105/87/67 
s 26
f 108/90/70 110/92/72 109/91/71 107/89/69 
s 13
f 110/92/72 112/94/74 111/93/73 109/91/71 
s 26
f 112/94/74 114/92/76 113/91/75 111/93/73 
s 44
f 114/92/76 116/90/78 115/89/77 113/91/75 
s 25
f 116/90/78 118/88/80 117/87/79 115/89/77 
s 42
f 118/88/80 120/86/82 119/85/81 117/87/79 
s 76
f 120/86/82 84/76/46 81/73/43 119/85/81 
s 176
f 19/98/83 20/97/1 81/96/43 82/95/44 
s 448
f 20/97/1 1/100/1 119/99/81 81/96/43 
s 800
f 1/100/1 2/102/83 117/101/79 119/99/81 
s 592
f 2/102/83 3/104/1 115/103/77 117/101/79 
s 224
f 3/104/1 4/106/1 113/105/75 115/103/77 
s 400
f 4/106/1 5/108/1 111/107/73 113/105/75 
s 292
f 5/108/1 6/110/1 109/109/71 111/107/73 
s 112
f 6/110/1 7/112/1 107/111/69 109/109/71 
s 196
f 7/112/1 8/114/1 105/113/67 107/111/69 
s 176
f 8/114/1 9/116/1 103/115/65 105/113/67 
s 100
f 9/116/1 10/118/83 101/117/63 103/115/65 
s 208
f 10/118/83 11/120/83 99/119/61 101/117/63 
s 388
f 11/120/83 12/122/83 97/121/59 99/119/61 
s 352
f 12/122/83 13/124/1 95/123/57 97/121/59 
s 208
f 13/124/1 14/126/83 93/125/55 95/123/57 
s 164
f 14/126/83 15/128/84 91/127/53 93/125/55 
s 112
f 15/128/84 16/130/1 89/129/51 91/127/53 
s 196
f 16/130/1 17/132/1 87/131/49 89/129/51 
s 400
f 17/132/1 18/134/1 85/133/47 87/131/49 
s 292
f 18/134/1 19/98/83 82/95/44 85/133/47 
s 33
f 41/135/2 42/98/2 83/95/45 84/96/46 
s 98
f 42/98/2 45/134/2 86/133/48 83/95/45 
s 193
f 45/134/2 47/132/85 88/131/50 86/133/48 
s 386
f 47/132/85 49/130/86 90/129/52 88/131/50 
s 289
f 49/130/86 51/128/2 92/127/54 90/129/52 
s 98
f 51/128/2 53/136/87 94/125/56 92/127/54 
s 193
f 53/136/87 55/137/85 96/123/58 94/125/56 
s 386
f 55/137/85 57/122/85 98/121/60 96/123/58 
s 321
f 57/122/85 59/138/85 100/119/62 98/121/60 
s 98
f 59/138/85 61/139/2 102/117/64 100/119/62 
s 161
f 61/139/2 63/140/2 104/115/66 102/117/64 
s 194
f 63/140/2 65/141/2 106/113/68 104/115/66 
s 97
f 65/141/2 67/142/2 108/111/70 106/113/68 
s 162
f 67/142/2 69/143/2 110/109/72 108/111/70 
s 193
f 69/143/2 71/144/2 112/107/74 110/109/72 
s 322
f 71/144/2 73/145/86 114/105/76 112/107/74 
s 388
f 73/145/86 75/146/86 116/103/78 114/105/76 
s 641
f 75/146/86 77/102/87 118/101/80 116/103/78 
s 770
f 77/102/87 79/100/85 120/99/82 118/101/80 
s 260
f 79/100/85 41/135/85 84/96/46 120/99/82 
# 102 polygons

