# 3ds Max Wavefront OBJ Exporter v0.97b - (c)2007 guruware
# 作成したファイル : 11.09.2019 11:12:11

mtllib truck（Li）.mtl

#
# object Box002
#

v  -17.5000 0.0000 13.7500
v  17.5000 0.0000 13.7500
v  17.5000 1.9313 14.0550
v  -17.5000 1.9313 14.0550
v  17.5000 3.6734 14.9434
v  -17.5000 3.6734 14.9434
v  17.5000 5.0561 16.3260
v  -17.5000 5.0561 16.3260
v  17.5000 5.9436 18.0675
v  -17.5000 5.9436 18.0675
v  17.5000 6.2500 20.0000
v  -17.5000 6.2500 20.0000
v  -10.0000 0.0051 33.2500
v  10.0000 0.0051 33.2500
v  10.0000 18.7500 33.2500
v  -10.0000 18.7500 33.2500
v  17.5000 5.9450 21.9312
v  -17.5000 5.9450 21.9312
v  17.5000 5.0569 23.6733
v  -17.5000 5.0569 23.6733
v  17.5000 3.6736 25.0563
v  -17.5000 3.6736 25.0563
v  17.5000 1.9260 25.9465
v  -17.5000 1.9260 25.9465
v  17.5000 0.0051 26.2500
v  -17.5000 0.0051 26.2500
v  17.5000 0.0000 -13.7500
v  -17.5000 0.0000 -13.7500
v  -17.5000 1.9313 -14.0550
v  17.5000 1.9313 -14.0550
v  -17.5000 3.6734 -14.9434
v  17.5000 3.6734 -14.9434
v  -17.5000 5.0561 -16.3260
v  17.5000 5.0561 -16.3260
v  -17.5000 5.9436 -18.0675
v  17.5000 5.9436 -18.0675
v  -17.5000 6.2500 -20.0000
v  17.5000 6.2500 -20.0000
v  17.5000 0.0051 -26.2500
v  -17.5000 0.0051 -26.2500
v  -17.5000 8.7500 -26.2500
v  17.5000 8.7500 -26.2500
v  -17.5000 5.9450 -21.9312
v  17.5000 5.9450 -21.9312
v  -17.5000 5.0569 -23.6733
v  17.5000 5.0569 -23.6733
v  -17.5000 3.6736 -25.0563
v  17.5000 3.6736 -25.0563
v  -17.5000 1.9260 -25.9465
v  17.5000 1.9260 -25.9465
v  -10.0000 25.0000 13.7500
v  -10.0000 25.0000 26.2500
v  10.0000 25.0000 26.2500
v  10.0000 25.0000 13.7500
v  17.5000 18.7500 26.2500
v  17.5000 13.2500 13.7500
v  17.5000 18.7500 13.7500
v  -17.5000 13.2500 13.7500
v  -17.5000 18.7500 26.2500
v  -17.5000 18.7500 13.7500
v  15.0000 13.2500 13.7500
v  15.0000 8.7500 13.7500
v  -15.0000 8.7500 13.7500
v  -15.0000 13.2500 13.7500
v  -15.0000 8.7500 -26.2500
v  -15.0000 13.2500 -26.2500
v  15.0000 8.7500 -26.2500
v  15.0000 13.2500 -26.2500
v  -17.5000 8.7500 -28.7500
v  17.5000 8.7500 -28.7500
v  -17.5000 13.2500 -28.7500
v  17.5000 13.2500 -28.7500
# 72 vertices

vn 0.0000 -0.1560 0.9878
vn 0.0000 -0.4543 0.8909
vn 0.0000 -0.7071 0.7071
vn 0.0000 -0.8910 0.4541
vn 0.0000 -0.9877 0.1566
vn 0.0000 0.0000 1.0000
vn 0.0000 -0.9878 -0.1560
vn 0.0000 -0.8909 -0.4542
vn 0.0000 -0.7070 -0.7072
vn 0.0000 -0.4539 -0.8911
vn 0.0000 -0.1561 -0.9877
vn 0.0000 -1.0000 -0.0000
vn -0.0000 -0.1560 -0.9878
vn -0.0000 -0.4543 -0.8909
vn -0.0000 -0.7071 -0.7071
vn -0.0000 -0.8910 -0.4541
vn -0.0000 -0.9877 -0.1566
vn -0.0000 0.0000 -1.0000
vn 0.0000 -0.9878 0.1560
vn 0.0000 -0.8909 0.4542
vn 0.0000 -0.7070 0.7072
vn 0.0000 -0.4539 0.8911
vn 0.0000 -0.1561 0.9877
vn 0.0000 1.0000 -0.0000
vn 1.0000 0.0000 -0.0000
vn -1.0000 -0.0000 0.0000
vn 0.6402 0.7682 -0.0000
vn -0.6402 0.7682 0.0000
vn -0.6823 0.0000 0.7311
vn 0.6823 0.0000 0.7311
vn 0.5279 0.6335 0.5656
vn -0.5279 0.6335 0.5656
vn 0.0000 0.7459 0.6660
vn -0.0000 -0.0000 -1.0000
vn 0.0000 1.0000 0.0000
vn -0.0000 -1.0000 -0.0000
vn -0.0000 1.0000 0.0000
# 37 vertex normals

vt 0.3030 0.4545 0.0000
vt 0.3940 0.4545 0.0000
vt 0.3940 0.4539 0.0000
vt 0.3030 0.4539 0.0000
vt 0.3940 0.4521 0.0000
vt 0.3030 0.4521 0.0000
vt 0.3940 0.4492 0.0000
vt 0.3030 0.4492 0.0000
vt 0.3940 0.4457 0.0000
vt 0.3030 0.4457 0.0000
vt 0.3940 0.4417 0.0000
vt 0.3030 0.4417 0.0000
vt 0.1200 0.6861 0.0000
vt 0.2636 0.6861 0.0000
vt 0.2636 0.8405 0.0000
vt 0.1200 0.8405 0.0000
vt 0.3940 0.4377 0.0000
vt 0.3030 0.4377 0.0000
vt 0.3940 0.4341 0.0000
vt 0.3030 0.4341 0.0000
vt 0.3940 0.4313 0.0000
vt 0.3030 0.4313 0.0000
vt 0.3940 0.4295 0.0000
vt 0.3030 0.4295 0.0000
vt 0.3940 0.4288 0.0000
vt 0.3030 0.4288 0.0000
vt 0.3940 0.5111 0.0000
vt 0.3030 0.5111 0.0000
vt 0.3030 0.5117 0.0000
vt 0.3940 0.5117 0.0000
vt 0.3030 0.5135 0.0000
vt 0.3940 0.5135 0.0000
vt 0.3030 0.5164 0.0000
vt 0.3940 0.5164 0.0000
vt 0.3030 0.5200 0.0000
vt 0.3940 0.5200 0.0000
vt 0.3030 0.5239 0.0000
vt 0.3940 0.5239 0.0000
vt 0.1072 0.5492 0.0000
vt 0.1722 0.5492 0.0000
vt 0.1722 0.6089 0.0000
vt 0.1072 0.6089 0.0000
vt 0.3030 0.5279 0.0000
vt 0.3940 0.5279 0.0000
vt 0.3030 0.5315 0.0000
vt 0.3940 0.5315 0.0000
vt 0.3030 0.5343 0.0000
vt 0.3940 0.5343 0.0000
vt 0.3030 0.5362 0.0000
vt 0.3940 0.5362 0.0000
vt 0.3030 0.5368 0.0000
vt 0.3940 0.5368 0.0000
vt 0.6426 0.4968 0.0000
vt 0.6426 0.4702 0.0000
vt 0.7056 0.4702 0.0000
vt 0.7056 0.4968 0.0000
vt 0.7144 0.8616 0.0000
vt 0.7144 0.6966 0.0000
vt 0.7127 0.7135 0.0000
vt 0.7075 0.7289 0.0000
vt 0.6995 0.7411 0.0000
vt 0.6894 0.7489 0.0000
vt 0.6783 0.7516 0.0000
vt 0.6671 0.7489 0.0000
vt 0.6570 0.7411 0.0000
vt 0.6490 0.7289 0.0000
vt 0.6439 0.7136 0.0000
vt 0.6421 0.6965 0.0000
vt 0.6421 0.8132 0.0000
vt 0.6421 0.8616 0.0000
vt 0.6421 0.9167 0.0000
vt 0.7144 0.9167 0.0000
vt 0.9338 0.4791 0.0000
vt 0.8010 0.4791 0.0000
vt 0.8295 0.5229 0.0000
vt 0.9054 0.5229 0.0000
vt 0.0662 0.8405 0.0000
vt 0.0662 0.6861 0.0000
vt 0.3745 0.4144 0.0000
vt 0.3225 0.4144 0.0000
vt 0.3174 0.6861 0.0000
vt 0.3174 0.8405 0.0000
vt 0.2636 0.8920 0.0000
vt 0.1200 0.8920 0.0000
vt 0.9338 0.4406 0.0000
vt 0.9243 0.4406 0.0000
vt 0.9243 0.4091 0.0000
vt 0.8105 0.4091 0.0000
vt 0.8105 0.4406 0.0000
vt 0.8010 0.4406 0.0000
vt 0.6421 0.7736 0.0000
vt 0.4107 0.7736 0.0000
vt 0.4107 0.8132 0.0000
vt 0.6269 0.5821 0.0000
vt 0.6269 0.4968 0.0000
vt 0.7214 0.4968 0.0000
vt 0.7214 0.5821 0.0000
vt 0.7769 0.8618 0.0000
vt 0.7769 0.8714 0.0000
vt 0.9571 0.8714 0.0000
vt 0.9571 0.8618 0.0000
vt 0.4107 0.6966 0.0000
vt 0.4124 0.7135 0.0000
vt 0.4176 0.7289 0.0000
vt 0.4256 0.7411 0.0000
vt 0.4357 0.7489 0.0000
vt 0.4468 0.7516 0.0000
vt 0.4580 0.7489 0.0000
vt 0.4681 0.7411 0.0000
vt 0.4761 0.7289 0.0000
vt 0.4812 0.7136 0.0000
vt 0.4830 0.6965 0.0000
vt 0.3962 0.8132 0.0000
vt 0.3962 0.7736 0.0000
vt 0.7769 0.7073 0.0000
vt 0.7898 0.7073 0.0000
vt 0.7898 0.8618 0.0000
vt 0.9443 0.8618 0.0000
vt 0.9443 0.7073 0.0000
vt 0.9571 0.7073 0.0000
vt 0.8201 0.5686 0.0000
vt 0.9083 0.5686 0.0000
vt 0.9083 0.6081 0.0000
vt 0.8201 0.6081 0.0000
vt 0.9157 0.5686 0.0000
vt 0.8128 0.5686 0.0000
vt 0.8128 0.6081 0.0000
vt 0.9157 0.6081 0.0000
# 128 texture coords

g Box002
usemtl Material__2
s off
f 1/1/1 2/2/1 3/3/1 4/4/1 
f 4/4/2 3/3/2 5/5/2 6/6/2 
f 6/6/3 5/5/3 7/7/3 8/8/3 
f 8/8/4 7/7/4 9/9/4 10/10/4 
f 10/10/5 9/9/5 11/11/5 12/12/5 
f 13/13/6 14/14/6 15/15/6 16/16/6 
f 12/12/7 11/11/7 17/17/7 18/18/7 
f 18/18/8 17/17/8 19/19/8 20/20/8 
f 20/20/9 19/19/9 21/21/9 22/22/9 
f 22/22/10 21/21/10 23/23/10 24/24/10 
f 24/24/11 23/23/11 25/25/11 26/26/11 
f 27/27/12 2/2/12 1/1/12 28/28/12 
f 27/27/13 28/28/13 29/29/13 30/30/13 
f 30/30/14 29/29/14 31/31/14 32/32/14 
f 32/32/15 31/31/15 33/33/15 34/34/15 
f 34/34/16 33/33/16 35/35/16 36/36/16 
f 36/36/17 35/35/17 37/37/17 38/38/17 
f 39/39/18 40/40/18 41/41/18 42/42/18 
f 38/38/19 37/37/19 43/43/19 44/44/19 
f 44/44/20 43/43/20 45/45/20 46/46/20 
f 46/46/21 45/45/21 47/47/21 48/48/21 
f 48/48/22 47/47/22 49/49/22 50/50/22 
f 50/50/23 49/49/23 40/51/23 39/52/23 
f 51/53/24 52/54/24 53/55/24 54/56/24 
f 55/57/25 25/58/25 23/59/25 21/60/25 19/61/25 17/62/25 11/63/25 9/64/25 7/65/25 5/66/25 3/67/25 2/68/25 56/69/25 57/70/25 
f 58/69/26 1/68/26 4/67/26 6/66/26 8/65/26 10/64/26 12/63/26 18/62/26 20/61/26 22/60/26 24/59/26 26/58/26 59/57/26 60/70/26 
f 55/57/27 57/70/27 54/71/27 53/72/27 
f 57/73/18 60/74/18 51/75/18 54/76/18 
f 60/70/28 59/57/28 52/72/28 51/71/28 
f 59/77/29 26/78/29 13/13/29 16/16/29 
f 26/26/12 25/25/12 14/79/12 13/80/12 
f 25/81/30 55/82/30 15/15/30 14/14/30 
f 55/82/31 53/83/31 15/15/31 
f 52/84/32 59/77/32 16/16/32 
f 53/83/33 52/84/33 16/16/33 15/15/33 
f 57/73/34 56/85/34 61/86/34 62/87/34 63/88/34 64/89/34 58/90/34 60/74/34 
f 63/91/25 65/92/25 66/93/25 64/69/25 
f 67/92/26 62/91/26 61/69/26 68/93/26 
f 65/94/35 63/95/35 62/96/35 67/97/35 
f 41/98/36 69/99/36 70/100/36 42/101/36 
f 41/92/26 40/102/26 49/103/26 47/104/26 45/105/26 43/106/26 37/107/26 35/108/26 33/109/26 31/110/26 29/111/26 28/112/26 1/68/26 58/69/26 71/113/26 69/114/26 
f 71/99/37 58/115/37 64/116/37 66/117/37 68/118/37 61/119/37 56/120/37 72/100/37 
f 72/113/25 56/69/25 2/68/25 27/112/25 30/111/25 32/110/25 34/109/25 36/108/25 38/107/25 44/106/25 46/105/25 48/104/25 50/103/25 39/102/25 42/92/25 70/114/25 
f 65/121/6 67/122/6 68/123/6 66/124/6 
f 70/125/18 69/126/18 71/127/18 72/128/18 
# 43 polygons - 2 triangles

